<svg width="18" height="20" viewBox="0 0 18 20" fill="none" xmlns="http://www.w3.org/2000/svg">
<path d="M5 0C5.69141 0 6.25 0.558594 6.25 1.25V2.5H11.25V1.25C11.25 0.558594 11.8086 0 12.5 0C13.1914 0 13.75 0.558594 13.75 1.25V2.5H15.625C16.6602 2.5 17.5 3.33984 17.5 4.375V6.25H0V4.375C0 3.33984 0.839844 2.5 1.875 2.5H3.75V1.25C3.75 0.558594 4.30859 0 5 0ZM0 7.5H17.5V18.125C17.5 19.1602 16.6602 20 15.625 20H1.875C0.839844 20 0 19.1602 0 18.125V7.5ZM2.5 10.625V11.875C2.5 12.2188 2.78125 12.5 3.125 12.5H4.375C4.71875 12.5 5 12.2188 5 11.875V10.625C5 10.2812 4.71875 10 4.375 10H3.125C2.78125 10 2.5 10.2812 2.5 10.625ZM7.5 10.625V11.875C7.5 12.2188 7.78125 12.5 8.125 12.5H9.375C9.71875 12.5 10 12.2188 10 11.875V10.625C10 10.2812 9.71875 10 9.375 10H8.125C7.78125 10 7.5 10.2812 7.5 10.625ZM13.125 10C12.7812 10 12.5 10.2812 12.5 10.625V11.875C12.5 12.2188 12.7812 12.5 13.125 12.5H14.375C14.7188 12.5 15 12.2188 15 11.875V10.625C15 10.2812 14.7188 10 14.375 10H13.125ZM2.5 15.625V16.875C2.5 17.2188 2.78125 17.5 3.125 17.5H4.375C4.71875 17.5 5 17.2188 5 16.875V15.625C5 15.2812 4.71875 15 4.375 15H3.125C2.78125 15 2.5 15.2812 2.5 15.625ZM8.125 15C7.78125 15 7.5 15.2812 7.5 15.625V16.875C7.5 17.2188 7.78125 17.5 8.125 17.5H9.375C9.71875 17.5 10 17.2188 10 16.875V15.625C10 15.2812 9.71875 15 9.375 15H8.125ZM12.5 15.625V16.875C12.5 17.2188 12.7812 17.5 13.125 17.5H14.375C14.7188 17.5 15 17.2188 15 16.875V15.625C15 15.2812 14.7188 15 14.375 15H13.125C12.7812 15 12.5 15.2812 12.5 15.625Z" fill="#BCC8C7"/>
</svg>
