<svg width="10" height="16" viewBox="0 0 10 16" fill="none" xmlns="http://www.w3.org/2000/svg">
<g clip-path="url(#clip0_18_8)">
<path d="M4.64733 11.3527L4.29375 10.9991L4.29063 11.0022L0.645331 7.35694C0.500888 7.21028 0.459367 6.99634 0.536569 6.81106C0.615529 6.62156 0.79965 6.5 1.00003 6.5L1.00023 6.5L9.00003 6.49688C9.00006 6.49688 9.00009 6.49688 9.00013 6.49688C9.00016 6.49688 9.00019 6.49688 9.00023 6.49688C9.20276 6.49695 9.38421 6.61766 9.46349 6.80793C9.5419 6.99612 9.49992 7.20863 9.35585 7.3527L9.69257 7.68942L9.35585 7.3527L5.35585 11.3527C5.16049 11.5481 4.8427 11.5481 4.64733 11.3527Z" stroke="black"/>
</g>
<defs>
<clipPath id="clip0_18_8">
<rect width="10" height="16" fill="white"/>
</clipPath>
</defs>
</svg>
