<svg width="15" height="27" viewBox="0 0 15 27" fill="none" xmlns="http://www.w3.org/2000/svg">
<path d="M7.50782 0C8.43001 0 9.17506 0.74505 9.17506 1.66724V3.52726C9.25842 3.53768 9.33657 3.5481 9.41994 3.56373C9.97221 3.6471 11.6134 3.91281 12.2907 4.08475C13.1817 4.30878 13.7235 5.21535 13.4995 6.11149C13.2754 7.00763 12.3689 7.54428 11.4727 7.32024C10.9882 7.1952 9.51372 6.95553 8.92497 6.86696C7.25252 6.61687 5.81973 6.74192 4.83502 7.12226C3.88156 7.48697 3.48559 8.00277 3.38139 8.5811C3.28239 9.13858 3.35534 9.4564 3.44912 9.65438C3.54811 9.86279 3.74089 10.0972 4.12123 10.3525C4.96527 10.9152 6.26259 11.2852 7.94026 11.7436L8.08614 11.7853C9.56582 12.1865 11.3789 12.6815 12.7232 13.5724C13.4578 14.0622 14.1455 14.7238 14.5728 15.6408C15.0052 16.5682 15.099 17.6103 14.901 18.72C14.5415 20.6999 13.1764 22.0232 11.4832 22.7162C10.7694 23.008 9.99305 23.1955 9.16985 23.2893V25.0087C9.16985 25.9309 8.4248 26.6759 7.50261 26.6759C6.58041 26.6759 5.83536 25.9309 5.83536 25.0087V23.1903C5.81452 23.1851 5.78847 23.1851 5.76763 23.1799H5.75721C4.48594 22.9819 2.39667 22.4349 0.989934 21.8096C0.145891 21.4345 -0.229239 20.4498 0.145891 19.611C0.521021 18.7721 1.50574 18.3918 2.34457 18.7669C3.43349 19.2515 5.22578 19.7256 6.26259 19.8923C7.92463 20.1372 9.29489 19.9965 10.2223 19.6162C11.1028 19.2567 11.504 18.7357 11.6186 18.1104C11.7176 17.553 11.6447 17.2351 11.5509 17.0371C11.4519 16.8287 11.2591 16.5943 10.8788 16.339C10.0347 15.7763 8.73741 15.4064 7.05974 14.9479L6.91386 14.9062C5.43418 14.505 3.62105 14.0101 2.27684 13.1191C1.54221 12.6294 0.85447 11.9677 0.427239 11.0507C-0.00520274 10.1233 -0.0989853 9.08127 0.099 7.97151C0.47413 5.94477 1.93297 4.65265 3.65231 3.99618C4.32963 3.73567 5.06947 3.56894 5.84057 3.47516V1.66724C5.84057 0.74505 6.58562 0 7.50782 0Z" fill="#166678"/>
</svg>
