<svg width="334" height="264" viewBox="0 0 334 264" fill="none" xmlns="http://www.w3.org/2000/svg">
<g filter="url(#filter0_d_15_766)">
<rect x="12" y="10" width="310" height="240" rx="10" fill="white"/>
</g>
<g clip-path="url(#clip0_15_766)">
<path d="M46.4918 88.6142L52.3117 89.7587C53.7621 90.0494 55.2492 89.5952 56.2957 88.5597L59.123 85.7618C61.2527 83.6543 64.8328 84.2356 66.173 86.8882L67.8805 90.2493C68.7617 91.9934 70.5609 93.1017 72.5438 93.1017C75.3344 93.1017 77.3355 90.4491 76.5277 87.7966L75.4262 84.1811C74.5816 81.3832 76.693 78.5672 79.6488 78.5672H80.0711C82.5312 78.5672 84.8262 77.3499 86.1848 75.3333L88.1492 72.4082C89.1773 70.8639 89.1223 68.8472 88.0023 67.3756L85.0465 63.4695C83.1555 60.9804 84.4406 57.3831 87.5066 56.6201L90.6277 55.8388C92.0047 55.4937 93.1246 54.5307 93.657 53.2226L96.668 45.7919C92.7023 44.4656 88.443 43.7207 84 43.7207C62.9051 43.7207 45.8125 60.6352 45.8125 81.5104C45.8125 83.9449 46.0512 86.325 46.4918 88.6142ZM121.343 89.4499C120.792 89.3954 120.241 89.4317 119.691 89.5952L116.79 90.3946C115.56 90.7398 114.256 90.2311 113.577 89.1774L113.21 88.6142C112.108 86.9064 110.199 85.8708 108.143 85.8708C106.086 85.8708 104.177 86.9064 103.075 88.6142L101.955 90.3401C101.698 90.7398 101.331 91.085 100.909 91.303L94.2812 94.973C90.9582 96.808 89.5996 100.859 91.1602 104.293L92.1699 106.546C93.7488 110.034 97.8063 111.724 101.441 110.38L101.919 110.198C103.755 109.526 105.829 109.798 107.408 110.943L107.684 111.143C114.513 105.783 119.452 98.1706 121.343 89.4317V89.4499ZM131 81.5104C131 107.2 109.96 128.021 84 128.021C58.0398 128.021 37 107.2 37 81.5104C37 55.8207 58.0398 35 84 35C109.96 35 131 55.8207 131 81.5104ZM63.5293 98.2433C63.1437 99.8057 64.0984 101.386 65.659 101.768L71.534 103.221C73.1129 103.603 74.7102 102.658 75.0957 101.114C75.4813 99.5695 74.5266 97.9707 72.966 97.5892L67.091 96.1358C65.5121 95.7542 63.9148 96.699 63.5293 98.2433ZM80.4199 94.6096C80.0344 96.1721 80.9891 97.7527 82.5496 98.1343C84.1102 98.5158 85.7258 97.571 86.1113 96.0268L87.5801 90.213C87.9656 88.6505 87.0109 87.0699 85.4504 86.6883C83.8898 86.3068 82.2742 87.2515 81.8887 88.7958L80.4199 94.6096ZM100.009 55.6572C98.559 54.9304 96.7965 55.53 96.0621 56.9653L93.1246 62.7791C92.3902 64.2144 92.9961 65.9585 94.4465 66.6852C95.8969 67.4119 97.6594 66.8124 98.3937 65.3771L101.331 59.5633C102.066 58.128 101.46 56.3839 100.009 55.6572Z" fill="#166678"/>
</g>
<rect x="157" y="50.8333" width="140" height="28.6979" rx="5" fill="#166678"/>
<rect x="157" y="89.4583" width="140" height="3.95833" rx="1.97917" fill="#D9D9D9" fill-opacity="0.75"/>
<rect x="157" y="99.3438" width="93" height="3.95833" rx="1.97917" fill="#D9D9D9" fill-opacity="0.75"/>
<rect x="157" y="119" width="93" height="3.95833" rx="1.97917" fill="#D9D9D9" fill-opacity="0.75"/>
<rect x="157" y="109.229" width="140" height="3.95833" rx="1.97917" fill="#D9D9D9" fill-opacity="0.75"/>
<path d="M178.33 69.7917L176.286 66.0817H175.712V69.7917H173.318V59.9637H177.336C178.111 59.9637 178.769 60.099 179.31 60.3697C179.861 60.6404 180.272 61.0137 180.542 61.4897C180.813 61.9564 180.948 62.479 180.948 63.0577C180.948 63.711 180.762 64.2944 180.388 64.8077C180.024 65.321 179.483 65.685 178.764 65.8997L181.032 69.7917H178.33ZM175.712 64.3877H177.196C177.635 64.3877 177.962 64.2804 178.176 64.0657C178.4 63.851 178.512 63.5477 178.512 63.1557C178.512 62.7824 178.4 62.4884 178.176 62.2737C177.962 62.059 177.635 61.9517 177.196 61.9517H175.712V64.3877ZM184.845 61.8817V63.8697H188.051V65.7177H184.845V67.8737H188.471V69.7917H182.451V59.9637H188.471V61.8817H184.845ZM189.619 64.8637C189.619 63.893 189.829 63.0297 190.249 62.2737C190.669 61.5084 191.253 60.9157 191.999 60.4957C192.755 60.0664 193.609 59.8517 194.561 59.8517C195.728 59.8517 196.727 60.1597 197.557 60.7757C198.388 61.3917 198.943 62.2317 199.223 63.2957H196.591C196.395 62.885 196.115 62.5724 195.751 62.3577C195.397 62.143 194.991 62.0357 194.533 62.0357C193.796 62.0357 193.199 62.2924 192.741 62.8057C192.284 63.319 192.055 64.005 192.055 64.8637C192.055 65.7224 192.284 66.4084 192.741 66.9217C193.199 67.435 193.796 67.6917 194.533 67.6917C194.991 67.6917 195.397 67.5844 195.751 67.3697C196.115 67.155 196.395 66.8424 196.591 66.4317H199.223C198.943 67.4957 198.388 68.3357 197.557 68.9517C196.727 69.5584 195.728 69.8617 194.561 69.8617C193.609 69.8617 192.755 69.6517 191.999 69.2317C191.253 68.8024 190.669 68.2097 190.249 67.4537C189.829 66.6977 189.619 65.8344 189.619 64.8637ZM205.337 69.8897C204.413 69.8897 203.564 69.675 202.789 69.2457C202.024 68.8164 201.413 68.219 200.955 67.4537C200.507 66.679 200.283 65.811 200.283 64.8497C200.283 63.8884 200.507 63.025 200.955 62.2597C201.413 61.4944 202.024 60.897 202.789 60.4677C203.564 60.0384 204.413 59.8237 205.337 59.8237C206.261 59.8237 207.106 60.0384 207.871 60.4677C208.646 60.897 209.253 61.4944 209.691 62.2597C210.139 63.025 210.363 63.8884 210.363 64.8497C210.363 65.811 210.139 66.679 209.691 67.4537C209.243 68.219 208.637 68.8164 207.871 69.2457C207.106 69.675 206.261 69.8897 205.337 69.8897ZM205.337 67.7057C206.121 67.7057 206.747 67.4444 207.213 66.9217C207.689 66.399 207.927 65.7084 207.927 64.8497C207.927 63.9817 207.689 63.291 207.213 62.7777C206.747 62.255 206.121 61.9937 205.337 61.9937C204.544 61.9937 203.909 62.2504 203.433 62.7637C202.967 63.277 202.733 63.9724 202.733 64.8497C202.733 65.7177 202.967 66.413 203.433 66.9357C203.909 67.449 204.544 67.7057 205.337 67.7057ZM222.825 59.9637V69.7917H220.431V63.8977L218.233 69.7917H216.301L214.089 63.8837V69.7917H211.695V59.9637H214.523L217.281 66.7677L220.011 59.9637H222.825ZM235.677 59.9637V69.7917H233.283V63.8977L231.085 69.7917H229.153L226.941 63.8837V69.7917H224.547V59.9637H227.375L230.133 66.7677L232.863 59.9637H235.677ZM239.792 61.8817V63.8697H242.998V65.7177H239.792V67.8737H243.418V69.7917H237.398V59.9637H243.418V61.8817H239.792ZM253.764 69.7917H251.37L247.366 63.7297V69.7917H244.972V59.9637H247.366L251.37 66.0537V59.9637H253.764V69.7917ZM259.182 59.9637C260.218 59.9637 261.123 60.169 261.898 60.5797C262.673 60.9904 263.27 61.569 263.69 62.3157C264.119 63.053 264.334 63.907 264.334 64.8777C264.334 65.839 264.119 66.693 263.69 67.4397C263.27 68.1864 262.668 68.765 261.884 69.1757C261.109 69.5864 260.209 69.7917 259.182 69.7917H255.5V59.9637H259.182ZM259.028 67.7197C259.933 67.7197 260.638 67.4724 261.142 66.9777C261.646 66.483 261.898 65.783 261.898 64.8777C261.898 63.9724 261.646 63.2677 261.142 62.7637C260.638 62.2597 259.933 62.0077 259.028 62.0077H257.894V67.7197H259.028ZM268.066 61.8817V63.8697H271.272V65.7177H268.066V67.8737H271.692V69.7917H265.672V59.9637H271.692V61.8817H268.066ZM276.928 59.9637C277.964 59.9637 278.869 60.169 279.644 60.5797C280.419 60.9904 281.016 61.569 281.436 62.3157C281.865 63.053 282.08 63.907 282.08 64.8777C282.08 65.839 281.865 66.693 281.436 67.4397C281.016 68.1864 280.414 68.765 279.63 69.1757C278.855 69.5864 277.955 69.7917 276.928 69.7917H273.246V59.9637H276.928ZM276.774 67.7197C277.679 67.7197 278.384 67.4724 278.888 66.9777C279.392 66.483 279.644 65.783 279.644 64.8777C279.644 63.9724 279.392 63.2677 278.888 62.7637C278.384 62.2597 277.679 62.0077 276.774 62.0077H275.64V67.7197H276.774Z" fill="white"/>
<path d="M61.4043 167.788C61.1163 167.234 60.7163 166.818 60.2043 166.54C59.6923 166.252 59.1003 166.108 58.4283 166.108C57.6923 166.108 57.0363 166.274 56.4603 166.604C55.8843 166.935 55.4309 167.404 55.1003 168.012C54.7803 168.62 54.6203 169.324 54.6203 170.124C54.6203 170.924 54.7803 171.634 55.1003 172.252C55.4309 172.86 55.8843 173.33 56.4603 173.66C57.0363 173.991 57.6923 174.156 58.4283 174.156C59.4203 174.156 60.2256 173.879 60.8443 173.324C61.4629 172.77 61.8416 172.018 61.9803 171.068H57.8043V169.612H63.9323V171.036C63.8149 171.9 63.5056 172.695 63.0043 173.42C62.5136 174.146 61.8683 174.727 61.0683 175.164C60.2789 175.591 59.3989 175.804 58.4283 175.804C57.3829 175.804 56.4283 175.564 55.5643 175.084C54.7003 174.594 54.0123 173.916 53.5003 173.052C52.9989 172.188 52.7483 171.212 52.7483 170.124C52.7483 169.036 52.9989 168.06 53.5003 167.196C54.0123 166.332 54.7003 165.66 55.5643 165.18C56.4389 164.69 57.3936 164.444 58.4283 164.444C59.6123 164.444 60.6629 164.738 61.5803 165.324C62.5083 165.9 63.1803 166.722 63.5963 167.788H61.4043ZM66.6593 165.724C66.3286 165.724 66.0513 165.612 65.8273 165.388C65.6033 165.164 65.4913 164.887 65.4913 164.556C65.4913 164.226 65.6033 163.948 65.8273 163.724C66.0513 163.5 66.3286 163.388 66.6593 163.388C66.9793 163.388 67.2513 163.5 67.4753 163.724C67.6993 163.948 67.8113 164.226 67.8113 164.556C67.8113 164.887 67.6993 165.164 67.4753 165.388C67.2513 165.612 66.9793 165.724 66.6593 165.724ZM67.5553 166.892V175.708H65.7313V166.892H67.5553ZM73.358 174.076L75.854 166.892H77.79L74.43 175.708H72.254L68.91 166.892H70.862L73.358 174.076ZM87.2488 171.084C87.2488 171.415 87.2274 171.714 87.1848 171.98H80.4488C80.5021 172.684 80.7634 173.25 81.2328 173.676C81.7021 174.103 82.2781 174.316 82.9608 174.316C83.9421 174.316 84.6354 173.906 85.0408 173.084H87.0087C86.7421 173.895 86.2568 174.562 85.5528 175.084C84.8594 175.596 83.9954 175.852 82.9608 175.852C82.1181 175.852 81.3608 175.666 80.6888 175.292C80.0274 174.908 79.5048 174.375 79.1208 173.692C78.7474 172.999 78.5608 172.199 78.5608 171.292C78.5608 170.386 78.7421 169.591 79.1048 168.908C79.4781 168.215 79.9954 167.682 80.6568 167.308C81.3288 166.935 82.0968 166.748 82.9608 166.748C83.7928 166.748 84.5341 166.93 85.1848 167.292C85.8354 167.655 86.3421 168.167 86.7048 168.828C87.0674 169.479 87.2488 170.231 87.2488 171.084ZM85.3448 170.508C85.3341 169.836 85.0941 169.298 84.6248 168.892C84.1554 168.487 83.5741 168.284 82.8808 168.284C82.2514 168.284 81.7128 168.487 81.2648 168.892C80.8168 169.287 80.5501 169.826 80.4648 170.508H85.3448ZM101.136 166.892L95.728 179.852H93.84L95.632 175.564L92.16 166.892H94.192L96.672 173.612L99.248 166.892H101.136ZM106.337 175.852C105.505 175.852 104.753 175.666 104.081 175.292C103.409 174.908 102.881 174.375 102.497 173.692C102.113 172.999 101.921 172.199 101.921 171.292C101.921 170.396 102.118 169.602 102.513 168.908C102.907 168.215 103.446 167.682 104.129 167.308C104.811 166.935 105.574 166.748 106.417 166.748C107.259 166.748 108.022 166.935 108.705 167.308C109.387 167.682 109.926 168.215 110.321 168.908C110.715 169.602 110.913 170.396 110.913 171.292C110.913 172.188 110.71 172.983 110.305 173.676C109.899 174.37 109.345 174.908 108.641 175.292C107.947 175.666 107.179 175.852 106.337 175.852ZM106.337 174.268C106.806 174.268 107.243 174.156 107.649 173.932C108.065 173.708 108.401 173.372 108.657 172.924C108.913 172.476 109.041 171.932 109.041 171.292C109.041 170.652 108.918 170.114 108.673 169.676C108.427 169.228 108.102 168.892 107.697 168.668C107.291 168.444 106.854 168.332 106.385 168.332C105.915 168.332 105.478 168.444 105.073 168.668C104.678 168.892 104.363 169.228 104.129 169.676C103.894 170.114 103.777 170.652 103.777 171.292C103.777 172.242 104.017 172.978 104.497 173.5C104.987 174.012 105.601 174.268 106.337 174.268ZM120.7 166.892V175.708H118.876V174.668C118.588 175.031 118.209 175.319 117.74 175.532C117.281 175.735 116.79 175.836 116.268 175.836C115.574 175.836 114.95 175.692 114.396 175.404C113.852 175.116 113.42 174.69 113.1 174.124C112.79 173.559 112.636 172.876 112.636 172.076V166.892H114.444V171.804C114.444 172.594 114.641 173.202 115.036 173.628C115.43 174.044 115.969 174.252 116.652 174.252C117.334 174.252 117.873 174.044 118.268 173.628C118.673 173.202 118.876 172.594 118.876 171.804V166.892H120.7ZM126.655 171.26C126.655 170.375 126.836 169.591 127.199 168.908C127.572 168.226 128.073 167.698 128.703 167.324C129.343 166.94 130.047 166.748 130.815 166.748C131.508 166.748 132.111 166.887 132.623 167.164C133.145 167.431 133.561 167.767 133.871 168.172V166.892H135.711V175.708H133.871V174.396C133.561 174.812 133.14 175.159 132.607 175.436C132.073 175.714 131.465 175.852 130.783 175.852C130.025 175.852 129.332 175.66 128.703 175.276C128.073 174.882 127.572 174.338 127.199 173.644C126.836 172.94 126.655 172.146 126.655 171.26ZM133.871 171.292C133.871 170.684 133.743 170.156 133.487 169.708C133.241 169.26 132.916 168.919 132.511 168.684C132.105 168.45 131.668 168.332 131.199 168.332C130.729 168.332 130.292 168.45 129.887 168.684C129.481 168.908 129.151 169.244 128.895 169.692C128.649 170.13 128.527 170.652 128.527 171.26C128.527 171.868 128.649 172.402 128.895 172.86C129.151 173.319 129.481 173.671 129.887 173.916C130.303 174.151 130.74 174.268 131.199 174.268C131.668 174.268 132.105 174.151 132.511 173.916C132.916 173.682 133.241 173.34 133.487 172.892C133.743 172.434 133.871 171.9 133.871 171.292ZM144.087 168.172C144.353 167.724 144.705 167.378 145.143 167.132C145.591 166.876 146.119 166.748 146.727 166.748V168.636H146.263C145.548 168.636 145.004 168.818 144.631 169.18C144.268 169.543 144.087 170.172 144.087 171.068V175.708H142.263V166.892H144.087V168.172ZM156.483 171.084C156.483 171.415 156.462 171.714 156.419 171.98H149.683C149.736 172.684 149.998 173.25 150.467 173.676C150.936 174.103 151.512 174.316 152.195 174.316C153.176 174.316 153.87 173.906 154.275 173.084H156.243C155.976 173.895 155.491 174.562 154.787 175.084C154.094 175.596 153.23 175.852 152.195 175.852C151.352 175.852 150.595 175.666 149.923 175.292C149.262 174.908 148.739 174.375 148.355 173.692C147.982 172.999 147.795 172.199 147.795 171.292C147.795 170.386 147.976 169.591 148.339 168.908C148.712 168.215 149.23 167.682 149.891 167.308C150.563 166.935 151.331 166.748 152.195 166.748C153.027 166.748 153.768 166.93 154.419 167.292C155.07 167.655 155.576 168.167 155.939 168.828C156.302 169.479 156.483 170.231 156.483 171.084ZM154.579 170.508C154.568 169.836 154.328 169.298 153.859 168.892C153.39 168.487 152.808 168.284 152.115 168.284C151.486 168.284 150.947 168.487 150.499 168.892C150.051 169.287 149.784 169.826 149.699 170.508H154.579ZM157.67 171.292C157.67 170.386 157.851 169.591 158.214 168.908C158.587 168.215 159.099 167.682 159.75 167.308C160.401 166.935 161.147 166.748 161.99 166.748C163.057 166.748 163.937 167.004 164.63 167.516C165.334 168.018 165.809 168.738 166.054 169.676H164.086C163.926 169.239 163.67 168.898 163.318 168.652C162.966 168.407 162.523 168.284 161.99 168.284C161.243 168.284 160.646 168.551 160.198 169.084C159.761 169.607 159.542 170.343 159.542 171.292C159.542 172.242 159.761 172.983 160.198 173.516C160.646 174.05 161.243 174.316 161.99 174.316C163.046 174.316 163.745 173.852 164.086 172.924H166.054C165.798 173.82 165.318 174.535 164.614 175.068C163.91 175.591 163.035 175.852 161.99 175.852C161.147 175.852 160.401 175.666 159.75 175.292C159.099 174.908 158.587 174.375 158.214 173.692C157.851 172.999 157.67 172.199 157.67 171.292ZM171.696 175.852C170.864 175.852 170.112 175.666 169.44 175.292C168.768 174.908 168.24 174.375 167.856 173.692C167.472 172.999 167.28 172.199 167.28 171.292C167.28 170.396 167.477 169.602 167.872 168.908C168.267 168.215 168.805 167.682 169.488 167.308C170.171 166.935 170.933 166.748 171.776 166.748C172.619 166.748 173.381 166.935 174.064 167.308C174.747 167.682 175.285 168.215 175.68 168.908C176.075 169.602 176.272 170.396 176.272 171.292C176.272 172.188 176.069 172.983 175.664 173.676C175.259 174.37 174.704 174.908 174 175.292C173.307 175.666 172.539 175.852 171.696 175.852ZM171.696 174.268C172.165 174.268 172.603 174.156 173.008 173.932C173.424 173.708 173.76 173.372 174.016 172.924C174.272 172.476 174.4 171.932 174.4 171.292C174.4 170.652 174.277 170.114 174.032 169.676C173.787 169.228 173.461 168.892 173.056 168.668C172.651 168.444 172.213 168.332 171.744 168.332C171.275 168.332 170.837 168.444 170.432 168.668C170.037 168.892 169.723 169.228 169.488 169.676C169.253 170.114 169.136 170.652 169.136 171.292C169.136 172.242 169.376 172.978 169.856 173.5C170.347 174.012 170.96 174.268 171.696 174.268ZM188.747 166.748C189.44 166.748 190.059 166.892 190.603 167.18C191.158 167.468 191.59 167.895 191.899 168.46C192.219 169.026 192.379 169.708 192.379 170.508V175.708H190.571V170.78C190.571 169.991 190.374 169.388 189.979 168.972C189.584 168.546 189.046 168.332 188.363 168.332C187.68 168.332 187.136 168.546 186.731 168.972C186.336 169.388 186.139 169.991 186.139 170.78V175.708H184.331V170.78C184.331 169.991 184.134 169.388 183.739 168.972C183.344 168.546 182.806 168.332 182.123 168.332C181.44 168.332 180.896 168.546 180.491 168.972C180.096 169.388 179.899 169.991 179.899 170.78V175.708H178.075V166.892H179.899V167.9C180.198 167.538 180.576 167.255 181.035 167.052C181.494 166.85 181.984 166.748 182.507 166.748C183.211 166.748 183.84 166.898 184.395 167.196C184.95 167.495 185.376 167.927 185.675 168.492C185.942 167.959 186.358 167.538 186.923 167.228C187.488 166.908 188.096 166.748 188.747 166.748ZM205.372 166.748C206.065 166.748 206.684 166.892 207.228 167.18C207.783 167.468 208.215 167.895 208.524 168.46C208.844 169.026 209.004 169.708 209.004 170.508V175.708H207.196V170.78C207.196 169.991 206.999 169.388 206.604 168.972C206.209 168.546 205.671 168.332 204.988 168.332C204.305 168.332 203.761 168.546 203.356 168.972C202.961 169.388 202.764 169.991 202.764 170.78V175.708H200.956V170.78C200.956 169.991 200.759 169.388 200.364 168.972C199.969 168.546 199.431 168.332 198.748 168.332C198.065 168.332 197.521 168.546 197.116 168.972C196.721 169.388 196.524 169.991 196.524 170.78V175.708H194.7V166.892H196.524V167.9C196.823 167.538 197.201 167.255 197.66 167.052C198.119 166.85 198.609 166.748 199.132 166.748C199.836 166.748 200.465 166.898 201.02 167.196C201.575 167.495 202.001 167.927 202.3 168.492C202.567 167.959 202.983 167.538 203.548 167.228C204.113 166.908 204.721 166.748 205.372 166.748ZM219.405 171.084C219.405 171.415 219.384 171.714 219.341 171.98H212.605C212.658 172.684 212.92 173.25 213.389 173.676C213.858 174.103 214.434 174.316 215.117 174.316C216.098 174.316 216.792 173.906 217.197 173.084H219.165C218.898 173.895 218.413 174.562 217.709 175.084C217.016 175.596 216.152 175.852 215.117 175.852C214.274 175.852 213.517 175.666 212.845 175.292C212.184 174.908 211.661 174.375 211.277 173.692C210.904 172.999 210.717 172.199 210.717 171.292C210.717 170.386 210.898 169.591 211.261 168.908C211.634 168.215 212.152 167.682 212.813 167.308C213.485 166.935 214.253 166.748 215.117 166.748C215.949 166.748 216.69 166.93 217.341 167.292C217.992 167.655 218.498 168.167 218.861 168.828C219.224 169.479 219.405 170.231 219.405 171.084ZM217.501 170.508C217.49 169.836 217.25 169.298 216.781 168.892C216.312 168.487 215.73 168.284 215.037 168.284C214.408 168.284 213.869 168.487 213.421 168.892C212.973 169.287 212.706 169.826 212.621 170.508H217.501ZM225.648 166.748C226.341 166.748 226.96 166.892 227.504 167.18C228.059 167.468 228.491 167.895 228.8 168.46C229.109 169.026 229.264 169.708 229.264 170.508V175.708H227.456V170.78C227.456 169.991 227.259 169.388 226.864 168.972C226.469 168.546 225.931 168.332 225.248 168.332C224.565 168.332 224.021 168.546 223.616 168.972C223.221 169.388 223.024 169.991 223.024 170.78V175.708H221.2V166.892H223.024V167.9C223.323 167.538 223.701 167.255 224.16 167.052C224.629 166.85 225.125 166.748 225.648 166.748ZM230.983 171.26C230.983 170.375 231.164 169.591 231.527 168.908C231.9 168.226 232.401 167.698 233.031 167.324C233.671 166.94 234.38 166.748 235.159 166.748C235.735 166.748 236.3 166.876 236.855 167.132C237.42 167.378 237.868 167.708 238.199 168.124V163.868H240.039V175.708H238.199V174.38C237.9 174.807 237.484 175.159 236.951 175.436C236.428 175.714 235.825 175.852 235.143 175.852C234.375 175.852 233.671 175.66 233.031 175.276C232.401 174.882 231.9 174.338 231.527 173.644C231.164 172.94 230.983 172.146 230.983 171.26ZM238.199 171.292C238.199 170.684 238.071 170.156 237.815 169.708C237.569 169.26 237.244 168.919 236.839 168.684C236.433 168.45 235.996 168.332 235.527 168.332C235.057 168.332 234.62 168.45 234.215 168.684C233.809 168.908 233.479 169.244 233.223 169.692C232.977 170.13 232.855 170.652 232.855 171.26C232.855 171.868 232.977 172.402 233.223 172.86C233.479 173.319 233.809 173.671 234.215 173.916C234.631 174.151 235.068 174.268 235.527 174.268C235.996 174.268 236.433 174.151 236.839 173.916C237.244 173.682 237.569 173.34 237.815 172.892C238.071 172.434 238.199 171.9 238.199 171.292ZM241.826 171.26C241.826 170.375 242.008 169.591 242.37 168.908C242.744 168.226 243.245 167.698 243.874 167.324C244.514 166.94 245.218 166.748 245.986 166.748C246.68 166.748 247.282 166.887 247.794 167.164C248.317 167.431 248.733 167.767 249.042 168.172V166.892H250.882V175.708H249.042V174.396C248.733 174.812 248.312 175.159 247.778 175.436C247.245 175.714 246.637 175.852 245.954 175.852C245.197 175.852 244.504 175.66 243.874 175.276C243.245 174.882 242.744 174.338 242.37 173.644C242.008 172.94 241.826 172.146 241.826 171.26ZM249.042 171.292C249.042 170.684 248.914 170.156 248.658 169.708C248.413 169.26 248.088 168.919 247.682 168.684C247.277 168.45 246.84 168.332 246.37 168.332C245.901 168.332 245.464 168.45 245.058 168.684C244.653 168.908 244.322 169.244 244.066 169.692C243.821 170.13 243.698 170.652 243.698 171.26C243.698 171.868 243.821 172.402 244.066 172.86C244.322 173.319 244.653 173.671 245.058 173.916C245.474 174.151 245.912 174.268 246.37 174.268C246.84 174.268 247.277 174.151 247.682 173.916C248.088 173.682 248.413 173.34 248.658 172.892C248.914 172.434 249.042 171.9 249.042 171.292ZM255.406 168.38V173.26C255.406 173.591 255.481 173.831 255.63 173.98C255.79 174.119 256.057 174.188 256.43 174.188H257.55V175.708H256.11C255.289 175.708 254.659 175.516 254.222 175.132C253.785 174.748 253.566 174.124 253.566 173.26V168.38H252.526V166.892H253.566V164.7H255.406V166.892H257.55V168.38H255.406ZM260.159 165.724C259.829 165.724 259.551 165.612 259.327 165.388C259.103 165.164 258.991 164.887 258.991 164.556C258.991 164.226 259.103 163.948 259.327 163.724C259.551 163.5 259.829 163.388 260.159 163.388C260.479 163.388 260.751 163.5 260.975 163.724C261.199 163.948 261.311 164.226 261.311 164.556C261.311 164.887 261.199 165.164 260.975 165.388C260.751 165.612 260.479 165.724 260.159 165.724ZM261.055 166.892V175.708H259.231V166.892H261.055ZM267.274 175.852C266.442 175.852 265.69 175.666 265.018 175.292C264.346 174.908 263.818 174.375 263.434 173.692C263.05 172.999 262.858 172.199 262.858 171.292C262.858 170.396 263.055 169.602 263.45 168.908C263.845 168.215 264.383 167.682 265.066 167.308C265.749 166.935 266.511 166.748 267.354 166.748C268.197 166.748 268.959 166.935 269.642 167.308C270.325 167.682 270.863 168.215 271.258 168.908C271.653 169.602 271.85 170.396 271.85 171.292C271.85 172.188 271.647 172.983 271.242 173.676C270.837 174.37 270.282 174.908 269.578 175.292C268.885 175.666 268.117 175.852 267.274 175.852ZM267.274 174.268C267.743 174.268 268.181 174.156 268.586 173.932C269.002 173.708 269.338 173.372 269.594 172.924C269.85 172.476 269.978 171.932 269.978 171.292C269.978 170.652 269.855 170.114 269.61 169.676C269.365 169.228 269.039 168.892 268.634 168.668C268.229 168.444 267.791 168.332 267.322 168.332C266.853 168.332 266.415 168.444 266.01 168.668C265.615 168.892 265.301 169.228 265.066 169.676C264.831 170.114 264.714 170.652 264.714 171.292C264.714 172.242 264.954 172.978 265.434 173.5C265.925 174.012 266.538 174.268 267.274 174.268ZM278.101 166.748C278.794 166.748 279.413 166.892 279.957 167.18C280.512 167.468 280.944 167.895 281.253 168.46C281.562 169.026 281.717 169.708 281.717 170.508V175.708H279.909V170.78C279.909 169.991 279.712 169.388 279.317 168.972C278.922 168.546 278.384 168.332 277.701 168.332C277.018 168.332 276.474 168.546 276.069 168.972C275.674 169.388 275.477 169.991 275.477 170.78V175.708H273.653V166.892H275.477V167.9C275.776 167.538 276.154 167.255 276.613 167.052C277.082 166.85 277.578 166.748 278.101 166.748Z" fill="black"/>
<path d="M55.9617 203.354L54.0587 200.142H52.6397V203.354H51.8697V195.665H54.1797C55.0377 195.665 55.6867 195.871 56.1267 196.281C56.5741 196.692 56.7977 197.231 56.7977 197.898C56.7977 198.456 56.6364 198.932 56.3137 199.328C55.9984 199.717 55.5291 199.97 54.9057 200.087L56.8857 203.354H55.9617ZM52.6397 199.515H54.1907C54.7921 199.515 55.2431 199.369 55.5437 199.075C55.8517 198.782 56.0057 198.39 56.0057 197.898C56.0057 197.392 55.8591 197.004 55.5657 196.732C55.2724 196.454 54.8104 196.314 54.1797 196.314H52.6397V199.515ZM63.7598 200.043C63.7598 200.307 63.7525 200.509 63.7378 200.648H58.7548C58.7768 201.103 58.8868 201.492 59.0848 201.814C59.2828 202.137 59.5431 202.383 59.8658 202.551C60.1885 202.713 60.5405 202.793 60.9218 202.793C61.4205 202.793 61.8385 202.672 62.1758 202.43C62.5205 202.188 62.7478 201.862 62.8578 201.451H63.6718C63.5251 202.038 63.2098 202.518 62.7258 202.892C62.2491 203.259 61.6478 203.442 60.9218 203.442C60.3571 203.442 59.8511 203.318 59.4038 203.068C58.9565 202.812 58.6045 202.452 58.3478 201.99C58.0985 201.521 57.9738 200.975 57.9738 200.351C57.9738 199.728 58.0985 199.182 58.3478 198.712C58.5971 198.243 58.9455 197.884 59.3928 197.634C59.8401 197.385 60.3498 197.26 60.9218 197.26C61.4938 197.26 61.9925 197.385 62.4178 197.634C62.8505 197.884 63.1805 198.221 63.4078 198.646C63.6425 199.064 63.7598 199.53 63.7598 200.043ZM62.9788 200.021C62.9861 199.574 62.8945 199.193 62.7038 198.877C62.5205 198.562 62.2675 198.324 61.9448 198.162C61.6221 198.001 61.2701 197.92 60.8888 197.92C60.3168 197.92 59.8291 198.104 59.4258 198.47C59.0225 198.837 58.7988 199.354 58.7548 200.021H62.9788ZM64.8166 200.351C64.8166 199.728 64.9412 199.185 65.1906 198.723C65.4399 198.254 65.7846 197.895 66.2246 197.645C66.6646 197.389 67.1669 197.26 67.7316 197.26C68.4722 197.26 69.0809 197.444 69.5576 197.81C70.0416 198.177 70.3532 198.676 70.4926 199.306H69.6676C69.5649 198.874 69.3412 198.536 68.9966 198.294C68.6592 198.045 68.2376 197.92 67.7316 197.92C67.3282 197.92 66.9652 198.012 66.6426 198.195C66.3199 198.379 66.0632 198.654 65.8726 199.02C65.6892 199.38 65.5976 199.823 65.5976 200.351C65.5976 200.879 65.6892 201.327 65.8726 201.693C66.0632 202.06 66.3199 202.335 66.6426 202.518C66.9652 202.702 67.3282 202.793 67.7316 202.793C68.2376 202.793 68.6592 202.672 68.9966 202.43C69.3412 202.181 69.5649 201.836 69.6676 201.396H70.4926C70.3532 202.012 70.0416 202.507 69.5576 202.881C69.0736 203.255 68.4649 203.442 67.7316 203.442C67.1669 203.442 66.6646 203.318 66.2246 203.068C65.7846 202.812 65.4399 202.452 65.1906 201.99C64.9412 201.521 64.8166 200.975 64.8166 200.351ZM74.5437 203.442C73.979 203.442 73.4693 203.318 73.0147 203.068C72.5673 202.812 72.2117 202.452 71.9477 201.99C71.691 201.521 71.5627 200.975 71.5627 200.351C71.5627 199.728 71.6947 199.185 71.9587 198.723C72.2227 198.254 72.582 197.895 73.0367 197.645C73.4913 197.389 74.001 197.26 74.5657 197.26C75.1303 197.26 75.64 197.389 76.0947 197.645C76.5567 197.895 76.916 198.254 77.1727 198.723C77.4367 199.185 77.5687 199.728 77.5687 200.351C77.5687 200.967 77.4367 201.51 77.1727 201.979C76.9087 202.449 76.5457 202.812 76.0837 203.068C75.6217 203.318 75.1083 203.442 74.5437 203.442ZM74.5437 202.771C74.9397 202.771 75.3063 202.683 75.6437 202.507C75.981 202.324 76.2523 202.053 76.4577 201.693C76.6703 201.327 76.7767 200.879 76.7767 200.351C76.7767 199.823 76.674 199.38 76.4687 199.02C76.2633 198.654 75.992 198.382 75.6547 198.206C75.3173 198.023 74.9507 197.931 74.5547 197.931C74.1587 197.931 73.792 198.023 73.4547 198.206C73.1173 198.382 72.846 198.654 72.6407 199.02C72.4427 199.38 72.3437 199.823 72.3437 200.351C72.3437 200.879 72.4427 201.327 72.6407 201.693C72.846 202.053 73.1137 202.324 73.4437 202.507C73.781 202.683 74.1477 202.771 74.5437 202.771ZM86.1223 197.238C86.8263 197.238 87.3983 197.462 87.8383 197.909C88.2856 198.349 88.5093 198.991 88.5093 199.834V203.354H87.7503V199.922C87.7503 199.27 87.5926 198.771 87.2773 198.426C86.962 198.082 86.533 197.909 85.9903 197.909C85.4256 197.909 84.9746 198.096 84.6373 198.47C84.3 198.844 84.1313 199.387 84.1313 200.098V203.354H83.3723V199.922C83.3723 199.27 83.2146 198.771 82.8993 198.426C82.584 198.082 82.1513 197.909 81.6013 197.909C81.0366 197.909 80.5856 198.096 80.2483 198.47C79.911 198.844 79.7423 199.387 79.7423 200.098V203.354H78.9723V197.348H79.7423V198.382C79.933 198.008 80.2043 197.726 80.5563 197.535C80.9083 197.337 81.3006 197.238 81.7333 197.238C82.254 197.238 82.7086 197.363 83.0973 197.612C83.4933 197.862 83.7793 198.228 83.9553 198.712C84.1166 198.236 84.3916 197.873 84.7803 197.623C85.1763 197.367 85.6236 197.238 86.1223 197.238ZM97.3694 197.238C98.0734 197.238 98.6454 197.462 99.0854 197.909C99.5327 198.349 99.7564 198.991 99.7564 199.834V203.354H98.9974V199.922C98.9974 199.27 98.8397 198.771 98.5244 198.426C98.209 198.082 97.78 197.909 97.2374 197.909C96.6727 197.909 96.2217 198.096 95.8844 198.47C95.547 198.844 95.3784 199.387 95.3784 200.098V203.354H94.6194V199.922C94.6194 199.27 94.4617 198.771 94.1464 198.426C93.831 198.082 93.3984 197.909 92.8484 197.909C92.2837 197.909 91.8327 198.096 91.4954 198.47C91.158 198.844 90.9894 199.387 90.9894 200.098V203.354H90.2194V197.348H90.9894V198.382C91.18 198.008 91.4514 197.726 91.8034 197.535C92.1554 197.337 92.5477 197.238 92.9804 197.238C93.501 197.238 93.9557 197.363 94.3444 197.612C94.7404 197.862 95.0264 198.228 95.2024 198.712C95.3637 198.236 95.6387 197.873 96.0274 197.623C96.4234 197.367 96.8707 197.238 97.3694 197.238ZM106.9 200.043C106.9 200.307 106.893 200.509 106.878 200.648H101.895C101.917 201.103 102.027 201.492 102.225 201.814C102.423 202.137 102.684 202.383 103.006 202.551C103.329 202.713 103.681 202.793 104.062 202.793C104.561 202.793 104.979 202.672 105.316 202.43C105.661 202.188 105.888 201.862 105.998 201.451H106.812C106.666 202.038 106.35 202.518 105.866 202.892C105.39 203.259 104.788 203.442 104.062 203.442C103.498 203.442 102.992 203.318 102.544 203.068C102.097 202.812 101.745 202.452 101.488 201.99C101.239 201.521 101.114 200.975 101.114 200.351C101.114 199.728 101.239 199.182 101.488 198.712C101.738 198.243 102.086 197.884 102.533 197.634C102.981 197.385 103.49 197.26 104.062 197.26C104.634 197.26 105.133 197.385 105.558 197.634C105.991 197.884 106.321 198.221 106.548 198.646C106.783 199.064 106.9 199.53 106.9 200.043ZM106.119 200.021C106.127 199.574 106.035 199.193 105.844 198.877C105.661 198.562 105.408 198.324 105.085 198.162C104.763 198.001 104.411 197.92 104.029 197.92C103.457 197.92 102.97 198.104 102.566 198.47C102.163 198.837 101.939 199.354 101.895 200.021H106.119ZM111.125 197.238C111.844 197.238 112.431 197.462 112.885 197.909C113.34 198.349 113.567 198.991 113.567 199.834V203.354H112.808V199.922C112.808 199.27 112.643 198.771 112.313 198.426C111.991 198.082 111.547 197.909 110.982 197.909C110.403 197.909 109.941 198.093 109.596 198.459C109.252 198.826 109.079 199.365 109.079 200.076V203.354H108.309V197.348H109.079V198.371C109.27 198.005 109.545 197.726 109.904 197.535C110.264 197.337 110.671 197.238 111.125 197.238ZM114.918 200.34C114.918 199.724 115.043 199.185 115.292 198.723C115.541 198.254 115.882 197.895 116.315 197.645C116.755 197.389 117.25 197.26 117.8 197.26C118.328 197.26 118.805 197.389 119.23 197.645C119.655 197.902 119.967 198.236 120.165 198.646V195.214H120.935V203.354H120.165V202.012C119.982 202.43 119.681 202.775 119.263 203.046C118.845 203.31 118.354 203.442 117.789 203.442C117.239 203.442 116.744 203.314 116.304 203.057C115.871 202.801 115.53 202.438 115.281 201.968C115.039 201.499 114.918 200.956 114.918 200.34ZM120.165 200.351C120.165 199.867 120.066 199.442 119.868 199.075C119.67 198.709 119.399 198.426 119.054 198.228C118.717 198.03 118.343 197.931 117.932 197.931C117.507 197.931 117.125 198.027 116.788 198.217C116.451 198.408 116.183 198.687 115.985 199.053C115.794 199.413 115.699 199.842 115.699 200.34C115.699 200.832 115.794 201.264 115.985 201.638C116.183 202.005 116.451 202.287 116.788 202.485C117.125 202.676 117.507 202.771 117.932 202.771C118.343 202.771 118.717 202.672 119.054 202.474C119.399 202.276 119.67 201.994 119.868 201.627C120.066 201.261 120.165 200.835 120.165 200.351ZM122.341 200.34C122.341 199.724 122.462 199.185 122.704 198.723C122.953 198.254 123.294 197.895 123.727 197.645C124.167 197.389 124.662 197.26 125.212 197.26C125.784 197.26 126.275 197.392 126.686 197.656C127.104 197.92 127.405 198.258 127.588 198.668V197.348H128.358V203.354H127.588V202.023C127.397 202.434 127.093 202.775 126.675 203.046C126.264 203.31 125.773 203.442 125.201 203.442C124.658 203.442 124.167 203.314 123.727 203.057C123.294 202.801 122.953 202.438 122.704 201.968C122.462 201.499 122.341 200.956 122.341 200.34ZM127.588 200.351C127.588 199.867 127.489 199.442 127.291 199.075C127.093 198.709 126.822 198.426 126.477 198.228C126.14 198.03 125.766 197.931 125.355 197.931C124.93 197.931 124.548 198.027 124.211 198.217C123.874 198.408 123.606 198.687 123.408 199.053C123.217 199.413 123.122 199.842 123.122 200.34C123.122 200.832 123.217 201.264 123.408 201.638C123.606 202.005 123.874 202.287 124.211 202.485C124.548 202.676 124.93 202.771 125.355 202.771C125.766 202.771 126.14 202.672 126.477 202.474C126.822 202.276 127.093 201.994 127.291 201.627C127.489 201.261 127.588 200.835 127.588 200.351ZM131.117 197.997V201.726C131.117 202.093 131.187 202.346 131.326 202.485C131.465 202.625 131.711 202.694 132.063 202.694H132.767V203.354H131.942C131.399 203.354 130.996 203.23 130.732 202.98C130.468 202.724 130.336 202.306 130.336 201.726V197.997H129.5V197.348H130.336V195.841H131.117V197.348H132.767V197.997H131.117ZM134.422 196.215C134.268 196.215 134.136 196.16 134.026 196.05C133.916 195.94 133.861 195.805 133.861 195.643C133.861 195.482 133.916 195.35 134.026 195.247C134.136 195.137 134.268 195.082 134.422 195.082C134.576 195.082 134.708 195.137 134.818 195.247C134.928 195.35 134.983 195.482 134.983 195.643C134.983 195.805 134.928 195.94 134.818 196.05C134.708 196.16 134.576 196.215 134.422 196.215ZM134.807 197.348V203.354H134.037V197.348H134.807ZM139.179 203.442C138.615 203.442 138.105 203.318 137.65 203.068C137.203 202.812 136.847 202.452 136.583 201.99C136.327 201.521 136.198 200.975 136.198 200.351C136.198 199.728 136.33 199.185 136.594 198.723C136.858 198.254 137.218 197.895 137.672 197.645C138.127 197.389 138.637 197.26 139.201 197.26C139.766 197.26 140.276 197.389 140.73 197.645C141.192 197.895 141.552 198.254 141.808 198.723C142.072 199.185 142.204 199.728 142.204 200.351C142.204 200.967 142.072 201.51 141.808 201.979C141.544 202.449 141.181 202.812 140.719 203.068C140.257 203.318 139.744 203.442 139.179 203.442ZM139.179 202.771C139.575 202.771 139.942 202.683 140.279 202.507C140.617 202.324 140.888 202.053 141.093 201.693C141.306 201.327 141.412 200.879 141.412 200.351C141.412 199.823 141.31 199.38 141.104 199.02C140.899 198.654 140.628 198.382 140.29 198.206C139.953 198.023 139.586 197.931 139.19 197.931C138.794 197.931 138.428 198.023 138.09 198.206C137.753 198.382 137.482 198.654 137.276 199.02C137.078 199.38 136.979 199.823 136.979 200.351C136.979 200.879 137.078 201.327 137.276 201.693C137.482 202.053 137.749 202.324 138.079 202.507C138.417 202.683 138.783 202.771 139.179 202.771ZM146.424 197.238C147.143 197.238 147.729 197.462 148.184 197.909C148.639 198.349 148.866 198.991 148.866 199.834V203.354H148.107V199.922C148.107 199.27 147.942 198.771 147.612 198.426C147.289 198.082 146.846 197.909 146.281 197.909C145.702 197.909 145.24 198.093 144.895 198.459C144.55 198.826 144.378 199.365 144.378 200.076V203.354H143.608V197.348H144.378V198.371C144.569 198.005 144.844 197.726 145.203 197.535C145.562 197.337 145.969 197.238 146.424 197.238ZM155.953 197.997H154.556V203.354H153.786V197.997H152.95V197.348H153.786V196.93C153.786 196.278 153.951 195.797 154.281 195.489C154.618 195.181 155.161 195.027 155.909 195.027V195.687C155.41 195.687 155.058 195.783 154.853 195.973C154.655 196.164 154.556 196.483 154.556 196.93V197.348H155.953V197.997ZM159.794 203.442C159.229 203.442 158.719 203.318 158.265 203.068C157.817 202.812 157.462 202.452 157.198 201.99C156.941 201.521 156.813 200.975 156.813 200.351C156.813 199.728 156.945 199.185 157.209 198.723C157.473 198.254 157.832 197.895 158.287 197.645C158.741 197.389 159.251 197.26 159.816 197.26C160.38 197.26 160.89 197.389 161.345 197.645C161.807 197.895 162.166 198.254 162.423 198.723C162.687 199.185 162.819 199.728 162.819 200.351C162.819 200.967 162.687 201.51 162.423 201.979C162.159 202.449 161.796 202.812 161.334 203.068C160.872 203.318 160.358 203.442 159.794 203.442ZM159.794 202.771C160.19 202.771 160.556 202.683 160.894 202.507C161.231 202.324 161.502 202.053 161.708 201.693C161.92 201.327 162.027 200.879 162.027 200.351C162.027 199.823 161.924 199.38 161.719 199.02C161.513 198.654 161.242 198.382 160.905 198.206C160.567 198.023 160.201 197.931 159.805 197.931C159.409 197.931 159.042 198.023 158.705 198.206C158.367 198.382 158.096 198.654 157.891 199.02C157.693 199.38 157.594 199.823 157.594 200.351C157.594 200.879 157.693 201.327 157.891 201.693C158.096 202.053 158.364 202.324 158.694 202.507C159.031 202.683 159.398 202.771 159.794 202.771ZM164.992 198.415C165.161 198.041 165.418 197.752 165.762 197.546C166.114 197.341 166.543 197.238 167.049 197.238V198.041H166.84C166.283 198.041 165.836 198.192 165.498 198.492C165.161 198.793 164.992 199.295 164.992 199.999V203.354H164.222V197.348H164.992V198.415ZM171.985 198.668C172.176 198.265 172.477 197.931 172.887 197.667C173.305 197.396 173.8 197.26 174.372 197.26C174.915 197.26 175.403 197.389 175.835 197.645C176.275 197.895 176.616 198.254 176.858 198.723C177.108 199.185 177.232 199.724 177.232 200.34C177.232 200.956 177.108 201.499 176.858 201.968C176.616 202.438 176.275 202.801 175.835 203.057C175.403 203.314 174.915 203.442 174.372 203.442C173.808 203.442 173.316 203.31 172.898 203.046C172.48 202.775 172.176 202.438 171.985 202.034V206.192H171.226V197.348H171.985V198.668ZM176.451 200.34C176.451 199.842 176.352 199.413 176.154 199.053C175.964 198.687 175.7 198.408 175.362 198.217C175.025 198.027 174.644 197.931 174.218 197.931C173.808 197.931 173.43 198.03 173.085 198.228C172.748 198.426 172.48 198.709 172.282 199.075C172.084 199.442 171.985 199.867 171.985 200.351C171.985 200.835 172.084 201.261 172.282 201.627C172.48 201.994 172.748 202.276 173.085 202.474C173.43 202.672 173.808 202.771 174.218 202.771C174.644 202.771 175.025 202.676 175.362 202.485C175.7 202.287 175.964 202.005 176.154 201.638C176.352 201.264 176.451 200.832 176.451 200.34ZM179.419 195.214V203.354H178.649V195.214H179.419ZM180.811 200.34C180.811 199.724 180.932 199.185 181.174 198.723C181.423 198.254 181.764 197.895 182.197 197.645C182.637 197.389 183.132 197.26 183.682 197.26C184.254 197.26 184.745 197.392 185.156 197.656C185.574 197.92 185.874 198.258 186.058 198.668V197.348H186.828V203.354H186.058V202.023C185.867 202.434 185.563 202.775 185.145 203.046C184.734 203.31 184.243 203.442 183.671 203.442C183.128 203.442 182.637 203.314 182.197 203.057C181.764 202.801 181.423 202.438 181.174 201.968C180.932 201.499 180.811 200.956 180.811 200.34ZM186.058 200.351C186.058 199.867 185.959 199.442 185.761 199.075C185.563 198.709 185.291 198.426 184.947 198.228C184.609 198.03 184.235 197.931 183.825 197.931C183.399 197.931 183.018 198.027 182.681 198.217C182.343 198.408 182.076 198.687 181.878 199.053C181.687 199.413 181.592 199.842 181.592 200.34C181.592 200.832 181.687 201.264 181.878 201.638C182.076 202.005 182.343 202.287 182.681 202.485C183.018 202.676 183.399 202.771 183.825 202.771C184.235 202.771 184.609 202.672 184.947 202.474C185.291 202.276 185.563 201.994 185.761 201.627C185.959 201.261 186.058 200.835 186.058 200.351ZM188.234 200.351C188.234 199.728 188.358 199.185 188.608 198.723C188.857 198.254 189.202 197.895 189.642 197.645C190.082 197.389 190.584 197.26 191.149 197.26C191.889 197.26 192.498 197.444 192.975 197.81C193.459 198.177 193.77 198.676 193.91 199.306H193.085C192.982 198.874 192.758 198.536 192.414 198.294C192.076 198.045 191.655 197.92 191.149 197.92C190.745 197.92 190.382 198.012 190.06 198.195C189.737 198.379 189.48 198.654 189.29 199.02C189.106 199.38 189.015 199.823 189.015 200.351C189.015 200.879 189.106 201.327 189.29 201.693C189.48 202.06 189.737 202.335 190.06 202.518C190.382 202.702 190.745 202.793 191.149 202.793C191.655 202.793 192.076 202.672 192.414 202.43C192.758 202.181 192.982 201.836 193.085 201.396H193.91C193.77 202.012 193.459 202.507 192.975 202.881C192.491 203.255 191.882 203.442 191.149 203.442C190.584 203.442 190.082 203.318 189.642 203.068C189.202 202.812 188.857 202.452 188.608 201.99C188.358 201.521 188.234 200.975 188.234 200.351ZM200.766 200.043C200.766 200.307 200.758 200.509 200.744 200.648H195.761C195.783 201.103 195.893 201.492 196.091 201.814C196.289 202.137 196.549 202.383 196.872 202.551C197.194 202.713 197.546 202.793 197.928 202.793C198.426 202.793 198.844 202.672 199.182 202.43C199.526 202.188 199.754 201.862 199.864 201.451H200.678C200.531 202.038 200.216 202.518 199.732 202.892C199.255 203.259 198.654 203.442 197.928 203.442C197.363 203.442 196.857 203.318 196.41 203.068C195.962 202.812 195.61 202.452 195.354 201.99C195.104 201.521 194.98 200.975 194.98 200.351C194.98 199.728 195.104 199.182 195.354 198.712C195.603 198.243 195.951 197.884 196.399 197.634C196.846 197.385 197.356 197.26 197.928 197.26C198.5 197.26 198.998 197.385 199.424 197.634C199.856 197.884 200.186 198.221 200.414 198.646C200.648 199.064 200.766 199.53 200.766 200.043ZM199.985 200.021C199.992 199.574 199.9 199.193 199.71 198.877C199.526 198.562 199.273 198.324 198.951 198.162C198.628 198.001 198.276 197.92 197.895 197.92C197.323 197.92 196.835 198.104 196.432 198.47C196.028 198.837 195.805 199.354 195.761 200.021H199.985ZM204.242 203.442C203.553 203.442 202.988 203.285 202.548 202.969C202.116 202.647 201.874 202.21 201.822 201.66H202.614C202.651 201.998 202.809 202.273 203.087 202.485C203.373 202.691 203.755 202.793 204.231 202.793C204.649 202.793 204.976 202.694 205.21 202.496C205.452 202.298 205.573 202.053 205.573 201.759C205.573 201.554 205.507 201.385 205.375 201.253C205.243 201.121 205.075 201.019 204.869 200.945C204.671 200.865 204.4 200.78 204.055 200.692C203.608 200.575 203.245 200.458 202.966 200.34C202.688 200.223 202.449 200.051 202.251 199.823C202.061 199.589 201.965 199.277 201.965 198.888C201.965 198.595 202.053 198.324 202.229 198.074C202.405 197.825 202.655 197.627 202.977 197.48C203.3 197.334 203.667 197.26 204.077 197.26C204.723 197.26 205.243 197.425 205.639 197.755C206.035 198.078 206.248 198.525 206.277 199.097H205.507C205.485 198.745 205.346 198.463 205.089 198.25C204.84 198.03 204.495 197.92 204.055 197.92C203.667 197.92 203.351 198.012 203.109 198.195C202.867 198.379 202.746 198.606 202.746 198.877C202.746 199.112 202.816 199.306 202.955 199.46C203.102 199.607 203.282 199.724 203.494 199.812C203.707 199.893 203.993 199.985 204.352 200.087C204.785 200.205 205.13 200.318 205.386 200.428C205.643 200.538 205.863 200.7 206.046 200.912C206.23 201.125 206.325 201.407 206.332 201.759C206.332 202.082 206.244 202.372 206.068 202.628C205.892 202.878 205.647 203.076 205.331 203.222C205.016 203.369 204.653 203.442 204.242 203.442ZM213.616 197.238C214.335 197.238 214.922 197.462 215.376 197.909C215.831 198.349 216.058 198.991 216.058 199.834V203.354H215.299V199.922C215.299 199.27 215.134 198.771 214.804 198.426C214.482 198.082 214.038 197.909 213.473 197.909C212.894 197.909 212.432 198.093 212.087 198.459C211.743 198.826 211.57 199.365 211.57 200.076V203.354H210.8V197.348H211.57V198.371C211.761 198.005 212.036 197.726 212.395 197.535C212.755 197.337 213.162 197.238 213.616 197.238ZM223.195 200.043C223.195 200.307 223.188 200.509 223.173 200.648H218.19C218.212 201.103 218.322 201.492 218.52 201.814C218.718 202.137 218.979 202.383 219.301 202.551C219.624 202.713 219.976 202.793 220.357 202.793C220.856 202.793 221.274 202.672 221.611 202.43C221.956 202.188 222.183 201.862 222.293 201.451H223.107C222.961 202.038 222.645 202.518 222.161 202.892C221.685 203.259 221.083 203.442 220.357 203.442C219.793 203.442 219.287 203.318 218.839 203.068C218.392 202.812 218.04 202.452 217.783 201.99C217.534 201.521 217.409 200.975 217.409 200.351C217.409 199.728 217.534 199.182 217.783 198.712C218.033 198.243 218.381 197.884 218.828 197.634C219.276 197.385 219.785 197.26 220.357 197.26C220.929 197.26 221.428 197.385 221.853 197.634C222.286 197.884 222.616 198.221 222.843 198.646C223.078 199.064 223.195 199.53 223.195 200.043ZM222.414 200.021C222.422 199.574 222.33 199.193 222.139 198.877C221.956 198.562 221.703 198.324 221.38 198.162C221.058 198.001 220.706 197.92 220.324 197.92C219.752 197.92 219.265 198.104 218.861 198.47C218.458 198.837 218.234 199.354 218.19 200.021H222.414ZM224.252 200.34C224.252 199.724 224.373 199.185 224.615 198.723C224.864 198.254 225.205 197.895 225.638 197.645C226.078 197.389 226.573 197.26 227.123 197.26C227.695 197.26 228.186 197.392 228.597 197.656C229.015 197.92 229.316 198.258 229.499 198.668V197.348H230.269V203.354H229.499V202.023C229.308 202.434 229.004 202.775 228.586 203.046C228.175 203.31 227.684 203.442 227.112 203.442C226.569 203.442 226.078 203.314 225.638 203.057C225.205 202.801 224.864 202.438 224.615 201.968C224.373 201.499 224.252 200.956 224.252 200.34ZM229.499 200.351C229.499 199.867 229.4 199.442 229.202 199.075C229.004 198.709 228.733 198.426 228.388 198.228C228.051 198.03 227.677 197.931 227.266 197.931C226.841 197.931 226.459 198.027 226.122 198.217C225.785 198.408 225.517 198.687 225.319 199.053C225.128 199.413 225.033 199.842 225.033 200.34C225.033 200.832 225.128 201.264 225.319 201.638C225.517 202.005 225.785 202.287 226.122 202.485C226.459 202.676 226.841 202.771 227.266 202.771C227.677 202.771 228.051 202.672 228.388 202.474C228.733 202.276 229.004 201.994 229.202 201.627C229.4 201.261 229.499 200.835 229.499 200.351ZM232.797 198.415C232.966 198.041 233.222 197.752 233.567 197.546C233.919 197.341 234.348 197.238 234.854 197.238V198.041H234.645C234.088 198.041 233.64 198.192 233.303 198.492C232.966 198.793 232.797 199.295 232.797 199.999V203.354H232.027V197.348H232.797V198.415ZM243.981 197.348L240.417 206.181H239.614L240.78 203.321L238.316 197.348H239.163L241.209 202.474L243.189 197.348H243.981ZM247.654 203.442C247.089 203.442 246.58 203.318 246.125 203.068C245.678 202.812 245.322 202.452 245.058 201.99C244.801 201.521 244.673 200.975 244.673 200.351C244.673 199.728 244.805 199.185 245.069 198.723C245.333 198.254 245.692 197.895 246.147 197.645C246.602 197.389 247.111 197.26 247.676 197.26C248.241 197.26 248.75 197.389 249.205 197.645C249.667 197.895 250.026 198.254 250.283 198.723C250.547 199.185 250.679 199.728 250.679 200.351C250.679 200.967 250.547 201.51 250.283 201.979C250.019 202.449 249.656 202.812 249.194 203.068C248.732 203.318 248.219 203.442 247.654 203.442ZM247.654 202.771C248.05 202.771 248.417 202.683 248.754 202.507C249.091 202.324 249.363 202.053 249.568 201.693C249.781 201.327 249.887 200.879 249.887 200.351C249.887 199.823 249.784 199.38 249.579 199.02C249.374 198.654 249.102 198.382 248.765 198.206C248.428 198.023 248.061 197.931 247.665 197.931C247.269 197.931 246.902 198.023 246.565 198.206C246.228 198.382 245.956 198.654 245.751 199.02C245.553 199.38 245.454 199.823 245.454 200.351C245.454 200.879 245.553 201.327 245.751 201.693C245.956 202.053 246.224 202.324 246.554 202.507C246.891 202.683 247.258 202.771 247.654 202.771ZM257.286 197.348V203.354H256.516V202.298C256.34 202.672 256.068 202.958 255.702 203.156C255.335 203.354 254.924 203.453 254.47 203.453C253.751 203.453 253.164 203.233 252.71 202.793C252.255 202.346 252.028 201.701 252.028 200.857V197.348H252.787V200.769C252.787 201.422 252.948 201.921 253.271 202.265C253.601 202.61 254.048 202.782 254.613 202.782C255.192 202.782 255.654 202.599 255.999 202.232C256.343 201.866 256.516 201.327 256.516 200.615V197.348H257.286ZM259.814 198.415C259.982 198.041 260.239 197.752 260.584 197.546C260.936 197.341 261.365 197.238 261.871 197.238V198.041H261.662C261.104 198.041 260.657 198.192 260.32 198.492C259.982 198.793 259.814 199.295 259.814 199.999V203.354H259.044V197.348H259.814V198.415ZM267.048 197.997V201.726C267.048 202.093 267.118 202.346 267.257 202.485C267.397 202.625 267.642 202.694 267.994 202.694H268.698V203.354H267.873C267.331 203.354 266.927 203.23 266.663 202.98C266.399 202.724 266.267 202.306 266.267 201.726V197.997H265.431V197.348H266.267V195.841H267.048V197.348H268.698V197.997H267.048ZM270.738 198.415C270.907 198.041 271.164 197.752 271.508 197.546C271.86 197.341 272.289 197.238 272.795 197.238V198.041H272.586C272.029 198.041 271.582 198.192 271.244 198.492C270.907 198.793 270.738 199.295 270.738 199.999V203.354H269.968V197.348H270.738V198.415ZM274.339 196.215C274.185 196.215 274.053 196.16 273.943 196.05C273.833 195.94 273.778 195.805 273.778 195.643C273.778 195.482 273.833 195.35 273.943 195.247C274.053 195.137 274.185 195.082 274.339 195.082C274.493 195.082 274.625 195.137 274.735 195.247C274.845 195.35 274.9 195.482 274.9 195.643C274.9 195.805 274.845 195.94 274.735 196.05C274.625 196.16 274.493 196.215 274.339 196.215ZM274.724 197.348V203.354H273.954V197.348H274.724ZM277.226 198.668C277.417 198.265 277.718 197.931 278.128 197.667C278.546 197.396 279.041 197.26 279.613 197.26C280.156 197.26 280.644 197.389 281.076 197.645C281.516 197.895 281.857 198.254 282.099 198.723C282.349 199.185 282.473 199.724 282.473 200.34C282.473 200.956 282.349 201.499 282.099 201.968C281.857 202.438 281.516 202.801 281.076 203.057C280.644 203.314 280.156 203.442 279.613 203.442C279.049 203.442 278.557 203.31 278.139 203.046C277.721 202.775 277.417 202.438 277.226 202.034V206.192H276.467V197.348H277.226V198.668ZM281.692 200.34C281.692 199.842 281.593 199.413 281.395 199.053C281.205 198.687 280.941 198.408 280.603 198.217C280.266 198.027 279.885 197.931 279.459 197.931C279.049 197.931 278.671 198.03 278.326 198.228C277.989 198.426 277.721 198.709 277.523 199.075C277.325 199.442 277.226 199.867 277.226 200.351C277.226 200.835 277.325 201.261 277.523 201.627C277.721 201.994 277.989 202.276 278.326 202.474C278.671 202.672 279.049 202.771 279.459 202.771C279.885 202.771 280.266 202.676 280.603 202.485C280.941 202.287 281.205 202.005 281.395 201.638C281.593 201.264 281.692 200.832 281.692 200.34ZM136.956 217.34C136.956 216.724 137.08 216.185 137.33 215.723C137.579 215.254 137.92 214.895 138.353 214.645C138.793 214.389 139.288 214.26 139.838 214.26C140.366 214.26 140.842 214.389 141.268 214.645C141.693 214.902 142.005 215.236 142.203 215.646V212.214H142.973V220.354H142.203V219.012C142.019 219.43 141.719 219.775 141.301 220.046C140.883 220.31 140.391 220.442 139.827 220.442C139.277 220.442 138.782 220.314 138.342 220.057C137.909 219.801 137.568 219.438 137.319 218.968C137.077 218.499 136.956 217.956 136.956 217.34ZM142.203 217.351C142.203 216.867 142.104 216.442 141.906 216.075C141.708 215.709 141.436 215.426 141.092 215.228C140.754 215.03 140.38 214.931 139.97 214.931C139.544 214.931 139.163 215.027 138.826 215.217C138.488 215.408 138.221 215.687 138.023 216.053C137.832 216.413 137.737 216.842 137.737 217.34C137.737 217.832 137.832 218.264 138.023 218.638C138.221 219.005 138.488 219.287 138.826 219.485C139.163 219.676 139.544 219.771 139.97 219.771C140.38 219.771 140.754 219.672 141.092 219.474C141.436 219.276 141.708 218.994 141.906 218.627C142.104 218.261 142.203 217.835 142.203 217.351ZM150.165 217.043C150.165 217.307 150.157 217.509 150.143 217.648H145.16C145.182 218.103 145.292 218.492 145.49 218.814C145.688 219.137 145.948 219.383 146.271 219.551C146.593 219.713 146.945 219.793 147.327 219.793C147.825 219.793 148.243 219.672 148.581 219.43C148.925 219.188 149.153 218.862 149.263 218.451H150.077C149.93 219.038 149.615 219.518 149.131 219.892C148.654 220.259 148.053 220.442 147.327 220.442C146.762 220.442 146.256 220.318 145.809 220.068C145.361 219.812 145.009 219.452 144.753 218.99C144.503 218.521 144.379 217.975 144.379 217.351C144.379 216.728 144.503 216.182 144.753 215.712C145.002 215.243 145.35 214.884 145.798 214.634C146.245 214.385 146.755 214.26 147.327 214.26C147.899 214.26 148.397 214.385 148.823 214.634C149.255 214.884 149.585 215.221 149.813 215.646C150.047 216.064 150.165 216.53 150.165 217.043ZM149.384 217.021C149.391 216.574 149.299 216.193 149.109 215.877C148.925 215.562 148.672 215.324 148.35 215.162C148.027 215.001 147.675 214.92 147.294 214.92C146.722 214.92 146.234 215.104 145.831 215.47C145.427 215.837 145.204 216.354 145.16 217.021H149.384ZM153.641 220.442C152.952 220.442 152.387 220.285 151.947 219.969C151.515 219.647 151.273 219.21 151.221 218.66H152.013C152.05 218.998 152.208 219.273 152.486 219.485C152.772 219.691 153.154 219.793 153.63 219.793C154.048 219.793 154.375 219.694 154.609 219.496C154.851 219.298 154.972 219.053 154.972 218.759C154.972 218.554 154.906 218.385 154.774 218.253C154.642 218.121 154.474 218.019 154.268 217.945C154.07 217.865 153.799 217.78 153.454 217.692C153.007 217.575 152.644 217.458 152.365 217.34C152.087 217.223 151.848 217.051 151.65 216.823C151.46 216.589 151.364 216.277 151.364 215.888C151.364 215.595 151.452 215.324 151.628 215.074C151.804 214.825 152.054 214.627 152.376 214.48C152.699 214.334 153.066 214.26 153.476 214.26C154.122 214.26 154.642 214.425 155.038 214.755C155.434 215.078 155.647 215.525 155.676 216.097H154.906C154.884 215.745 154.745 215.463 154.488 215.25C154.239 215.03 153.894 214.92 153.454 214.92C153.066 214.92 152.75 215.012 152.508 215.195C152.266 215.379 152.145 215.606 152.145 215.877C152.145 216.112 152.215 216.306 152.354 216.46C152.501 216.607 152.681 216.724 152.893 216.812C153.106 216.893 153.392 216.985 153.751 217.087C154.184 217.205 154.529 217.318 154.785 217.428C155.042 217.538 155.262 217.7 155.445 217.912C155.629 218.125 155.724 218.407 155.731 218.759C155.731 219.082 155.643 219.372 155.467 219.628C155.291 219.878 155.046 220.076 154.73 220.222C154.415 220.369 154.052 220.442 153.641 220.442ZM158.182 214.997V218.726C158.182 219.093 158.251 219.346 158.391 219.485C158.53 219.625 158.776 219.694 159.128 219.694H159.832V220.354H159.007C158.464 220.354 158.061 220.23 157.797 219.98C157.533 219.724 157.401 219.306 157.401 218.726V214.997H156.565V214.348H157.401V212.841H158.182V214.348H159.832V214.997H158.182ZM161.487 213.215C161.333 213.215 161.201 213.16 161.091 213.05C160.981 212.94 160.926 212.805 160.926 212.643C160.926 212.482 160.981 212.35 161.091 212.247C161.201 212.137 161.333 212.082 161.487 212.082C161.641 212.082 161.773 212.137 161.883 212.247C161.993 212.35 162.048 212.482 162.048 212.643C162.048 212.805 161.993 212.94 161.883 213.05C161.773 213.16 161.641 213.215 161.487 213.215ZM161.872 214.348V220.354H161.102V214.348H161.872ZM166.431 214.238C167.15 214.238 167.737 214.462 168.191 214.909C168.646 215.349 168.873 215.991 168.873 216.834V220.354H168.114V216.922C168.114 216.27 167.949 215.771 167.619 215.426C167.297 215.082 166.853 214.909 166.288 214.909C165.709 214.909 165.247 215.093 164.902 215.459C164.558 215.826 164.385 216.365 164.385 217.076V220.354H163.615V214.348H164.385V215.371C164.576 215.005 164.851 214.726 165.21 214.535C165.57 214.337 165.977 214.238 166.431 214.238ZM170.224 217.34C170.224 216.724 170.345 216.185 170.587 215.723C170.837 215.254 171.178 214.895 171.61 214.645C172.05 214.389 172.545 214.26 173.095 214.26C173.667 214.26 174.159 214.392 174.569 214.656C174.987 214.92 175.288 215.258 175.471 215.668V214.348H176.241V220.354H175.471V219.023C175.281 219.434 174.976 219.775 174.558 220.046C174.148 220.31 173.656 220.442 173.084 220.442C172.542 220.442 172.05 220.314 171.61 220.057C171.178 219.801 170.837 219.438 170.587 218.968C170.345 218.499 170.224 217.956 170.224 217.34ZM175.471 217.351C175.471 216.867 175.372 216.442 175.174 216.075C174.976 215.709 174.705 215.426 174.36 215.228C174.023 215.03 173.649 214.931 173.238 214.931C172.813 214.931 172.432 215.027 172.094 215.217C171.757 215.408 171.489 215.687 171.291 216.053C171.101 216.413 171.005 216.842 171.005 217.34C171.005 217.832 171.101 218.264 171.291 218.638C171.489 219.005 171.757 219.287 172.094 219.485C172.432 219.676 172.813 219.771 173.238 219.771C173.649 219.771 174.023 219.672 174.36 219.474C174.705 219.276 174.976 218.994 175.174 218.627C175.372 218.261 175.471 217.835 175.471 217.351ZM179 214.997V218.726C179 219.093 179.07 219.346 179.209 219.485C179.348 219.625 179.594 219.694 179.946 219.694H180.65V220.354H179.825C179.282 220.354 178.879 220.23 178.615 219.98C178.351 219.724 178.219 219.306 178.219 218.726V214.997H177.383V214.348H178.219V212.841H179V214.348H180.65V214.997H179ZM182.305 213.215C182.151 213.215 182.019 213.16 181.909 213.05C181.799 212.94 181.744 212.805 181.744 212.643C181.744 212.482 181.799 212.35 181.909 212.247C182.019 212.137 182.151 212.082 182.305 212.082C182.459 212.082 182.591 212.137 182.701 212.247C182.811 212.35 182.866 212.482 182.866 212.643C182.866 212.805 182.811 212.94 182.701 213.05C182.591 213.16 182.459 213.215 182.305 213.215ZM182.69 214.348V220.354H181.92V214.348H182.69ZM187.063 220.442C186.498 220.442 185.988 220.318 185.534 220.068C185.086 219.812 184.731 219.452 184.467 218.99C184.21 218.521 184.082 217.975 184.082 217.351C184.082 216.728 184.214 216.185 184.478 215.723C184.742 215.254 185.101 214.895 185.556 214.645C186.01 214.389 186.52 214.26 187.085 214.26C187.649 214.26 188.159 214.389 188.614 214.645C189.076 214.895 189.435 215.254 189.692 215.723C189.956 216.185 190.088 216.728 190.088 217.351C190.088 217.967 189.956 218.51 189.692 218.979C189.428 219.449 189.065 219.812 188.603 220.068C188.141 220.318 187.627 220.442 187.063 220.442ZM187.063 219.771C187.459 219.771 187.825 219.683 188.163 219.507C188.5 219.324 188.771 219.053 188.977 218.693C189.189 218.327 189.296 217.879 189.296 217.351C189.296 216.823 189.193 216.38 188.988 216.02C188.782 215.654 188.511 215.382 188.174 215.206C187.836 215.023 187.47 214.931 187.074 214.931C186.678 214.931 186.311 215.023 185.974 215.206C185.636 215.382 185.365 215.654 185.16 216.02C184.962 216.38 184.863 216.823 184.863 217.351C184.863 217.879 184.962 218.327 185.16 218.693C185.365 219.053 185.633 219.324 185.963 219.507C186.3 219.683 186.667 219.771 187.063 219.771ZM194.307 214.238C195.026 214.238 195.613 214.462 196.067 214.909C196.522 215.349 196.749 215.991 196.749 216.834V220.354H195.99V216.922C195.99 216.27 195.825 215.771 195.495 215.426C195.173 215.082 194.729 214.909 194.164 214.909C193.585 214.909 193.123 215.093 192.778 215.459C192.434 215.826 192.261 216.365 192.261 217.076V220.354H191.491V214.348H192.261V215.371C192.452 215.005 192.727 214.726 193.086 214.535C193.446 214.337 193.853 214.238 194.307 214.238Z" fill="black"/>
<defs>
<filter id="filter0_d_15_766" x="0" y="0" width="334" height="264" filterUnits="userSpaceOnUse" color-interpolation-filters="sRGB">
<feFlood flood-opacity="0" result="BackgroundImageFix"/>
<feColorMatrix in="SourceAlpha" type="matrix" values="0 0 0 0 0 0 0 0 0 0 0 0 0 0 0 0 0 0 127 0" result="hardAlpha"/>
<feMorphology radius="2" operator="dilate" in="SourceAlpha" result="effect1_dropShadow_15_766"/>
<feOffset dy="2"/>
<feGaussianBlur stdDeviation="5"/>
<feComposite in2="hardAlpha" operator="out"/>
<feColorMatrix type="matrix" values="0 0 0 0 0 0 0 0 0 0 0 0 0 0 0 0 0 0 0.15 0"/>
<feBlend mode="normal" in2="BackgroundImageFix" result="effect1_dropShadow_15_766"/>
<feBlend mode="normal" in="SourceGraphic" in2="effect1_dropShadow_15_766" result="shape"/>
</filter>
<clipPath id="clip0_15_766">
<rect width="94" height="93.0208" fill="white" transform="translate(37 35)"/>
</clipPath>
</defs>
</svg>
