<svg width="334" height="264" viewBox="0 0 334 264" fill="none" xmlns="http://www.w3.org/2000/svg">
<g filter="url(#filter0_d_15_780)">
<rect x="12" y="10" width="310" height="240" rx="10" fill="white"/>
</g>
<path d="M89.6166 167.192C89.6166 167.757 89.4833 168.291 89.2166 168.792C88.95 169.293 88.5233 169.704 87.9366 170.024C87.35 170.333 86.598 170.488 85.6806 170.488H83.6646V175H81.8406V163.88H85.6806C86.534 163.88 87.254 164.029 87.8406 164.328C88.438 164.616 88.8806 165.011 89.1686 165.512C89.4673 166.013 89.6166 166.573 89.6166 167.192ZM85.6806 169C86.374 169 86.8913 168.845 87.2326 168.536C87.574 168.216 87.7446 167.768 87.7446 167.192C87.7446 165.976 87.0566 165.368 85.6806 165.368H83.6646V169H85.6806ZM99.4363 170.376C99.4363 170.707 99.4149 171.005 99.3723 171.272H92.6363C92.6896 171.976 92.9509 172.541 93.4203 172.968C93.8896 173.395 94.4656 173.608 95.1483 173.608C96.1296 173.608 96.8229 173.197 97.2283 172.376H99.1962C98.9296 173.187 98.4443 173.853 97.7403 174.376C97.0469 174.888 96.1829 175.144 95.1483 175.144C94.3056 175.144 93.5483 174.957 92.8763 174.584C92.2149 174.2 91.6923 173.667 91.3083 172.984C90.9349 172.291 90.7483 171.491 90.7483 170.584C90.7483 169.677 90.9296 168.883 91.2923 168.2C91.6656 167.507 92.1829 166.973 92.8443 166.6C93.5163 166.227 94.2843 166.04 95.1483 166.04C95.9803 166.04 96.7216 166.221 97.3723 166.584C98.0229 166.947 98.5296 167.459 98.8923 168.12C99.2549 168.771 99.4363 169.523 99.4363 170.376ZM97.5323 169.8C97.5216 169.128 97.2816 168.589 96.8123 168.184C96.3429 167.779 95.7616 167.576 95.0683 167.576C94.4389 167.576 93.9003 167.779 93.4523 168.184C93.0043 168.579 92.7376 169.117 92.6523 169.8H97.5323ZM103.055 167.464C103.322 167.016 103.674 166.669 104.111 166.424C104.559 166.168 105.087 166.04 105.695 166.04V167.928H105.231C104.517 167.928 103.973 168.109 103.599 168.472C103.237 168.835 103.055 169.464 103.055 170.36V175H101.231V166.184H103.055V167.464ZM110.572 175.144C109.879 175.144 109.255 175.021 108.7 174.776C108.156 174.52 107.724 174.179 107.404 173.752C107.084 173.315 106.913 172.829 106.892 172.296H108.78C108.812 172.669 108.988 172.984 109.308 173.24C109.639 173.485 110.049 173.608 110.54 173.608C111.052 173.608 111.447 173.512 111.724 173.32C112.012 173.117 112.156 172.861 112.156 172.552C112.156 172.221 111.996 171.976 111.676 171.816C111.367 171.656 110.871 171.48 110.188 171.288C109.527 171.107 108.988 170.931 108.572 170.76C108.156 170.589 107.793 170.328 107.484 169.976C107.185 169.624 107.036 169.16 107.036 168.584C107.036 168.115 107.175 167.688 107.452 167.304C107.729 166.909 108.124 166.6 108.636 166.376C109.159 166.152 109.756 166.04 110.428 166.04C111.431 166.04 112.236 166.296 112.844 166.808C113.463 167.309 113.793 167.997 113.836 168.872H112.012C111.98 168.477 111.82 168.163 111.532 167.928C111.244 167.693 110.855 167.576 110.364 167.576C109.884 167.576 109.516 167.667 109.26 167.848C109.004 168.029 108.876 168.269 108.876 168.568C108.876 168.803 108.961 169 109.132 169.16C109.303 169.32 109.511 169.448 109.756 169.544C110.001 169.629 110.364 169.741 110.844 169.88C111.484 170.051 112.007 170.227 112.412 170.408C112.828 170.579 113.185 170.835 113.484 171.176C113.783 171.517 113.937 171.971 113.948 172.536C113.948 173.037 113.809 173.485 113.532 173.88C113.255 174.275 112.86 174.584 112.348 174.808C111.847 175.032 111.255 175.144 110.572 175.144ZM119.743 175.144C118.911 175.144 118.159 174.957 117.487 174.584C116.815 174.2 116.287 173.667 115.903 172.984C115.519 172.291 115.327 171.491 115.327 170.584C115.327 169.688 115.524 168.893 115.919 168.2C116.313 167.507 116.852 166.973 117.535 166.6C118.217 166.227 118.98 166.04 119.823 166.04C120.665 166.04 121.428 166.227 122.111 166.6C122.793 166.973 123.332 167.507 123.727 168.2C124.121 168.893 124.319 169.688 124.319 170.584C124.319 171.48 124.116 172.275 123.711 172.968C123.305 173.661 122.751 174.2 122.047 174.584C121.353 174.957 120.585 175.144 119.743 175.144ZM119.743 173.56C120.212 173.56 120.649 173.448 121.055 173.224C121.471 173 121.807 172.664 122.063 172.216C122.319 171.768 122.447 171.224 122.447 170.584C122.447 169.944 122.324 169.405 122.079 168.968C121.833 168.52 121.508 168.184 121.103 167.96C120.697 167.736 120.26 167.624 119.791 167.624C119.321 167.624 118.884 167.736 118.479 167.96C118.084 168.184 117.769 168.52 117.535 168.968C117.3 169.405 117.183 169.944 117.183 170.584C117.183 171.533 117.423 172.269 117.903 172.792C118.393 173.304 119.007 173.56 119.743 173.56ZM130.57 166.04C131.263 166.04 131.882 166.184 132.426 166.472C132.981 166.76 133.413 167.187 133.722 167.752C134.031 168.317 134.186 169 134.186 169.8V175H132.378V170.072C132.378 169.283 132.181 168.68 131.786 168.264C131.391 167.837 130.853 167.624 130.17 167.624C129.487 167.624 128.943 167.837 128.538 168.264C128.143 168.68 127.946 169.283 127.946 170.072V175H126.122V166.184H127.946V167.192C128.245 166.829 128.623 166.547 129.082 166.344C129.551 166.141 130.047 166.04 130.57 166.04ZM135.905 170.552C135.905 169.667 136.086 168.883 136.449 168.2C136.822 167.517 137.323 166.989 137.953 166.616C138.593 166.232 139.297 166.04 140.065 166.04C140.758 166.04 141.361 166.179 141.873 166.456C142.395 166.723 142.811 167.059 143.121 167.464V166.184H144.961V175H143.121V173.688C142.811 174.104 142.39 174.451 141.857 174.728C141.323 175.005 140.715 175.144 140.033 175.144C139.275 175.144 138.582 174.952 137.953 174.568C137.323 174.173 136.822 173.629 136.449 172.936C136.086 172.232 135.905 171.437 135.905 170.552ZM143.121 170.584C143.121 169.976 142.993 169.448 142.737 169C142.491 168.552 142.166 168.211 141.761 167.976C141.355 167.741 140.918 167.624 140.449 167.624C139.979 167.624 139.542 167.741 139.137 167.976C138.731 168.2 138.401 168.536 138.145 168.984C137.899 169.421 137.777 169.944 137.777 170.552C137.777 171.16 137.899 171.693 138.145 172.152C138.401 172.611 138.731 172.963 139.137 173.208C139.553 173.443 139.99 173.56 140.449 173.56C140.918 173.56 141.355 173.443 141.761 173.208C142.166 172.973 142.491 172.632 142.737 172.184C142.993 171.725 143.121 171.192 143.121 170.584ZM149.18 163.16V175H147.356V163.16H149.18ZM152.503 165.016C152.172 165.016 151.895 164.904 151.671 164.68C151.447 164.456 151.335 164.179 151.335 163.848C151.335 163.517 151.447 163.24 151.671 163.016C151.895 162.792 152.172 162.68 152.503 162.68C152.823 162.68 153.095 162.792 153.319 163.016C153.543 163.24 153.655 163.517 153.655 163.848C153.655 164.179 153.543 164.456 153.319 164.68C153.095 164.904 152.823 165.016 152.503 165.016ZM153.399 166.184V175H151.575V166.184H153.399ZM157.41 173.512H161.41V175H155.298V173.512L159.314 167.672H155.298V166.184H161.41V167.672L157.41 173.512ZM171.405 170.376C171.405 170.707 171.384 171.005 171.341 171.272H164.605C164.658 171.976 164.92 172.541 165.389 172.968C165.858 173.395 166.434 173.608 167.117 173.608C168.098 173.608 168.792 173.197 169.197 172.376H171.165C170.898 173.187 170.413 173.853 169.709 174.376C169.016 174.888 168.152 175.144 167.117 175.144C166.274 175.144 165.517 174.957 164.845 174.584C164.184 174.2 163.661 173.667 163.277 172.984C162.904 172.291 162.717 171.491 162.717 170.584C162.717 169.677 162.898 168.883 163.261 168.2C163.634 167.507 164.152 166.973 164.813 166.6C165.485 166.227 166.253 166.04 167.117 166.04C167.949 166.04 168.69 166.221 169.341 166.584C169.992 166.947 170.498 167.459 170.861 168.12C171.224 168.771 171.405 169.523 171.405 170.376ZM169.501 169.8C169.49 169.128 169.25 168.589 168.781 168.184C168.312 167.779 167.73 167.576 167.037 167.576C166.408 167.576 165.869 167.779 165.421 168.184C164.973 168.579 164.706 169.117 164.621 169.8H169.501ZM172.592 170.552C172.592 169.667 172.773 168.883 173.136 168.2C173.509 167.517 174.011 166.989 174.64 166.616C175.28 166.232 175.989 166.04 176.768 166.04C177.344 166.04 177.909 166.168 178.464 166.424C179.029 166.669 179.477 167 179.808 167.416V163.16H181.648V175H179.808V173.672C179.509 174.099 179.093 174.451 178.56 174.728C178.037 175.005 177.435 175.144 176.752 175.144C175.984 175.144 175.28 174.952 174.64 174.568C174.011 174.173 173.509 173.629 173.136 172.936C172.773 172.232 172.592 171.437 172.592 170.552ZM179.808 170.584C179.808 169.976 179.68 169.448 179.424 169C179.179 168.552 178.853 168.211 178.448 167.976C178.043 167.741 177.605 167.624 177.136 167.624C176.667 167.624 176.229 167.741 175.824 167.976C175.419 168.2 175.088 168.536 174.832 168.984C174.587 169.421 174.464 169.944 174.464 170.552C174.464 171.16 174.587 171.693 174.832 172.152C175.088 172.611 175.419 172.963 175.824 173.208C176.24 173.443 176.677 173.56 177.136 173.56C177.605 173.56 178.043 173.443 178.448 173.208C178.853 172.973 179.179 172.632 179.424 172.184C179.68 171.725 179.808 171.192 179.808 170.584ZM196.136 166.184L190.728 179.144H188.84L190.632 174.856L187.16 166.184H189.192L191.672 172.904L194.248 166.184H196.136ZM201.337 175.144C200.505 175.144 199.753 174.957 199.081 174.584C198.409 174.2 197.881 173.667 197.497 172.984C197.113 172.291 196.921 171.491 196.921 170.584C196.921 169.688 197.118 168.893 197.513 168.2C197.907 167.507 198.446 166.973 199.129 166.6C199.811 166.227 200.574 166.04 201.417 166.04C202.259 166.04 203.022 166.227 203.705 166.6C204.387 166.973 204.926 167.507 205.321 168.2C205.715 168.893 205.913 169.688 205.913 170.584C205.913 171.48 205.71 172.275 205.305 172.968C204.899 173.661 204.345 174.2 203.641 174.584C202.947 174.957 202.179 175.144 201.337 175.144ZM201.337 173.56C201.806 173.56 202.243 173.448 202.649 173.224C203.065 173 203.401 172.664 203.657 172.216C203.913 171.768 204.041 171.224 204.041 170.584C204.041 169.944 203.918 169.405 203.673 168.968C203.427 168.52 203.102 168.184 202.697 167.96C202.291 167.736 201.854 167.624 201.385 167.624C200.915 167.624 200.478 167.736 200.073 167.96C199.678 168.184 199.363 168.52 199.129 168.968C198.894 169.405 198.777 169.944 198.777 170.584C198.777 171.533 199.017 172.269 199.497 172.792C199.987 173.304 200.601 173.56 201.337 173.56ZM215.7 166.184V175H213.876V173.96C213.588 174.323 213.209 174.611 212.74 174.824C212.281 175.027 211.79 175.128 211.268 175.128C210.574 175.128 209.95 174.984 209.396 174.696C208.852 174.408 208.42 173.981 208.1 173.416C207.79 172.851 207.636 172.168 207.636 171.368V166.184H209.444V171.096C209.444 171.885 209.641 172.493 210.036 172.92C210.43 173.336 210.969 173.544 211.652 173.544C212.334 173.544 212.873 173.336 213.268 172.92C213.673 172.493 213.876 171.885 213.876 171.096V166.184H215.7ZM219.93 167.464C220.197 167.016 220.549 166.669 220.986 166.424C221.434 166.168 221.962 166.04 222.57 166.04V167.928H222.106C221.392 167.928 220.848 168.109 220.474 168.472C220.112 168.835 219.93 169.464 219.93 170.36V175H218.106V166.184H219.93V167.464ZM230.531 167.672V172.552C230.531 172.883 230.606 173.123 230.755 173.272C230.915 173.411 231.182 173.48 231.555 173.48H232.675V175H231.235C230.414 175 229.784 174.808 229.347 174.424C228.91 174.04 228.691 173.416 228.691 172.552V167.672H227.651V166.184H228.691V163.992H230.531V166.184H232.675V167.672H230.531ZM236.18 167.464C236.447 167.016 236.799 166.669 237.236 166.424C237.684 166.168 238.212 166.04 238.82 166.04V167.928H238.356C237.642 167.928 237.098 168.109 236.724 168.472C236.362 168.835 236.18 169.464 236.18 170.36V175H234.356V166.184H236.18V167.464ZM241.425 165.016C241.094 165.016 240.817 164.904 240.593 164.68C240.369 164.456 240.257 164.179 240.257 163.848C240.257 163.517 240.369 163.24 240.593 163.016C240.817 162.792 241.094 162.68 241.425 162.68C241.745 162.68 242.017 162.792 242.241 163.016C242.465 163.24 242.577 163.517 242.577 163.848C242.577 164.179 242.465 164.456 242.241 164.68C242.017 164.904 241.745 165.016 241.425 165.016ZM242.321 166.184V175H240.497V166.184H242.321ZM246.54 167.48C246.849 167.075 247.27 166.733 247.804 166.456C248.337 166.179 248.94 166.04 249.612 166.04C250.38 166.04 251.078 166.232 251.708 166.616C252.348 166.989 252.849 167.517 253.212 168.2C253.574 168.883 253.756 169.667 253.756 170.552C253.756 171.437 253.574 172.232 253.212 172.936C252.849 173.629 252.348 174.173 251.708 174.568C251.078 174.952 250.38 175.144 249.612 175.144C248.94 175.144 248.342 175.011 247.82 174.744C247.297 174.467 246.87 174.125 246.54 173.72V179.192H244.716V166.184H246.54V167.48ZM251.9 170.552C251.9 169.944 251.772 169.421 251.516 168.984C251.27 168.536 250.94 168.2 250.524 167.976C250.118 167.741 249.681 167.624 249.212 167.624C248.753 167.624 248.316 167.741 247.9 167.976C247.494 168.211 247.164 168.552 246.908 169C246.662 169.448 246.54 169.976 246.54 170.584C246.54 171.192 246.662 171.725 246.908 172.184C247.164 172.632 247.494 172.973 247.9 173.208C248.316 173.443 248.753 173.56 249.212 173.56C249.681 173.56 250.118 173.443 250.524 173.208C250.94 172.963 251.27 172.611 251.516 172.152C251.772 171.693 251.9 171.16 251.9 170.552Z" fill="black"/>
<path d="M62.8168 195.665V196.303H59.4288V199.174H62.2888V199.812H59.4288V203.354H58.6588V195.665H62.8168ZM64.4686 196.215C64.3146 196.215 64.1826 196.16 64.0726 196.05C63.9626 195.94 63.9076 195.805 63.9076 195.643C63.9076 195.482 63.9626 195.35 64.0726 195.247C64.1826 195.137 64.3146 195.082 64.4686 195.082C64.6226 195.082 64.7546 195.137 64.8646 195.247C64.9746 195.35 65.0296 195.482 65.0296 195.643C65.0296 195.805 64.9746 195.94 64.8646 196.05C64.7546 196.16 64.6226 196.215 64.4686 196.215ZM64.8536 197.348V203.354H64.0836V197.348H64.8536ZM69.4133 197.238C70.132 197.238 70.7186 197.462 71.1733 197.909C71.628 198.349 71.8553 198.991 71.8553 199.834V203.354H71.0963V199.922C71.0963 199.27 70.9313 198.771 70.6013 198.426C70.2786 198.082 69.835 197.909 69.2703 197.909C68.691 197.909 68.229 198.093 67.8843 198.459C67.5396 198.826 67.3673 199.365 67.3673 200.076V203.354H66.5973V197.348H67.3673V198.371C67.558 198.005 67.833 197.726 68.1923 197.535C68.5516 197.337 68.9586 197.238 69.4133 197.238ZM73.2062 200.34C73.2062 199.724 73.3309 199.185 73.5802 198.723C73.8296 198.254 74.1706 197.895 74.6032 197.645C75.0432 197.389 75.5382 197.26 76.0882 197.26C76.6162 197.26 77.0929 197.389 77.5182 197.645C77.9436 197.902 78.2552 198.236 78.4532 198.646V195.214H79.2232V203.354H78.4532V202.012C78.2699 202.43 77.9692 202.775 77.5512 203.046C77.1332 203.31 76.6419 203.442 76.0772 203.442C75.5272 203.442 75.0322 203.314 74.5922 203.057C74.1596 202.801 73.8186 202.438 73.5692 201.968C73.3272 201.499 73.2062 200.956 73.2062 200.34ZM78.4532 200.351C78.4532 199.867 78.3542 199.442 78.1562 199.075C77.9582 198.709 77.6869 198.426 77.3422 198.228C77.0049 198.03 76.6309 197.931 76.2202 197.931C75.7949 197.931 75.4136 198.027 75.0762 198.217C74.7389 198.408 74.4712 198.687 74.2732 199.053C74.0826 199.413 73.9872 199.842 73.9872 200.34C73.9872 200.832 74.0826 201.264 74.2732 201.638C74.4712 202.005 74.7389 202.287 75.0762 202.485C75.4136 202.676 75.7949 202.771 76.2202 202.771C76.6309 202.771 77.0049 202.672 77.3422 202.474C77.6869 202.276 77.9582 201.994 78.1562 201.627C78.3542 201.261 78.4532 200.835 78.4532 200.351ZM85.0006 197.997V201.726C85.0006 202.093 85.0703 202.346 85.2096 202.485C85.349 202.625 85.5946 202.694 85.9466 202.694H86.6506V203.354H85.8256C85.283 203.354 84.8796 203.23 84.6156 202.98C84.3516 202.724 84.2196 202.306 84.2196 201.726V197.997H83.3836V197.348H84.2196V195.841H85.0006V197.348H86.6506V197.997H85.0006ZM90.7805 197.238C91.2352 197.238 91.6422 197.334 92.0015 197.524C92.3682 197.715 92.6542 198.008 92.8595 198.404C93.0722 198.793 93.1785 199.27 93.1785 199.834V203.354H92.4195V199.922C92.4195 199.27 92.2545 198.771 91.9245 198.426C91.6019 198.082 91.1582 197.909 90.5935 197.909C90.0142 197.909 89.5522 198.093 89.2075 198.459C88.8629 198.826 88.6905 199.365 88.6905 200.076V203.354H87.9205V195.214H88.6905V198.371C88.8812 198.012 89.1599 197.733 89.5265 197.535C89.9005 197.337 90.3185 197.238 90.7805 197.238ZM100.315 200.043C100.315 200.307 100.308 200.509 100.293 200.648H95.3105C95.3325 201.103 95.4425 201.492 95.6405 201.814C95.8385 202.137 96.0988 202.383 96.4215 202.551C96.7441 202.713 97.0961 202.793 97.4775 202.793C97.9761 202.793 98.3941 202.672 98.7315 202.43C99.0761 202.188 99.3035 201.862 99.4135 201.451H100.227C100.081 202.038 99.7655 202.518 99.2815 202.892C98.8048 203.259 98.2035 203.442 97.4775 203.442C96.9128 203.442 96.4068 203.318 95.9595 203.068C95.5121 202.812 95.1601 202.452 94.9035 201.99C94.6541 201.521 94.5295 200.975 94.5295 200.351C94.5295 199.728 94.6541 199.182 94.9035 198.712C95.1528 198.243 95.5011 197.884 95.9485 197.634C96.3958 197.385 96.9055 197.26 97.4775 197.26C98.0495 197.26 98.5481 197.385 98.9735 197.634C99.4061 197.884 99.7361 198.221 99.9635 198.646C100.198 199.064 100.315 199.53 100.315 200.043ZM99.5345 200.021C99.5418 199.574 99.4501 199.193 99.2595 198.877C99.0761 198.562 98.8231 198.324 98.5005 198.162C98.1778 198.001 97.8258 197.92 97.4445 197.92C96.8725 197.92 96.3848 198.104 95.9815 198.47C95.5781 198.837 95.3545 199.354 95.3105 200.021H99.5345ZM105.502 198.679C105.7 198.261 106.004 197.92 106.415 197.656C106.833 197.392 107.324 197.26 107.889 197.26C108.439 197.26 108.93 197.389 109.363 197.645C109.795 197.895 110.133 198.254 110.375 198.723C110.624 199.185 110.749 199.724 110.749 200.34C110.749 200.956 110.624 201.499 110.375 201.968C110.133 202.438 109.792 202.801 109.352 203.057C108.919 203.314 108.431 203.442 107.889 203.442C107.317 203.442 106.822 203.314 106.404 203.057C105.993 202.793 105.692 202.452 105.502 202.034V203.354H104.743V195.214H105.502V198.679ZM109.968 200.34C109.968 199.842 109.869 199.413 109.671 199.053C109.48 198.687 109.216 198.408 108.879 198.217C108.541 198.027 108.16 197.931 107.735 197.931C107.324 197.931 106.946 198.03 106.602 198.228C106.264 198.426 105.997 198.709 105.799 199.075C105.601 199.442 105.502 199.867 105.502 200.351C105.502 200.835 105.601 201.261 105.799 201.627C105.997 201.994 106.264 202.276 106.602 202.474C106.946 202.672 107.324 202.771 107.735 202.771C108.16 202.771 108.541 202.676 108.879 202.485C109.216 202.287 109.48 202.005 109.671 201.638C109.869 201.264 109.968 200.832 109.968 200.34ZM117.6 200.043C117.6 200.307 117.592 200.509 117.578 200.648H112.595C112.617 201.103 112.727 201.492 112.925 201.814C113.123 202.137 113.383 202.383 113.706 202.551C114.028 202.713 114.38 202.793 114.762 202.793C115.26 202.793 115.678 202.672 116.016 202.43C116.36 202.188 116.588 201.862 116.698 201.451H117.512C117.365 202.038 117.05 202.518 116.566 202.892C116.089 203.259 115.488 203.442 114.762 203.442C114.197 203.442 113.691 203.318 113.244 203.068C112.796 202.812 112.444 202.452 112.188 201.99C111.938 201.521 111.814 200.975 111.814 200.351C111.814 199.728 111.938 199.182 112.188 198.712C112.437 198.243 112.785 197.884 113.233 197.634C113.68 197.385 114.19 197.26 114.762 197.26C115.334 197.26 115.832 197.385 116.258 197.634C116.69 197.884 117.02 198.221 117.248 198.646C117.482 199.064 117.6 199.53 117.6 200.043ZM116.819 200.021C116.826 199.574 116.734 199.193 116.544 198.877C116.36 198.562 116.107 198.324 115.785 198.162C115.462 198.001 115.11 197.92 114.729 197.92C114.157 197.92 113.669 198.104 113.266 198.47C112.862 198.837 112.639 199.354 112.595 200.021H116.819ZM121.076 203.442C120.387 203.442 119.822 203.285 119.382 202.969C118.95 202.647 118.708 202.21 118.656 201.66H119.448C119.485 201.998 119.643 202.273 119.921 202.485C120.207 202.691 120.589 202.793 121.065 202.793C121.483 202.793 121.81 202.694 122.044 202.496C122.286 202.298 122.407 202.053 122.407 201.759C122.407 201.554 122.341 201.385 122.209 201.253C122.077 201.121 121.909 201.019 121.703 200.945C121.505 200.865 121.234 200.78 120.889 200.692C120.442 200.575 120.079 200.458 119.8 200.34C119.522 200.223 119.283 200.051 119.085 199.823C118.895 199.589 118.799 199.277 118.799 198.888C118.799 198.595 118.887 198.324 119.063 198.074C119.239 197.825 119.489 197.627 119.811 197.48C120.134 197.334 120.501 197.26 120.911 197.26C121.557 197.26 122.077 197.425 122.473 197.755C122.869 198.078 123.082 198.525 123.111 199.097H122.341C122.319 198.745 122.18 198.463 121.923 198.25C121.674 198.03 121.329 197.92 120.889 197.92C120.501 197.92 120.185 198.012 119.943 198.195C119.701 198.379 119.58 198.606 119.58 198.877C119.58 199.112 119.65 199.306 119.789 199.46C119.936 199.607 120.116 199.724 120.328 199.812C120.541 199.893 120.827 199.985 121.186 200.087C121.619 200.205 121.964 200.318 122.22 200.428C122.477 200.538 122.697 200.7 122.88 200.912C123.064 201.125 123.159 201.407 123.166 201.759C123.166 202.082 123.078 202.372 122.902 202.628C122.726 202.878 122.481 203.076 122.165 203.222C121.85 203.369 121.487 203.442 121.076 203.442ZM125.617 197.997V201.726C125.617 202.093 125.687 202.346 125.826 202.485C125.965 202.625 126.211 202.694 126.563 202.694H127.267V203.354H126.442C125.899 203.354 125.496 203.23 125.232 202.98C124.968 202.724 124.836 202.306 124.836 201.726V197.997H124V197.348H124.836V195.841H125.617V197.348H127.267V197.997H125.617ZM132.314 198.668C132.505 198.265 132.806 197.931 133.216 197.667C133.634 197.396 134.129 197.26 134.701 197.26C135.244 197.26 135.732 197.389 136.164 197.645C136.604 197.895 136.945 198.254 137.187 198.723C137.437 199.185 137.561 199.724 137.561 200.34C137.561 200.956 137.437 201.499 137.187 201.968C136.945 202.438 136.604 202.801 136.164 203.057C135.732 203.314 135.244 203.442 134.701 203.442C134.137 203.442 133.645 203.31 133.227 203.046C132.809 202.775 132.505 202.438 132.314 202.034V206.192H131.555V197.348H132.314V198.668ZM136.78 200.34C136.78 199.842 136.681 199.413 136.483 199.053C136.293 198.687 136.029 198.408 135.691 198.217C135.354 198.027 134.973 197.931 134.547 197.931C134.137 197.931 133.759 198.03 133.414 198.228C133.077 198.426 132.809 198.709 132.611 199.075C132.413 199.442 132.314 199.867 132.314 200.351C132.314 200.835 132.413 201.261 132.611 201.627C132.809 201.994 133.077 202.276 133.414 202.474C133.759 202.672 134.137 202.771 134.547 202.771C134.973 202.771 135.354 202.676 135.691 202.485C136.029 202.287 136.293 202.005 136.483 201.638C136.681 201.264 136.78 200.832 136.78 200.34ZM139.748 195.214V203.354H138.978V195.214H139.748ZM141.14 200.34C141.14 199.724 141.261 199.185 141.503 198.723C141.752 198.254 142.093 197.895 142.526 197.645C142.966 197.389 143.461 197.26 144.011 197.26C144.583 197.26 145.074 197.392 145.485 197.656C145.903 197.92 146.203 198.258 146.387 198.668V197.348H147.157V203.354H146.387V202.023C146.196 202.434 145.892 202.775 145.474 203.046C145.063 203.31 144.572 203.442 144 203.442C143.457 203.442 142.966 203.314 142.526 203.057C142.093 202.801 141.752 202.438 141.503 201.968C141.261 201.499 141.14 200.956 141.14 200.34ZM146.387 200.351C146.387 199.867 146.288 199.442 146.09 199.075C145.892 198.709 145.62 198.426 145.276 198.228C144.938 198.03 144.564 197.931 144.154 197.931C143.728 197.931 143.347 198.027 143.01 198.217C142.672 198.408 142.405 198.687 142.207 199.053C142.016 199.413 141.921 199.842 141.921 200.34C141.921 200.832 142.016 201.264 142.207 201.638C142.405 202.005 142.672 202.287 143.01 202.485C143.347 202.676 143.728 202.771 144.154 202.771C144.564 202.771 144.938 202.672 145.276 202.474C145.62 202.276 145.892 201.994 146.09 201.627C146.288 201.261 146.387 200.835 146.387 200.351ZM148.563 200.351C148.563 199.728 148.687 199.185 148.937 198.723C149.186 198.254 149.531 197.895 149.971 197.645C150.411 197.389 150.913 197.26 151.478 197.26C152.218 197.26 152.827 197.444 153.304 197.81C153.788 198.177 154.099 198.676 154.239 199.306H153.414C153.311 198.874 153.087 198.536 152.743 198.294C152.405 198.045 151.984 197.92 151.478 197.92C151.074 197.92 150.711 198.012 150.389 198.195C150.066 198.379 149.809 198.654 149.619 199.02C149.435 199.38 149.344 199.823 149.344 200.351C149.344 200.879 149.435 201.327 149.619 201.693C149.809 202.06 150.066 202.335 150.389 202.518C150.711 202.702 151.074 202.793 151.478 202.793C151.984 202.793 152.405 202.672 152.743 202.43C153.087 202.181 153.311 201.836 153.414 201.396H154.239C154.099 202.012 153.788 202.507 153.304 202.881C152.82 203.255 152.211 203.442 151.478 203.442C150.913 203.442 150.411 203.318 149.971 203.068C149.531 202.812 149.186 202.452 148.937 201.99C148.687 201.521 148.563 200.975 148.563 200.351ZM161.095 200.043C161.095 200.307 161.087 200.509 161.073 200.648H156.09C156.112 201.103 156.222 201.492 156.42 201.814C156.618 202.137 156.878 202.383 157.201 202.551C157.523 202.713 157.875 202.793 158.257 202.793C158.755 202.793 159.173 202.672 159.511 202.43C159.855 202.188 160.083 201.862 160.193 201.451H161.007C160.86 202.038 160.545 202.518 160.061 202.892C159.584 203.259 158.983 203.442 158.257 203.442C157.692 203.442 157.186 203.318 156.739 203.068C156.291 202.812 155.939 202.452 155.683 201.99C155.433 201.521 155.309 200.975 155.309 200.351C155.309 199.728 155.433 199.182 155.683 198.712C155.932 198.243 156.28 197.884 156.728 197.634C157.175 197.385 157.685 197.26 158.257 197.26C158.829 197.26 159.327 197.385 159.753 197.634C160.185 197.884 160.515 198.221 160.743 198.646C160.977 199.064 161.095 199.53 161.095 200.043ZM160.314 200.021C160.321 199.574 160.229 199.193 160.039 198.877C159.855 198.562 159.602 198.324 159.28 198.162C158.957 198.001 158.605 197.92 158.224 197.92C157.652 197.92 157.164 198.104 156.761 198.47C156.357 198.837 156.134 199.354 156.09 200.021H160.314ZM164.572 203.442C163.882 203.442 163.318 203.285 162.878 202.969C162.445 202.647 162.203 202.21 162.152 201.66H162.944C162.98 201.998 163.138 202.273 163.417 202.485C163.703 202.691 164.084 202.793 164.561 202.793C164.979 202.793 165.305 202.694 165.54 202.496C165.782 202.298 165.903 202.053 165.903 201.759C165.903 201.554 165.837 201.385 165.705 201.253C165.573 201.121 165.404 201.019 165.199 200.945C165.001 200.865 164.729 200.78 164.385 200.692C163.937 200.575 163.574 200.458 163.296 200.34C163.017 200.223 162.779 200.051 162.581 199.823C162.39 199.589 162.295 199.277 162.295 198.888C162.295 198.595 162.383 198.324 162.559 198.074C162.735 197.825 162.984 197.627 163.307 197.48C163.629 197.334 163.996 197.26 164.407 197.26C165.052 197.26 165.573 197.425 165.969 197.755C166.365 198.078 166.577 198.525 166.607 199.097H165.837C165.815 198.745 165.675 198.463 165.419 198.25C165.169 198.03 164.825 197.92 164.385 197.92C163.996 197.92 163.681 198.012 163.439 198.195C163.197 198.379 163.076 198.606 163.076 198.877C163.076 199.112 163.145 199.306 163.285 199.46C163.431 199.607 163.611 199.724 163.824 199.812C164.036 199.893 164.322 199.985 164.682 200.087C165.114 200.205 165.459 200.318 165.716 200.428C165.972 200.538 166.192 200.7 166.376 200.912C166.559 201.125 166.654 201.407 166.662 201.759C166.662 202.082 166.574 202.372 166.398 202.628C166.222 202.878 165.976 203.076 165.661 203.222C165.345 203.369 164.982 203.442 164.572 203.442ZM173.495 197.997H172.098V203.354H171.328V197.997H170.492V197.348H171.328V196.93C171.328 196.278 171.493 195.797 171.823 195.489C172.16 195.181 172.703 195.027 173.451 195.027V195.687C172.952 195.687 172.6 195.783 172.395 195.973C172.197 196.164 172.098 196.483 172.098 196.93V197.348H173.495V197.997ZM177.336 203.442C176.771 203.442 176.261 203.318 175.807 203.068C175.359 202.812 175.004 202.452 174.74 201.99C174.483 201.521 174.355 200.975 174.355 200.351C174.355 199.728 174.487 199.185 174.751 198.723C175.015 198.254 175.374 197.895 175.829 197.645C176.283 197.389 176.793 197.26 177.358 197.26C177.922 197.26 178.432 197.389 178.887 197.645C179.349 197.895 179.708 198.254 179.965 198.723C180.229 199.185 180.361 199.728 180.361 200.351C180.361 200.967 180.229 201.51 179.965 201.979C179.701 202.449 179.338 202.812 178.876 203.068C178.414 203.318 177.9 203.442 177.336 203.442ZM177.336 202.771C177.732 202.771 178.098 202.683 178.436 202.507C178.773 202.324 179.044 202.053 179.25 201.693C179.462 201.327 179.569 200.879 179.569 200.351C179.569 199.823 179.466 199.38 179.261 199.02C179.055 198.654 178.784 198.382 178.447 198.206C178.109 198.023 177.743 197.931 177.347 197.931C176.951 197.931 176.584 198.023 176.247 198.206C175.909 198.382 175.638 198.654 175.433 199.02C175.235 199.38 175.136 199.823 175.136 200.351C175.136 200.879 175.235 201.327 175.433 201.693C175.638 202.053 175.906 202.324 176.236 202.507C176.573 202.683 176.94 202.771 177.336 202.771ZM182.534 198.415C182.703 198.041 182.96 197.752 183.304 197.546C183.656 197.341 184.085 197.238 184.591 197.238V198.041H184.382C183.825 198.041 183.378 198.192 183.04 198.492C182.703 198.793 182.534 199.295 182.534 199.999V203.354H181.764V197.348H182.534V198.415ZM193.718 197.348L190.154 206.181H189.351L190.517 203.321L188.053 197.348H188.9L190.946 202.474L192.926 197.348H193.718ZM197.391 203.442C196.827 203.442 196.317 203.318 195.862 203.068C195.415 202.812 195.059 202.452 194.795 201.99C194.539 201.521 194.41 200.975 194.41 200.351C194.41 199.728 194.542 199.185 194.806 198.723C195.07 198.254 195.43 197.895 195.884 197.645C196.339 197.389 196.849 197.26 197.413 197.26C197.978 197.26 198.488 197.389 198.942 197.645C199.404 197.895 199.764 198.254 200.02 198.723C200.284 199.185 200.416 199.728 200.416 200.351C200.416 200.967 200.284 201.51 200.02 201.979C199.756 202.449 199.393 202.812 198.931 203.068C198.469 203.318 197.956 203.442 197.391 203.442ZM197.391 202.771C197.787 202.771 198.154 202.683 198.491 202.507C198.829 202.324 199.1 202.053 199.305 201.693C199.518 201.327 199.624 200.879 199.624 200.351C199.624 199.823 199.522 199.38 199.316 199.02C199.111 198.654 198.84 198.382 198.502 198.206C198.165 198.023 197.798 197.931 197.402 197.931C197.006 197.931 196.64 198.023 196.302 198.206C195.965 198.382 195.694 198.654 195.488 199.02C195.29 199.38 195.191 199.823 195.191 200.351C195.191 200.879 195.29 201.327 195.488 201.693C195.694 202.053 195.961 202.324 196.291 202.507C196.629 202.683 196.995 202.771 197.391 202.771ZM207.023 197.348V203.354H206.253V202.298C206.077 202.672 205.806 202.958 205.439 203.156C205.072 203.354 204.662 203.453 204.207 203.453C203.488 203.453 202.902 203.233 202.447 202.793C201.992 202.346 201.765 201.701 201.765 200.857V197.348H202.524V200.769C202.524 201.422 202.685 201.921 203.008 202.265C203.338 202.61 203.785 202.782 204.35 202.782C204.929 202.782 205.391 202.599 205.736 202.232C206.081 201.866 206.253 201.327 206.253 200.615V197.348H207.023ZM209.551 198.415C209.72 198.041 209.976 197.752 210.321 197.546C210.673 197.341 211.102 197.238 211.608 197.238V198.041H211.399C210.842 198.041 210.394 198.192 210.057 198.492C209.72 198.793 209.551 199.295 209.551 199.999V203.354H208.781V197.348H209.551V198.415ZM216.786 197.997V201.726C216.786 202.093 216.855 202.346 216.995 202.485C217.134 202.625 217.38 202.694 217.732 202.694H218.436V203.354H217.611C217.068 203.354 216.665 203.23 216.401 202.98C216.137 202.724 216.005 202.306 216.005 201.726V197.997H215.169V197.348H216.005V195.841H216.786V197.348H218.436V197.997H216.786ZM220.476 198.415C220.644 198.041 220.901 197.752 221.246 197.546C221.598 197.341 222.027 197.238 222.533 197.238V198.041H222.324C221.766 198.041 221.319 198.192 220.982 198.492C220.644 198.793 220.476 199.295 220.476 199.999V203.354H219.706V197.348H220.476V198.415ZM224.076 196.215C223.922 196.215 223.79 196.16 223.68 196.05C223.57 195.94 223.515 195.805 223.515 195.643C223.515 195.482 223.57 195.35 223.68 195.247C223.79 195.137 223.922 195.082 224.076 195.082C224.23 195.082 224.362 195.137 224.472 195.247C224.582 195.35 224.637 195.482 224.637 195.643C224.637 195.805 224.582 195.94 224.472 196.05C224.362 196.16 224.23 196.215 224.076 196.215ZM224.461 197.348V203.354H223.691V197.348H224.461ZM226.964 198.668C227.154 198.265 227.455 197.931 227.866 197.667C228.284 197.396 228.779 197.26 229.351 197.26C229.893 197.26 230.381 197.389 230.814 197.645C231.254 197.895 231.595 198.254 231.837 198.723C232.086 199.185 232.211 199.724 232.211 200.34C232.211 200.956 232.086 201.499 231.837 201.968C231.595 202.438 231.254 202.801 230.814 203.057C230.381 203.314 229.893 203.442 229.351 203.442C228.786 203.442 228.295 203.31 227.877 203.046C227.459 202.775 227.154 202.438 226.964 202.034V206.192H226.205V197.348H226.964V198.668ZM231.43 200.34C231.43 199.842 231.331 199.413 231.133 199.053C230.942 198.687 230.678 198.408 230.341 198.217C230.003 198.027 229.622 197.931 229.197 197.931C228.786 197.931 228.408 198.03 228.064 198.228C227.726 198.426 227.459 198.709 227.261 199.075C227.063 199.442 226.964 199.867 226.964 200.351C226.964 200.835 227.063 201.261 227.261 201.627C227.459 201.994 227.726 202.276 228.064 202.474C228.408 202.672 228.786 202.771 229.197 202.771C229.622 202.771 230.003 202.676 230.341 202.485C230.678 202.287 230.942 202.005 231.133 201.638C231.331 201.264 231.43 200.832 231.43 200.34ZM234.332 202.078L233.188 204.96H232.66L233.474 202.078H234.332ZM239.317 196.292V199.163H242.232V199.801H239.317V202.716H242.562V203.354H238.547V195.654H242.562V196.292H239.317ZM243.728 200.34C243.728 199.724 243.849 199.185 244.091 198.723C244.34 198.254 244.681 197.895 245.114 197.645C245.554 197.389 246.049 197.26 246.599 197.26C247.171 197.26 247.662 197.392 248.073 197.656C248.491 197.92 248.791 198.258 248.975 198.668V197.348H249.745V203.354H248.975V202.023C248.784 202.434 248.48 202.775 248.062 203.046C247.651 203.31 247.16 203.442 246.588 203.442C246.045 203.442 245.554 203.314 245.114 203.057C244.681 202.801 244.34 202.438 244.091 201.968C243.849 201.499 243.728 200.956 243.728 200.34ZM248.975 200.351C248.975 199.867 248.876 199.442 248.678 199.075C248.48 198.709 248.208 198.426 247.864 198.228C247.526 198.03 247.152 197.931 246.742 197.931C246.316 197.931 245.935 198.027 245.598 198.217C245.26 198.408 244.993 198.687 244.795 199.053C244.604 199.413 244.509 199.842 244.509 200.34C244.509 200.832 244.604 201.264 244.795 201.638C244.993 202.005 245.26 202.287 245.598 202.485C245.935 202.676 246.316 202.771 246.742 202.771C247.152 202.771 247.526 202.672 247.864 202.474C248.208 202.276 248.48 201.994 248.678 201.627C248.876 201.261 248.975 200.835 248.975 200.351ZM253.571 203.442C252.881 203.442 252.317 203.285 251.877 202.969C251.444 202.647 251.202 202.21 251.151 201.66H251.943C251.979 201.998 252.137 202.273 252.416 202.485C252.702 202.691 253.083 202.793 253.56 202.793C253.978 202.793 254.304 202.694 254.539 202.496C254.781 202.298 254.902 202.053 254.902 201.759C254.902 201.554 254.836 201.385 254.704 201.253C254.572 201.121 254.403 201.019 254.198 200.945C254 200.865 253.728 200.78 253.384 200.692C252.936 200.575 252.573 200.458 252.295 200.34C252.016 200.223 251.778 200.051 251.58 199.823C251.389 199.589 251.294 199.277 251.294 198.888C251.294 198.595 251.382 198.324 251.558 198.074C251.734 197.825 251.983 197.627 252.306 197.48C252.628 197.334 252.995 197.26 253.406 197.26C254.051 197.26 254.572 197.425 254.968 197.755C255.364 198.078 255.576 198.525 255.606 199.097H254.836C254.814 198.745 254.674 198.463 254.418 198.25C254.168 198.03 253.824 197.92 253.384 197.92C252.995 197.92 252.68 198.012 252.438 198.195C252.196 198.379 252.075 198.606 252.075 198.877C252.075 199.112 252.144 199.306 252.284 199.46C252.43 199.607 252.61 199.724 252.823 199.812C253.035 199.893 253.321 199.985 253.681 200.087C254.113 200.205 254.458 200.318 254.715 200.428C254.971 200.538 255.191 200.7 255.375 200.912C255.558 201.125 255.653 201.407 255.661 201.759C255.661 202.082 255.573 202.372 255.397 202.628C255.221 202.878 254.975 203.076 254.66 203.222C254.344 203.369 253.981 203.442 253.571 203.442ZM262.06 197.348L258.496 206.181H257.693L258.859 203.321L256.395 197.348H257.242L259.288 202.474L261.268 197.348H262.06ZM267.124 197.997V201.726C267.124 202.093 267.193 202.346 267.333 202.485C267.472 202.625 267.718 202.694 268.07 202.694H268.774V203.354H267.949C267.406 203.354 267.003 203.23 266.739 202.98C266.475 202.724 266.343 202.306 266.343 201.726V197.997H265.507V197.348H266.343V195.841H267.124V197.348H268.774V197.997H267.124ZM272.673 203.442C272.108 203.442 271.598 203.318 271.144 203.068C270.696 202.812 270.341 202.452 270.077 201.99C269.82 201.521 269.692 200.975 269.692 200.351C269.692 199.728 269.824 199.185 270.088 198.723C270.352 198.254 270.711 197.895 271.166 197.645C271.62 197.389 272.13 197.26 272.695 197.26C273.259 197.26 273.769 197.389 274.224 197.645C274.686 197.895 275.045 198.254 275.302 198.723C275.566 199.185 275.698 199.728 275.698 200.351C275.698 200.967 275.566 201.51 275.302 201.979C275.038 202.449 274.675 202.812 274.213 203.068C273.751 203.318 273.237 203.442 272.673 203.442ZM272.673 202.771C273.069 202.771 273.435 202.683 273.773 202.507C274.11 202.324 274.381 202.053 274.587 201.693C274.799 201.327 274.906 200.879 274.906 200.351C274.906 199.823 274.803 199.38 274.598 199.02C274.392 198.654 274.121 198.382 273.784 198.206C273.446 198.023 273.08 197.931 272.684 197.931C272.288 197.931 271.921 198.023 271.584 198.206C271.246 198.382 270.975 198.654 270.77 199.02C270.572 199.38 270.473 199.823 270.473 200.351C270.473 200.879 270.572 201.327 270.77 201.693C270.975 202.053 271.243 202.324 271.573 202.507C271.91 202.683 272.277 202.771 272.673 202.771ZM92.1608 217.34C92.1608 216.724 92.2818 216.185 92.5238 215.723C92.7731 215.254 93.1141 214.895 93.5468 214.645C93.9868 214.389 94.4818 214.26 95.0318 214.26C95.6038 214.26 96.0951 214.392 96.5058 214.656C96.9238 214.92 97.2245 215.258 97.4078 215.668V214.348H98.1778V220.354H97.4078V219.023C97.2171 219.434 96.9128 219.775 96.4948 220.046C96.0841 220.31 95.5928 220.442 95.0208 220.442C94.4781 220.442 93.9868 220.314 93.5468 220.057C93.1141 219.801 92.7731 219.438 92.5238 218.968C92.2818 218.499 92.1608 217.956 92.1608 217.34ZM97.4078 217.351C97.4078 216.867 97.3088 216.442 97.1108 216.075C96.9128 215.709 96.6415 215.426 96.2968 215.228C95.9595 215.03 95.5855 214.931 95.1748 214.931C94.7495 214.931 94.3681 215.027 94.0308 215.217C93.6935 215.408 93.4258 215.687 93.2278 216.053C93.0371 216.413 92.9418 216.842 92.9418 217.34C92.9418 217.832 93.0371 218.264 93.2278 218.638C93.4258 219.005 93.6935 219.287 94.0308 219.485C94.3681 219.676 94.7495 219.771 95.1748 219.771C95.5855 219.771 95.9595 219.672 96.2968 219.474C96.6415 219.276 96.9128 218.994 97.1108 218.627C97.3088 218.261 97.4078 217.835 97.4078 217.351ZM99.5837 217.34C99.5837 216.724 99.7083 216.185 99.9577 215.723C100.207 215.254 100.548 214.895 100.981 214.645C101.421 214.389 101.916 214.26 102.466 214.26C102.994 214.26 103.47 214.389 103.896 214.645C104.321 214.902 104.633 215.236 104.831 215.646V212.214H105.601V220.354H104.831V219.012C104.647 219.43 104.347 219.775 103.929 220.046C103.511 220.31 103.019 220.442 102.455 220.442C101.905 220.442 101.41 220.314 100.97 220.057C100.537 219.801 100.196 219.438 99.9467 218.968C99.7047 218.499 99.5837 217.956 99.5837 217.34ZM104.831 217.351C104.831 216.867 104.732 216.442 104.534 216.075C104.336 215.709 104.064 215.426 103.72 215.228C103.382 215.03 103.008 214.931 102.598 214.931C102.172 214.931 101.791 215.027 101.454 215.217C101.116 215.408 100.849 215.687 100.651 216.053C100.46 216.413 100.365 216.842 100.365 217.34C100.365 217.832 100.46 218.264 100.651 218.638C100.849 219.005 101.116 219.287 101.454 219.485C101.791 219.676 102.172 219.771 102.598 219.771C103.008 219.771 103.382 219.672 103.72 219.474C104.064 219.276 104.336 218.994 104.534 218.627C104.732 218.261 104.831 217.835 104.831 217.351ZM107.007 217.34C107.007 216.724 107.131 216.185 107.381 215.723C107.63 215.254 107.971 214.895 108.404 214.645C108.844 214.389 109.339 214.26 109.889 214.26C110.417 214.26 110.893 214.389 111.319 214.645C111.744 214.902 112.056 215.236 112.254 215.646V212.214H113.024V220.354H112.254V219.012C112.07 219.43 111.77 219.775 111.352 220.046C110.934 220.31 110.442 220.442 109.878 220.442C109.328 220.442 108.833 220.314 108.393 220.057C107.96 219.801 107.619 219.438 107.37 218.968C107.128 218.499 107.007 217.956 107.007 217.34ZM112.254 217.351C112.254 216.867 112.155 216.442 111.957 216.075C111.759 215.709 111.487 215.426 111.143 215.228C110.805 215.03 110.431 214.931 110.021 214.931C109.595 214.931 109.214 215.027 108.877 215.217C108.539 215.408 108.272 215.687 108.074 216.053C107.883 216.413 107.788 216.842 107.788 217.34C107.788 217.832 107.883 218.264 108.074 218.638C108.272 219.005 108.539 219.287 108.877 219.485C109.214 219.676 109.595 219.771 110.021 219.771C110.431 219.771 110.805 219.672 111.143 219.474C111.487 219.276 111.759 218.994 111.957 218.627C112.155 218.261 112.254 217.835 112.254 217.351ZM122.75 214.348L119.186 223.181H118.383L119.549 220.321L117.085 214.348H117.932L119.978 219.474L121.958 214.348H122.75ZM126.423 220.442C125.858 220.442 125.349 220.318 124.894 220.068C124.447 219.812 124.091 219.452 123.827 218.99C123.57 218.521 123.442 217.975 123.442 217.351C123.442 216.728 123.574 216.185 123.838 215.723C124.102 215.254 124.461 214.895 124.916 214.645C125.371 214.389 125.88 214.26 126.445 214.26C127.01 214.26 127.519 214.389 127.974 214.645C128.436 214.895 128.795 215.254 129.052 215.723C129.316 216.185 129.448 216.728 129.448 217.351C129.448 217.967 129.316 218.51 129.052 218.979C128.788 219.449 128.425 219.812 127.963 220.068C127.501 220.318 126.988 220.442 126.423 220.442ZM126.423 219.771C126.819 219.771 127.186 219.683 127.523 219.507C127.86 219.324 128.132 219.053 128.337 218.693C128.55 218.327 128.656 217.879 128.656 217.351C128.656 216.823 128.553 216.38 128.348 216.02C128.143 215.654 127.871 215.382 127.534 215.206C127.197 215.023 126.83 214.931 126.434 214.931C126.038 214.931 125.671 215.023 125.334 215.206C124.997 215.382 124.725 215.654 124.52 216.02C124.322 216.38 124.223 216.823 124.223 217.351C124.223 217.879 124.322 218.327 124.52 218.693C124.725 219.053 124.993 219.324 125.323 219.507C125.66 219.683 126.027 219.771 126.423 219.771ZM136.055 214.348V220.354H135.285V219.298C135.109 219.672 134.837 219.958 134.471 220.156C134.104 220.354 133.693 220.453 133.239 220.453C132.52 220.453 131.933 220.233 131.479 219.793C131.024 219.346 130.797 218.701 130.797 217.857V214.348H131.556V217.769C131.556 218.422 131.717 218.921 132.04 219.265C132.37 219.61 132.817 219.782 133.382 219.782C133.961 219.782 134.423 219.599 134.768 219.232C135.112 218.866 135.285 218.327 135.285 217.615V214.348H136.055ZM138.583 215.415C138.751 215.041 139.008 214.752 139.353 214.546C139.705 214.341 140.134 214.238 140.64 214.238V215.041H140.431C139.873 215.041 139.426 215.192 139.089 215.492C138.751 215.793 138.583 216.295 138.583 216.999V220.354H137.813V214.348H138.583V215.415ZM145.576 215.668C145.766 215.265 146.067 214.931 146.478 214.667C146.896 214.396 147.391 214.26 147.963 214.26C148.505 214.26 148.993 214.389 149.426 214.645C149.866 214.895 150.207 215.254 150.449 215.723C150.698 216.185 150.823 216.724 150.823 217.34C150.823 217.956 150.698 218.499 150.449 218.968C150.207 219.438 149.866 219.801 149.426 220.057C148.993 220.314 148.505 220.442 147.963 220.442C147.398 220.442 146.907 220.31 146.489 220.046C146.071 219.775 145.766 219.438 145.576 219.034V223.192H144.817V214.348H145.576V215.668ZM150.042 217.34C150.042 216.842 149.943 216.413 149.745 216.053C149.554 215.687 149.29 215.408 148.953 215.217C148.615 215.027 148.234 214.931 147.809 214.931C147.398 214.931 147.02 215.03 146.676 215.228C146.338 215.426 146.071 215.709 145.873 216.075C145.675 216.442 145.576 216.867 145.576 217.351C145.576 217.835 145.675 218.261 145.873 218.627C146.071 218.994 146.338 219.276 146.676 219.474C147.02 219.672 147.398 219.771 147.809 219.771C148.234 219.771 148.615 219.676 148.953 219.485C149.29 219.287 149.554 219.005 149.745 218.638C149.943 218.264 150.042 217.832 150.042 217.34ZM153.009 212.214V220.354H152.239V212.214H153.009ZM154.401 217.34C154.401 216.724 154.522 216.185 154.764 215.723C155.013 215.254 155.354 214.895 155.787 214.645C156.227 214.389 156.722 214.26 157.272 214.26C157.844 214.26 158.335 214.392 158.746 214.656C159.164 214.92 159.465 215.258 159.648 215.668V214.348H160.418V220.354H159.648V219.023C159.457 219.434 159.153 219.775 158.735 220.046C158.324 220.31 157.833 220.442 157.261 220.442C156.718 220.442 156.227 220.314 155.787 220.057C155.354 219.801 155.013 219.438 154.764 218.968C154.522 218.499 154.401 217.956 154.401 217.34ZM159.648 217.351C159.648 216.867 159.549 216.442 159.351 216.075C159.153 215.709 158.882 215.426 158.537 215.228C158.2 215.03 157.826 214.931 157.415 214.931C156.99 214.931 156.608 215.027 156.271 215.217C155.934 215.408 155.666 215.687 155.468 216.053C155.277 216.413 155.182 216.842 155.182 217.34C155.182 217.832 155.277 218.264 155.468 218.638C155.666 219.005 155.934 219.287 156.271 219.485C156.608 219.676 156.99 219.771 157.415 219.771C157.826 219.771 158.2 219.672 158.537 219.474C158.882 219.276 159.153 218.994 159.351 218.627C159.549 218.261 159.648 217.835 159.648 217.351ZM161.824 217.351C161.824 216.728 161.949 216.185 162.198 215.723C162.447 215.254 162.792 214.895 163.232 214.645C163.672 214.389 164.174 214.26 164.739 214.26C165.48 214.26 166.088 214.444 166.565 214.81C167.049 215.177 167.361 215.676 167.5 216.306H166.675C166.572 215.874 166.349 215.536 166.004 215.294C165.667 215.045 165.245 214.92 164.739 214.92C164.336 214.92 163.973 215.012 163.65 215.195C163.327 215.379 163.071 215.654 162.88 216.02C162.697 216.38 162.605 216.823 162.605 217.351C162.605 217.879 162.697 218.327 162.88 218.693C163.071 219.06 163.327 219.335 163.65 219.518C163.973 219.702 164.336 219.793 164.739 219.793C165.245 219.793 165.667 219.672 166.004 219.43C166.349 219.181 166.572 218.836 166.675 218.396H167.5C167.361 219.012 167.049 219.507 166.565 219.881C166.081 220.255 165.472 220.442 164.739 220.442C164.174 220.442 163.672 220.318 163.232 220.068C162.792 219.812 162.447 219.452 162.198 218.99C161.949 218.521 161.824 217.975 161.824 217.351ZM174.356 217.043C174.356 217.307 174.349 217.509 174.334 217.648H169.351C169.373 218.103 169.483 218.492 169.681 218.814C169.879 219.137 170.139 219.383 170.462 219.551C170.785 219.713 171.137 219.793 171.518 219.793C172.017 219.793 172.435 219.672 172.772 219.43C173.117 219.188 173.344 218.862 173.454 218.451H174.268C174.121 219.038 173.806 219.518 173.322 219.892C172.845 220.259 172.244 220.442 171.518 220.442C170.953 220.442 170.447 220.318 170 220.068C169.553 219.812 169.201 219.452 168.944 218.99C168.695 218.521 168.57 217.975 168.57 217.351C168.57 216.728 168.695 216.182 168.944 215.712C169.193 215.243 169.542 214.884 169.989 214.634C170.436 214.385 170.946 214.26 171.518 214.26C172.09 214.26 172.589 214.385 173.014 214.634C173.447 214.884 173.777 215.221 174.004 215.646C174.239 216.064 174.356 216.53 174.356 217.043ZM173.575 217.021C173.582 216.574 173.491 216.193 173.3 215.877C173.117 215.562 172.864 215.324 172.541 215.162C172.218 215.001 171.866 214.92 171.485 214.92C170.913 214.92 170.425 215.104 170.022 215.47C169.619 215.837 169.395 216.354 169.351 217.021H173.575ZM177.833 220.442C177.143 220.442 176.579 220.285 176.139 219.969C175.706 219.647 175.464 219.21 175.413 218.66H176.205C176.241 218.998 176.399 219.273 176.678 219.485C176.964 219.691 177.345 219.793 177.822 219.793C178.24 219.793 178.566 219.694 178.801 219.496C179.043 219.298 179.164 219.053 179.164 218.759C179.164 218.554 179.098 218.385 178.966 218.253C178.834 218.121 178.665 218.019 178.46 217.945C178.262 217.865 177.99 217.78 177.646 217.692C177.198 217.575 176.835 217.458 176.557 217.34C176.278 217.223 176.04 217.051 175.842 216.823C175.651 216.589 175.556 216.277 175.556 215.888C175.556 215.595 175.644 215.324 175.82 215.074C175.996 214.825 176.245 214.627 176.568 214.48C176.89 214.334 177.257 214.26 177.668 214.26C178.313 214.26 178.834 214.425 179.23 214.755C179.626 215.078 179.838 215.525 179.868 216.097H179.098C179.076 215.745 178.936 215.463 178.68 215.25C178.43 215.03 178.086 214.92 177.646 214.92C177.257 214.92 176.942 215.012 176.7 215.195C176.458 215.379 176.337 215.606 176.337 215.877C176.337 216.112 176.406 216.306 176.546 216.46C176.692 216.607 176.872 216.724 177.085 216.812C177.297 216.893 177.583 216.985 177.943 217.087C178.375 217.205 178.72 217.318 178.977 217.428C179.233 217.538 179.453 217.7 179.637 217.912C179.82 218.125 179.915 218.407 179.923 218.759C179.923 219.082 179.835 219.372 179.659 219.628C179.483 219.878 179.237 220.076 178.922 220.222C178.606 220.369 178.243 220.442 177.833 220.442ZM185.392 214.997V218.726C185.392 219.093 185.461 219.346 185.601 219.485C185.74 219.625 185.986 219.694 186.338 219.694H187.042V220.354H186.217C185.674 220.354 185.271 220.23 185.007 219.98C184.743 219.724 184.611 219.306 184.611 218.726V214.997H183.775V214.348H184.611V212.841H185.392V214.348H187.042V214.997H185.392ZM190.941 220.442C190.376 220.442 189.866 220.318 189.412 220.068C188.964 219.812 188.609 219.452 188.345 218.99C188.088 218.521 187.96 217.975 187.96 217.351C187.96 216.728 188.092 216.185 188.356 215.723C188.62 215.254 188.979 214.895 189.434 214.645C189.888 214.389 190.398 214.26 190.963 214.26C191.527 214.26 192.037 214.389 192.492 214.645C192.954 214.895 193.313 215.254 193.57 215.723C193.834 216.185 193.966 216.728 193.966 217.351C193.966 217.967 193.834 218.51 193.57 218.979C193.306 219.449 192.943 219.812 192.481 220.068C192.019 220.318 191.505 220.442 190.941 220.442ZM190.941 219.771C191.337 219.771 191.703 219.683 192.041 219.507C192.378 219.324 192.649 219.053 192.855 218.693C193.067 218.327 193.174 217.879 193.174 217.351C193.174 216.823 193.071 216.38 192.866 216.02C192.66 215.654 192.389 215.382 192.052 215.206C191.714 215.023 191.348 214.931 190.952 214.931C190.556 214.931 190.189 215.023 189.852 215.206C189.514 215.382 189.243 215.654 189.038 216.02C188.84 216.38 188.741 216.823 188.741 217.351C188.741 217.879 188.84 218.327 189.038 218.693C189.243 219.053 189.511 219.324 189.841 219.507C190.178 219.683 190.545 219.771 190.941 219.771ZM203.338 214.348L199.774 223.181H198.971L200.137 220.321L197.673 214.348H198.52L200.566 219.474L202.546 214.348H203.338ZM207.011 220.442C206.446 220.442 205.937 220.318 205.482 220.068C205.035 219.812 204.679 219.452 204.415 218.99C204.158 218.521 204.03 217.975 204.03 217.351C204.03 216.728 204.162 216.185 204.426 215.723C204.69 215.254 205.049 214.895 205.504 214.645C205.959 214.389 206.468 214.26 207.033 214.26C207.598 214.26 208.107 214.389 208.562 214.645C209.024 214.895 209.383 215.254 209.64 215.723C209.904 216.185 210.036 216.728 210.036 217.351C210.036 217.967 209.904 218.51 209.64 218.979C209.376 219.449 209.013 219.812 208.551 220.068C208.089 220.318 207.576 220.442 207.011 220.442ZM207.011 219.771C207.407 219.771 207.774 219.683 208.111 219.507C208.448 219.324 208.72 219.053 208.925 218.693C209.138 218.327 209.244 217.879 209.244 217.351C209.244 216.823 209.141 216.38 208.936 216.02C208.731 215.654 208.459 215.382 208.122 215.206C207.785 215.023 207.418 214.931 207.022 214.931C206.626 214.931 206.259 215.023 205.922 215.206C205.585 215.382 205.313 215.654 205.108 216.02C204.91 216.38 204.811 216.823 204.811 217.351C204.811 217.879 204.91 218.327 205.108 218.693C205.313 219.053 205.581 219.324 205.911 219.507C206.248 219.683 206.615 219.771 207.011 219.771ZM216.643 214.348V220.354H215.873V219.298C215.697 219.672 215.425 219.958 215.059 220.156C214.692 220.354 214.281 220.453 213.827 220.453C213.108 220.453 212.521 220.233 212.067 219.793C211.612 219.346 211.385 218.701 211.385 217.857V214.348H212.144V217.769C212.144 218.422 212.305 218.921 212.628 219.265C212.958 219.61 213.405 219.782 213.97 219.782C214.549 219.782 215.011 219.599 215.356 219.232C215.7 218.866 215.873 218.327 215.873 217.615V214.348H216.643ZM219.171 215.415C219.339 215.041 219.596 214.752 219.941 214.546C220.293 214.341 220.722 214.238 221.228 214.238V215.041H221.019C220.461 215.041 220.014 215.192 219.677 215.492C219.339 215.793 219.171 216.295 219.171 216.999V220.354H218.401V214.348H219.171V215.415ZM226.405 214.997V218.726C226.405 219.093 226.475 219.346 226.614 219.485C226.754 219.625 226.999 219.694 227.351 219.694H228.055V220.354H227.23C226.688 220.354 226.284 220.23 226.02 219.98C225.756 219.724 225.624 219.306 225.624 218.726V214.997H224.788V214.348H225.624V212.841H226.405V214.348H228.055V214.997H226.405ZM230.095 215.415C230.264 215.041 230.521 214.752 230.865 214.546C231.217 214.341 231.646 214.238 232.152 214.238V215.041H231.943C231.386 215.041 230.939 215.192 230.601 215.492C230.264 215.793 230.095 216.295 230.095 216.999V220.354H229.325V214.348H230.095V215.415ZM233.696 213.215C233.542 213.215 233.41 213.16 233.3 213.05C233.19 212.94 233.135 212.805 233.135 212.643C233.135 212.482 233.19 212.35 233.3 212.247C233.41 212.137 233.542 212.082 233.696 212.082C233.85 212.082 233.982 212.137 234.092 212.247C234.202 212.35 234.257 212.482 234.257 212.643C234.257 212.805 234.202 212.94 234.092 213.05C233.982 213.16 233.85 213.215 233.696 213.215ZM234.081 214.348V220.354H233.311V214.348H234.081ZM236.583 215.668C236.774 215.265 237.075 214.931 237.485 214.667C237.903 214.396 238.398 214.26 238.97 214.26C239.513 214.26 240.001 214.389 240.433 214.645C240.873 214.895 241.214 215.254 241.456 215.723C241.706 216.185 241.83 216.724 241.83 217.34C241.83 217.956 241.706 218.499 241.456 218.968C241.214 219.438 240.873 219.801 240.433 220.057C240.001 220.314 239.513 220.442 238.97 220.442C238.406 220.442 237.914 220.31 237.496 220.046C237.078 219.775 236.774 219.438 236.583 219.034V223.192H235.824V214.348H236.583V215.668ZM241.049 217.34C241.049 216.842 240.95 216.413 240.752 216.053C240.562 215.687 240.298 215.408 239.96 215.217C239.623 215.027 239.242 214.931 238.816 214.931C238.406 214.931 238.028 215.03 237.683 215.228C237.346 215.426 237.078 215.709 236.88 216.075C236.682 216.442 236.583 216.867 236.583 217.351C236.583 217.835 236.682 218.261 236.88 218.627C237.078 218.994 237.346 219.276 237.683 219.474C238.028 219.672 238.406 219.771 238.816 219.771C239.242 219.771 239.623 219.676 239.96 219.485C240.298 219.287 240.562 219.005 240.752 218.638C240.95 218.264 241.049 217.832 241.049 217.34Z" fill="black"/>
<g filter="url(#filter1_d_15_780)">
<rect x="76.5" y="70.5" width="221" height="57.7081" rx="10.5" fill="#E2E2E2" stroke="#404E4D" stroke-linecap="round" stroke-dasharray="3 7"/>
<rect x="247.124" y="77.8323" width="43.0435" height="43.0435" rx="10" fill="#166678"/>
<g clip-path="url(#clip0_15_780)">
<path d="M269.964 93.937C269.964 93.3971 269.527 92.9609 268.988 92.9609C268.448 92.9609 268.012 93.3971 268.012 93.937V98.3292H263.619C263.079 98.3292 262.643 98.7653 262.643 99.3052C262.643 99.8451 263.079 100.281 263.619 100.281H268.012V104.673C268.012 105.213 268.448 105.649 268.988 105.649C269.527 105.649 269.964 105.213 269.964 104.673V100.281H274.356C274.896 100.281 275.332 99.8451 275.332 99.3052C275.332 98.7653 274.896 98.3292 274.356 98.3292H269.964V93.937Z" fill="#F5F5F5"/>
</g>
<rect x="83.8323" y="77.8323" width="45.0932" height="43.0435" rx="10" fill="#D9D9D9"/>
<circle cx="114.919" cy="99.354" r="9.90683" fill="#BCC8C7"/>
<path d="M87.7709 120.876H110.684H115.968H124.62C127.002 120.876 128.925 118.974 128.925 116.636C128.925 115.859 128.707 115.096 128.298 114.429L118.998 99.4202C118.709 98.9553 118.202 98.6708 117.652 98.6708C117.103 98.6708 116.595 98.9553 116.306 99.4133L112.91 104.895L104.04 90.9685C103.575 90.2329 102.75 89.7888 101.87 89.7888C100.989 89.7888 100.172 90.2329 99.6994 90.9685L84.4382 114.936C84.0436 115.554 83.8323 116.268 83.8323 116.997C83.8323 119.141 85.5937 120.876 87.7709 120.876Z" fill="#A5B5B4"/>
<rect x="137.124" y="86.0311" width="62.8571" height="5.46584" rx="2.73292" fill="#A5B5B4"/>
<rect x="137.124" y="96.9627" width="81.3043" height="5.46584" rx="2.73292" fill="#A5B5B4"/>
<rect x="137.124" y="107.894" width="62.8571" height="5.46584" rx="2.73292" fill="#A5B5B4"/>
</g>
<g filter="url(#filter2_d_15_780)">
<rect x="36.5" y="34.5" width="190.036" height="49.7267" rx="10.5" fill="#E2E2E2" stroke="#404E4D" stroke-linecap="round" stroke-dasharray="3 7"/>
<rect x="183.18" y="40.8707" width="36.9853" height="36.9853" rx="10" fill="#166678"/>
<g clip-path="url(#clip1_15_780)">
<path d="M202.805 54.7087C202.805 54.2448 202.43 53.87 201.966 53.87C201.502 53.87 201.128 54.2448 201.128 54.7087V58.4827H197.354C196.89 58.4827 196.515 58.8575 196.515 59.3213C196.515 59.7852 196.89 60.16 197.354 60.16H201.128V63.934C201.128 64.3979 201.502 64.7727 201.966 64.7727C202.43 64.7727 202.805 64.3979 202.805 63.934V60.16H206.579C207.043 60.16 207.418 59.7852 207.418 59.3213C207.418 58.8575 207.043 58.4827 206.579 58.4827H202.805V54.7087Z" fill="#F5F5F5"/>
</g>
<rect x="42.8707" y="40.8707" width="38.7465" height="36.9853" rx="10" fill="#D9D9D9"/>
<circle cx="69.5823" cy="59.3634" r="8.5125" fill="#BCC8C7"/>
<path d="M46.2549 77.856H65.943H70.4836H77.9181C79.9644 77.856 81.6172 76.2223 81.6172 74.2129C81.6172 73.5451 81.4295 72.8893 81.0784 72.3169L73.0869 59.4202C72.8387 59.0207 72.4028 58.7762 71.9306 58.7762C71.4583 58.7762 71.0224 59.0207 70.7742 59.4142L67.8561 64.1245L60.234 52.158C59.8344 51.5259 59.1261 51.1443 58.3693 51.1443C57.6125 51.1443 56.9102 51.5259 56.5046 52.158L43.3913 72.7521C43.0523 73.2828 42.8707 73.8969 42.8707 74.523C42.8707 76.3654 44.3842 77.856 46.2549 77.856Z" fill="#A5B5B4"/>
<rect x="88.662" y="47.9155" width="54.0103" height="4.69655" rx="2.34828" fill="#A5B5B4"/>
<rect x="88.662" y="57.3086" width="69.8612" height="4.69655" rx="2.34828" fill="#A5B5B4"/>
<rect x="88.662" y="66.7017" width="54.0103" height="4.69655" rx="2.34828" fill="#A5B5B4"/>
</g>
<defs>
<filter id="filter0_d_15_780" x="0" y="0" width="334" height="264" filterUnits="userSpaceOnUse" color-interpolation-filters="sRGB">
<feFlood flood-opacity="0" result="BackgroundImageFix"/>
<feColorMatrix in="SourceAlpha" type="matrix" values="0 0 0 0 0 0 0 0 0 0 0 0 0 0 0 0 0 0 127 0" result="hardAlpha"/>
<feMorphology radius="2" operator="dilate" in="SourceAlpha" result="effect1_dropShadow_15_780"/>
<feOffset dy="2"/>
<feGaussianBlur stdDeviation="5"/>
<feComposite in2="hardAlpha" operator="out"/>
<feColorMatrix type="matrix" values="0 0 0 0 0 0 0 0 0 0 0 0 0 0 0 0 0 0 0.15 0"/>
<feBlend mode="normal" in2="BackgroundImageFix" result="effect1_dropShadow_15_780"/>
<feBlend mode="normal" in="SourceGraphic" in2="effect1_dropShadow_15_780" result="shape"/>
</filter>
<filter id="filter1_d_15_780" x="72" y="70" width="230" height="66.7081" filterUnits="userSpaceOnUse" color-interpolation-filters="sRGB">
<feFlood flood-opacity="0" result="BackgroundImageFix"/>
<feColorMatrix in="SourceAlpha" type="matrix" values="0 0 0 0 0 0 0 0 0 0 0 0 0 0 0 0 0 0 127 0" result="hardAlpha"/>
<feOffset dy="4"/>
<feGaussianBlur stdDeviation="2"/>
<feComposite in2="hardAlpha" operator="out"/>
<feColorMatrix type="matrix" values="0 0 0 0 0 0 0 0 0 0 0 0 0 0 0 0 0 0 0.25 0"/>
<feBlend mode="normal" in2="BackgroundImageFix" result="effect1_dropShadow_15_780"/>
<feBlend mode="normal" in="SourceGraphic" in2="effect1_dropShadow_15_780" result="shape"/>
</filter>
<filter id="filter2_d_15_780" x="32" y="34" width="199.036" height="58.7267" filterUnits="userSpaceOnUse" color-interpolation-filters="sRGB">
<feFlood flood-opacity="0" result="BackgroundImageFix"/>
<feColorMatrix in="SourceAlpha" type="matrix" values="0 0 0 0 0 0 0 0 0 0 0 0 0 0 0 0 0 0 127 0" result="hardAlpha"/>
<feOffset dy="4"/>
<feGaussianBlur stdDeviation="2"/>
<feComposite in2="hardAlpha" operator="out"/>
<feColorMatrix type="matrix" values="0 0 0 0 0 0 0 0 0 0 0 0 0 0 0 0 0 0 0.25 0"/>
<feBlend mode="normal" in2="BackgroundImageFix" result="effect1_dropShadow_15_780"/>
<feBlend mode="normal" in="SourceGraphic" in2="effect1_dropShadow_15_780" result="shape"/>
</filter>
<clipPath id="clip0_15_780">
<rect width="13.6646" height="15.6167" fill="white" transform="translate(262.155 91.4969)"/>
</clipPath>
<clipPath id="clip1_15_780">
<rect width="11.7414" height="13.4187" fill="white" transform="translate(196.096 52.612)"/>
</clipPath>
</defs>
</svg>
