<svg width="334" height="264" viewBox="0 0 334 264" fill="none" xmlns="http://www.w3.org/2000/svg">
<g filter="url(#filter0_d_15_813)">
<rect x="12" y="10" width="310" height="240" rx="10" fill="white"/>
</g>
<path d="M98.1911 169.997C98.7884 170.103 99.2951 170.418 99.7111 170.941C100.127 171.463 100.335 172.055 100.335 172.717C100.335 173.282 100.186 173.794 99.8871 174.253C99.5991 174.701 99.1777 175.058 98.6231 175.325C98.0684 175.581 97.4231 175.709 96.6871 175.709H92.2391V164.589H96.4791C97.2364 164.589 97.8871 164.717 98.4311 164.973C98.9751 165.229 99.3857 165.575 99.6631 166.013C99.9404 166.439 100.079 166.919 100.079 167.453C100.079 168.093 99.9084 168.626 99.5671 169.053C99.2257 169.479 98.7671 169.794 98.1911 169.997ZM94.0631 169.261H96.3191C96.9164 169.261 97.3804 169.127 97.7111 168.861C98.0524 168.583 98.2231 168.189 98.2231 167.677C98.2231 167.175 98.0524 166.786 97.7111 166.509C97.3804 166.221 96.9164 166.077 96.3191 166.077H94.0631V169.261ZM96.5271 174.221C97.1457 174.221 97.6311 174.071 97.9831 173.773C98.3351 173.474 98.5111 173.058 98.5111 172.525C98.5111 171.981 98.3244 171.549 97.9511 171.229C97.5777 170.909 97.0817 170.749 96.4631 170.749H94.0631V174.221H96.5271ZM110.301 166.893V175.709H108.477V174.669C108.189 175.031 107.811 175.319 107.341 175.533C106.883 175.735 106.392 175.837 105.869 175.837C105.176 175.837 104.552 175.693 103.997 175.405C103.453 175.117 103.021 174.69 102.701 174.125C102.392 173.559 102.237 172.877 102.237 172.077V166.893H104.045V171.805C104.045 172.594 104.243 173.202 104.637 173.629C105.032 174.045 105.571 174.253 106.253 174.253C106.936 174.253 107.475 174.045 107.869 173.629C108.275 173.202 108.477 172.594 108.477 171.805V166.893H110.301ZM112.1 171.261C112.1 170.375 112.281 169.591 112.644 168.909C113.017 168.226 113.518 167.698 114.148 167.325C114.788 166.941 115.497 166.749 116.276 166.749C116.852 166.749 117.417 166.877 117.972 167.133C118.537 167.378 118.985 167.709 119.316 168.125V163.869H121.156V175.709H119.316V174.381C119.017 174.807 118.601 175.159 118.068 175.437C117.545 175.714 116.942 175.853 116.26 175.853C115.492 175.853 114.788 175.661 114.148 175.277C113.518 174.882 113.017 174.338 112.644 173.645C112.281 172.941 112.1 172.146 112.1 171.261ZM119.316 171.293C119.316 170.685 119.188 170.157 118.932 169.709C118.686 169.261 118.361 168.919 117.956 168.685C117.55 168.45 117.113 168.333 116.644 168.333C116.174 168.333 115.737 168.45 115.332 168.685C114.926 168.909 114.596 169.245 114.34 169.693C114.094 170.13 113.972 170.653 113.972 171.261C113.972 171.869 114.094 172.402 114.34 172.861C114.596 173.319 114.926 173.671 115.332 173.917C115.748 174.151 116.185 174.269 116.644 174.269C117.113 174.269 117.55 174.151 117.956 173.917C118.361 173.682 118.686 173.341 118.932 172.893C119.188 172.434 119.316 171.901 119.316 171.293ZM127.104 166.749C127.786 166.749 128.389 166.887 128.912 167.165C129.445 167.431 129.861 167.767 130.16 168.173V166.893H132V175.853C132 176.663 131.829 177.383 131.488 178.013C131.146 178.653 130.65 179.154 130 179.517C129.36 179.879 128.592 180.061 127.696 180.061C126.501 180.061 125.509 179.778 124.72 179.213C123.93 178.658 123.482 177.901 123.376 176.941H125.184C125.322 177.399 125.616 177.767 126.064 178.045C126.522 178.333 127.066 178.477 127.696 178.477C128.432 178.477 129.024 178.253 129.472 177.805C129.93 177.357 130.16 176.706 130.16 175.853V174.381C129.85 174.797 129.429 175.149 128.896 175.437C128.373 175.714 127.776 175.853 127.104 175.853C126.336 175.853 125.632 175.661 124.992 175.277C124.362 174.882 123.861 174.338 123.488 173.645C123.125 172.941 122.944 172.146 122.944 171.261C122.944 170.375 123.125 169.591 123.488 168.909C123.861 168.226 124.362 167.698 124.992 167.325C125.632 166.941 126.336 166.749 127.104 166.749ZM130.16 171.293C130.16 170.685 130.032 170.157 129.776 169.709C129.53 169.261 129.205 168.919 128.8 168.685C128.394 168.45 127.957 168.333 127.488 168.333C127.018 168.333 126.581 168.45 126.176 168.685C125.77 168.909 125.44 169.245 125.184 169.693C124.938 170.13 124.816 170.653 124.816 171.261C124.816 171.869 124.938 172.402 125.184 172.861C125.44 173.319 125.77 173.671 126.176 173.917C126.592 174.151 127.029 174.269 127.488 174.269C127.957 174.269 128.394 174.151 128.8 173.917C129.205 173.682 129.53 173.341 129.776 172.893C130.032 172.434 130.16 171.901 130.16 171.293ZM142.475 171.085C142.475 171.415 142.454 171.714 142.411 171.981H135.675C135.729 172.685 135.99 173.25 136.459 173.677C136.929 174.103 137.505 174.317 138.187 174.317C139.169 174.317 139.862 173.906 140.267 173.085H142.235C141.969 173.895 141.483 174.562 140.779 175.085C140.086 175.597 139.222 175.853 138.187 175.853C137.345 175.853 136.587 175.666 135.915 175.293C135.254 174.909 134.731 174.375 134.347 173.693C133.974 172.999 133.787 172.199 133.787 171.293C133.787 170.386 133.969 169.591 134.331 168.909C134.705 168.215 135.222 167.682 135.883 167.309C136.555 166.935 137.323 166.749 138.187 166.749C139.019 166.749 139.761 166.93 140.411 167.293C141.062 167.655 141.569 168.167 141.931 168.829C142.294 169.479 142.475 170.231 142.475 171.085ZM140.571 170.509C140.561 169.837 140.321 169.298 139.851 168.893C139.382 168.487 138.801 168.285 138.107 168.285C137.478 168.285 136.939 168.487 136.491 168.893C136.043 169.287 135.777 169.826 135.691 170.509H140.571ZM146.398 168.381V173.261C146.398 173.591 146.473 173.831 146.622 173.981C146.782 174.119 147.049 174.189 147.422 174.189H148.542V175.709H147.102C146.281 175.709 145.652 175.517 145.214 175.133C144.777 174.749 144.558 174.125 144.558 173.261V168.381H143.518V166.893H144.558V164.701H146.398V166.893H148.542V168.381H146.398ZM162.972 175.709L161.596 174.333C161.062 174.866 160.481 175.266 159.852 175.533C159.222 175.789 158.518 175.917 157.74 175.917C156.95 175.917 156.252 175.778 155.644 175.501C155.036 175.223 154.566 174.829 154.236 174.317C153.905 173.794 153.74 173.191 153.74 172.509C153.74 171.741 153.958 171.058 154.396 170.461C154.833 169.853 155.484 169.373 156.348 169.021C156.038 168.647 155.82 168.301 155.692 167.981C155.564 167.65 155.5 167.287 155.5 166.893C155.5 166.402 155.622 165.965 155.868 165.581C156.124 165.197 156.486 164.893 156.956 164.669C157.425 164.445 157.969 164.333 158.588 164.333C159.217 164.333 159.75 164.455 160.188 164.701C160.636 164.935 160.966 165.261 161.18 165.677C161.404 166.093 161.494 166.557 161.452 167.069H159.628C159.638 166.674 159.542 166.37 159.34 166.157C159.137 165.933 158.86 165.821 158.508 165.821C158.156 165.821 157.868 165.927 157.644 166.141C157.43 166.343 157.324 166.594 157.324 166.893C157.324 167.181 157.404 167.469 157.564 167.757C157.734 168.034 158.028 168.397 158.444 168.845L161.388 171.773L162.524 169.901H164.492L163.052 172.365L162.652 173.021L165.356 175.709H162.972ZM157.74 174.365C158.742 174.365 159.628 173.954 160.396 173.133L157.452 170.173C156.193 170.674 155.564 171.431 155.564 172.445C155.564 172.989 155.766 173.447 156.172 173.821C156.577 174.183 157.1 174.365 157.74 174.365ZM172.532 166.061V169.325H176.372V170.813H172.532V174.221H176.852V175.709H170.708V164.573H176.852V166.061H172.532ZM182.874 171.245L185.722 175.709H183.658L181.754 172.717L179.962 175.709H178.058L180.906 171.373L178.058 166.893H180.122L182.026 169.885L183.818 166.893H185.722L182.874 171.245ZM188.907 168.189C189.216 167.783 189.637 167.442 190.171 167.165C190.704 166.887 191.307 166.749 191.979 166.749C192.747 166.749 193.445 166.941 194.075 167.325C194.715 167.698 195.216 168.226 195.579 168.909C195.941 169.591 196.123 170.375 196.123 171.261C196.123 172.146 195.941 172.941 195.579 173.645C195.216 174.338 194.715 174.882 194.075 175.277C193.445 175.661 192.747 175.853 191.979 175.853C191.307 175.853 190.709 175.719 190.187 175.453C189.664 175.175 189.237 174.834 188.907 174.429V179.901H187.083V166.893H188.907V168.189ZM194.267 171.261C194.267 170.653 194.139 170.13 193.883 169.693C193.637 169.245 193.307 168.909 192.891 168.685C192.485 168.45 192.048 168.333 191.579 168.333C191.12 168.333 190.683 168.45 190.267 168.685C189.861 168.919 189.531 169.261 189.275 169.709C189.029 170.157 188.907 170.685 188.907 171.293C188.907 171.901 189.029 172.434 189.275 172.893C189.531 173.341 189.861 173.682 190.267 173.917C190.683 174.151 191.12 174.269 191.579 174.269C192.048 174.269 192.485 174.151 192.891 173.917C193.307 173.671 193.637 173.319 193.883 172.861C194.139 172.402 194.267 171.869 194.267 171.261ZM206.007 171.085C206.007 171.415 205.985 171.714 205.943 171.981H199.207C199.26 172.685 199.521 173.25 199.991 173.677C200.46 174.103 201.036 174.317 201.719 174.317C202.7 174.317 203.393 173.906 203.799 173.085H205.767C205.5 173.895 205.015 174.562 204.311 175.085C203.617 175.597 202.753 175.853 201.719 175.853C200.876 175.853 200.119 175.666 199.447 175.293C198.785 174.909 198.263 174.375 197.879 173.693C197.505 172.999 197.319 172.199 197.319 171.293C197.319 170.386 197.5 169.591 197.863 168.909C198.236 168.215 198.753 167.682 199.415 167.309C200.087 166.935 200.855 166.749 201.719 166.749C202.551 166.749 203.292 166.93 203.943 167.293C204.593 167.655 205.1 168.167 205.463 168.829C205.825 169.479 206.007 170.231 206.007 171.085ZM204.103 170.509C204.092 169.837 203.852 169.298 203.383 168.893C202.913 168.487 202.332 168.285 201.639 168.285C201.009 168.285 200.471 168.487 200.023 168.893C199.575 169.287 199.308 169.826 199.223 170.509H204.103ZM212.25 166.749C212.943 166.749 213.562 166.893 214.106 167.181C214.66 167.469 215.092 167.895 215.402 168.461C215.711 169.026 215.866 169.709 215.866 170.509V175.709H214.058V170.781C214.058 169.991 213.86 169.389 213.466 168.973C213.071 168.546 212.532 168.333 211.85 168.333C211.167 168.333 210.623 168.546 210.218 168.973C209.823 169.389 209.626 169.991 209.626 170.781V175.709H207.802V166.893H209.626V167.901C209.924 167.538 210.303 167.255 210.762 167.053C211.231 166.85 211.727 166.749 212.25 166.749ZM221.392 175.853C220.699 175.853 220.075 175.73 219.52 175.485C218.976 175.229 218.544 174.887 218.224 174.461C217.904 174.023 217.734 173.538 217.712 173.005H219.6C219.632 173.378 219.808 173.693 220.128 173.949C220.459 174.194 220.87 174.317 221.36 174.317C221.872 174.317 222.267 174.221 222.544 174.029C222.832 173.826 222.976 173.57 222.976 173.261C222.976 172.93 222.816 172.685 222.496 172.525C222.187 172.365 221.691 172.189 221.008 171.997C220.347 171.815 219.808 171.639 219.392 171.469C218.976 171.298 218.614 171.037 218.304 170.685C218.006 170.333 217.856 169.869 217.856 169.293C217.856 168.823 217.995 168.397 218.272 168.013C218.55 167.618 218.944 167.309 219.456 167.085C219.979 166.861 220.576 166.749 221.248 166.749C222.251 166.749 223.056 167.005 223.664 167.517C224.283 168.018 224.614 168.706 224.656 169.581H222.832C222.8 169.186 222.64 168.871 222.352 168.637C222.064 168.402 221.675 168.285 221.184 168.285C220.704 168.285 220.336 168.375 220.08 168.557C219.824 168.738 219.696 168.978 219.696 169.277C219.696 169.511 219.782 169.709 219.952 169.869C220.123 170.029 220.331 170.157 220.576 170.253C220.822 170.338 221.184 170.45 221.664 170.589C222.304 170.759 222.827 170.935 223.232 171.117C223.648 171.287 224.006 171.543 224.304 171.885C224.603 172.226 224.758 172.679 224.768 173.245C224.768 173.746 224.63 174.194 224.352 174.589C224.075 174.983 223.68 175.293 223.168 175.517C222.667 175.741 222.075 175.853 221.392 175.853ZM234.819 171.085C234.819 171.415 234.798 171.714 234.755 171.981H228.019C228.072 172.685 228.334 173.25 228.803 173.677C229.272 174.103 229.848 174.317 230.531 174.317C231.512 174.317 232.206 173.906 232.611 173.085H234.579C234.312 173.895 233.827 174.562 233.123 175.085C232.43 175.597 231.566 175.853 230.531 175.853C229.688 175.853 228.931 175.666 228.259 175.293C227.598 174.909 227.075 174.375 226.691 173.693C226.318 172.999 226.131 172.199 226.131 171.293C226.131 170.386 226.312 169.591 226.675 168.909C227.048 168.215 227.566 167.682 228.227 167.309C228.899 166.935 229.667 166.749 230.531 166.749C231.363 166.749 232.104 166.93 232.755 167.293C233.406 167.655 233.912 168.167 234.275 168.829C234.638 169.479 234.819 170.231 234.819 171.085ZM232.915 170.509C232.904 169.837 232.664 169.298 232.195 168.893C231.726 168.487 231.144 168.285 230.451 168.285C229.822 168.285 229.283 168.487 228.835 168.893C228.387 169.287 228.12 169.826 228.035 170.509H232.915ZM239.814 175.853C239.121 175.853 238.497 175.73 237.942 175.485C237.398 175.229 236.966 174.887 236.646 174.461C236.326 174.023 236.155 173.538 236.134 173.005H238.022C238.054 173.378 238.23 173.693 238.55 173.949C238.881 174.194 239.291 174.317 239.782 174.317C240.294 174.317 240.689 174.221 240.966 174.029C241.254 173.826 241.398 173.57 241.398 173.261C241.398 172.93 241.238 172.685 240.918 172.525C240.609 172.365 240.113 172.189 239.43 171.997C238.769 171.815 238.23 171.639 237.814 171.469C237.398 171.298 237.035 171.037 236.726 170.685C236.427 170.333 236.278 169.869 236.278 169.293C236.278 168.823 236.417 168.397 236.694 168.013C236.971 167.618 237.366 167.309 237.878 167.085C238.401 166.861 238.998 166.749 239.67 166.749C240.673 166.749 241.478 167.005 242.086 167.517C242.705 168.018 243.035 168.706 243.078 169.581H241.254C241.222 169.186 241.062 168.871 240.774 168.637C240.486 168.402 240.097 168.285 239.606 168.285C239.126 168.285 238.758 168.375 238.502 168.557C238.246 168.738 238.118 168.978 238.118 169.277C238.118 169.511 238.203 169.709 238.374 169.869C238.545 170.029 238.753 170.157 238.998 170.253C239.243 170.338 239.606 170.45 240.086 170.589C240.726 170.759 241.249 170.935 241.654 171.117C242.07 171.287 242.427 171.543 242.726 171.885C243.025 172.226 243.179 172.679 243.19 173.245C243.19 173.746 243.051 174.194 242.774 174.589C242.497 174.983 242.102 175.293 241.59 175.517C241.089 175.741 240.497 175.853 239.814 175.853Z" fill="black"/>
<path d="M67.0039 195.665L64.8259 203.354H63.9679L62.0319 196.798L60.0519 203.354L59.2159 203.365L57.0819 195.665H57.9069L59.6669 202.408L61.6359 195.665H62.4939L64.4079 202.408L66.1789 195.665H67.0039ZM68.5668 196.215C68.4128 196.215 68.2808 196.16 68.1708 196.05C68.0608 195.94 68.0058 195.805 68.0058 195.643C68.0058 195.482 68.0608 195.35 68.1708 195.247C68.2808 195.137 68.4128 195.082 68.5668 195.082C68.7208 195.082 68.8528 195.137 68.9628 195.247C69.0728 195.35 69.1278 195.482 69.1278 195.643C69.1278 195.805 69.0728 195.94 68.9628 196.05C68.8528 196.16 68.7208 196.215 68.5668 196.215ZM68.9518 197.348V203.354H68.1818V197.348H68.9518ZM71.6964 197.997V201.726C71.6964 202.093 71.7661 202.346 71.9054 202.485C72.0448 202.625 72.2904 202.694 72.6424 202.694H73.3464V203.354H72.5214C71.9788 203.354 71.5754 203.23 71.3114 202.98C71.0474 202.724 70.9154 202.306 70.9154 201.726V197.997H70.0794V197.348H70.9154V195.841H71.6964V197.348H73.3464V197.997H71.6964ZM77.4763 197.238C77.931 197.238 78.338 197.334 78.6973 197.524C79.064 197.715 79.35 198.008 79.5553 198.404C79.768 198.793 79.8743 199.27 79.8743 199.834V203.354H79.1153V199.922C79.1153 199.27 78.9503 198.771 78.6203 198.426C78.2977 198.082 77.854 197.909 77.2893 197.909C76.71 197.909 76.248 198.093 75.9033 198.459C75.5587 198.826 75.3863 199.365 75.3863 200.076V203.354H74.6163V195.214H75.3863V198.371C75.577 198.012 75.8557 197.733 76.2223 197.535C76.5963 197.337 77.0143 197.238 77.4763 197.238ZM85.5968 197.997V201.726C85.5968 202.093 85.6665 202.346 85.8058 202.485C85.9452 202.625 86.1908 202.694 86.5428 202.694H87.2468V203.354H86.4218C85.8792 203.354 85.4758 203.23 85.2118 202.98C84.9478 202.724 84.8158 202.306 84.8158 201.726V197.997H83.9798V197.348H84.8158V195.841H85.5968V197.348H87.2468V197.997H85.5968ZM91.3767 197.238C91.8314 197.238 92.2384 197.334 92.5977 197.524C92.9644 197.715 93.2504 198.008 93.4557 198.404C93.6684 198.793 93.7747 199.27 93.7747 199.834V203.354H93.0157V199.922C93.0157 199.27 92.8507 198.771 92.5207 198.426C92.1981 198.082 91.7544 197.909 91.1897 197.909C90.6104 197.909 90.1484 198.093 89.8037 198.459C89.4591 198.826 89.2867 199.365 89.2867 200.076V203.354H88.5167V195.214H89.2867V198.371C89.4774 198.012 89.7561 197.733 90.1227 197.535C90.4967 197.337 90.9147 197.238 91.3767 197.238ZM95.8627 196.215C95.7087 196.215 95.5767 196.16 95.4667 196.05C95.3567 195.94 95.3017 195.805 95.3017 195.643C95.3017 195.482 95.3567 195.35 95.4667 195.247C95.5767 195.137 95.7087 195.082 95.8627 195.082C96.0167 195.082 96.1487 195.137 96.2587 195.247C96.3687 195.35 96.4237 195.482 96.4237 195.643C96.4237 195.805 96.3687 195.94 96.2587 196.05C96.1487 196.16 96.0167 196.215 95.8627 196.215ZM96.2477 197.348V203.354H95.4777V197.348H96.2477ZM100.059 203.442C99.37 203.442 98.8053 203.285 98.3653 202.969C97.9327 202.647 97.6907 202.21 97.6393 201.66H98.4313C98.468 201.998 98.6257 202.273 98.9043 202.485C99.1903 202.691 99.5717 202.793 100.048 202.793C100.466 202.793 100.793 202.694 101.027 202.496C101.269 202.298 101.39 202.053 101.39 201.759C101.39 201.554 101.324 201.385 101.192 201.253C101.06 201.121 100.892 201.019 100.686 200.945C100.488 200.865 100.217 200.78 99.8723 200.692C99.425 200.575 99.062 200.458 98.7833 200.34C98.5047 200.223 98.2663 200.051 98.0683 199.823C97.8777 199.589 97.7823 199.277 97.7823 198.888C97.7823 198.595 97.8703 198.324 98.0463 198.074C98.2223 197.825 98.4717 197.627 98.7943 197.48C99.117 197.334 99.4837 197.26 99.8943 197.26C100.54 197.26 101.06 197.425 101.456 197.755C101.852 198.078 102.065 198.525 102.094 199.097H101.324C101.302 198.745 101.163 198.463 100.906 198.25C100.657 198.03 100.312 197.92 99.8723 197.92C99.4837 197.92 99.1683 198.012 98.9263 198.195C98.6843 198.379 98.5633 198.606 98.5633 198.877C98.5633 199.112 98.633 199.306 98.7723 199.46C98.919 199.607 99.0987 199.724 99.3113 199.812C99.524 199.893 99.81 199.985 100.169 200.087C100.602 200.205 100.947 200.318 101.203 200.428C101.46 200.538 101.68 200.7 101.863 200.912C102.047 201.125 102.142 201.407 102.149 201.759C102.149 202.082 102.061 202.372 101.885 202.628C101.709 202.878 101.464 203.076 101.148 203.222C100.833 203.369 100.47 203.442 100.059 203.442ZM108.982 197.997H107.585V203.354H106.815V197.997H105.979V197.348H106.815V196.93C106.815 196.278 106.98 195.797 107.31 195.489C107.648 195.181 108.19 195.027 108.938 195.027V195.687C108.44 195.687 108.088 195.783 107.882 195.973C107.684 196.164 107.585 196.483 107.585 196.93V197.348H108.982V197.997ZM115.628 200.043C115.628 200.307 115.621 200.509 115.606 200.648H110.623C110.645 201.103 110.755 201.492 110.953 201.814C111.151 202.137 111.412 202.383 111.734 202.551C112.057 202.713 112.409 202.793 112.79 202.793C113.289 202.793 113.707 202.672 114.044 202.43C114.389 202.188 114.616 201.862 114.726 201.451H115.54C115.394 202.038 115.078 202.518 114.594 202.892C114.118 203.259 113.516 203.442 112.79 203.442C112.226 203.442 111.72 203.318 111.272 203.068C110.825 202.812 110.473 202.452 110.216 201.99C109.967 201.521 109.842 200.975 109.842 200.351C109.842 199.728 109.967 199.182 110.216 198.712C110.466 198.243 110.814 197.884 111.261 197.634C111.709 197.385 112.218 197.26 112.79 197.26C113.362 197.26 113.861 197.385 114.286 197.634C114.719 197.884 115.049 198.221 115.276 198.646C115.511 199.064 115.628 199.53 115.628 200.043ZM114.847 200.021C114.855 199.574 114.763 199.193 114.572 198.877C114.389 198.562 114.136 198.324 113.813 198.162C113.491 198.001 113.139 197.92 112.757 197.92C112.185 197.92 111.698 198.104 111.294 198.47C110.891 198.837 110.667 199.354 110.623 200.021H114.847ZM116.685 200.34C116.685 199.724 116.806 199.185 117.048 198.723C117.298 198.254 117.639 197.895 118.071 197.645C118.511 197.389 119.006 197.26 119.556 197.26C120.128 197.26 120.62 197.392 121.03 197.656C121.448 197.92 121.749 198.258 121.932 198.668V197.348H122.702V203.354H121.932V202.023C121.742 202.434 121.437 202.775 121.019 203.046C120.609 203.31 120.117 203.442 119.545 203.442C119.003 203.442 118.511 203.314 118.071 203.057C117.639 202.801 117.298 202.438 117.048 201.968C116.806 201.499 116.685 200.956 116.685 200.34ZM121.932 200.351C121.932 199.867 121.833 199.442 121.635 199.075C121.437 198.709 121.166 198.426 120.821 198.228C120.484 198.03 120.11 197.931 119.699 197.931C119.274 197.931 118.893 198.027 118.555 198.217C118.218 198.408 117.95 198.687 117.752 199.053C117.562 199.413 117.466 199.842 117.466 200.34C117.466 200.832 117.562 201.264 117.752 201.638C117.95 202.005 118.218 202.287 118.555 202.485C118.893 202.676 119.274 202.771 119.699 202.771C120.11 202.771 120.484 202.672 120.821 202.474C121.166 202.276 121.437 201.994 121.635 201.627C121.833 201.261 121.932 200.835 121.932 200.351ZM125.461 197.997V201.726C125.461 202.093 125.531 202.346 125.67 202.485C125.809 202.625 126.055 202.694 126.407 202.694H127.111V203.354H126.286C125.743 203.354 125.34 203.23 125.076 202.98C124.812 202.724 124.68 202.306 124.68 201.726V197.997H123.844V197.348H124.68V195.841H125.461V197.348H127.111V197.997H125.461ZM133.584 197.348V203.354H132.814V202.298C132.638 202.672 132.367 202.958 132 203.156C131.633 203.354 131.223 203.453 130.768 203.453C130.049 203.453 129.463 203.233 129.008 202.793C128.553 202.346 128.326 201.701 128.326 200.857V197.348H129.085V200.769C129.085 201.422 129.246 201.921 129.569 202.265C129.899 202.61 130.346 202.782 130.911 202.782C131.49 202.782 131.952 202.599 132.297 202.232C132.642 201.866 132.814 201.327 132.814 200.615V197.348H133.584ZM136.112 198.415C136.281 198.041 136.537 197.752 136.882 197.546C137.234 197.341 137.663 197.238 138.169 197.238V198.041H137.96C137.403 198.041 136.955 198.192 136.618 198.492C136.281 198.793 136.112 199.295 136.112 199.999V203.354H135.342V197.348H136.112V198.415ZM144.761 200.043C144.761 200.307 144.754 200.509 144.739 200.648H139.756C139.778 201.103 139.888 201.492 140.086 201.814C140.284 202.137 140.545 202.383 140.867 202.551C141.19 202.713 141.542 202.793 141.923 202.793C142.422 202.793 142.84 202.672 143.177 202.43C143.522 202.188 143.749 201.862 143.859 201.451H144.673C144.527 202.038 144.211 202.518 143.727 202.892C143.251 203.259 142.649 203.442 141.923 203.442C141.359 203.442 140.853 203.318 140.405 203.068C139.958 202.812 139.606 202.452 139.349 201.99C139.1 201.521 138.975 200.975 138.975 200.351C138.975 199.728 139.1 199.182 139.349 198.712C139.599 198.243 139.947 197.884 140.394 197.634C140.842 197.385 141.351 197.26 141.923 197.26C142.495 197.26 142.994 197.385 143.419 197.634C143.852 197.884 144.182 198.221 144.409 198.646C144.644 199.064 144.761 199.53 144.761 200.043ZM143.98 200.021C143.988 199.574 143.896 199.193 143.705 198.877C143.522 198.562 143.269 198.324 142.946 198.162C142.624 198.001 142.272 197.92 141.89 197.92C141.318 197.92 140.831 198.104 140.427 198.47C140.024 198.837 139.8 199.354 139.756 200.021H143.98ZM146.874 202.078L145.73 204.96H145.202L146.016 202.078H146.874ZM153.906 197.238C154.625 197.238 155.211 197.462 155.666 197.909C156.121 198.349 156.348 198.991 156.348 199.834V203.354H155.589V199.922C155.589 199.27 155.424 198.771 155.094 198.426C154.771 198.082 154.328 197.909 153.763 197.909C153.184 197.909 152.722 198.093 152.377 198.459C152.032 198.826 151.86 199.365 151.86 200.076V203.354H151.09V197.348H151.86V198.371C152.051 198.005 152.326 197.726 152.685 197.535C153.044 197.337 153.451 197.238 153.906 197.238ZM163.485 200.043C163.485 200.307 163.478 200.509 163.463 200.648H158.48C158.502 201.103 158.612 201.492 158.81 201.814C159.008 202.137 159.268 202.383 159.591 202.551C159.914 202.713 160.266 202.793 160.647 202.793C161.146 202.793 161.564 202.672 161.901 202.43C162.246 202.188 162.473 201.862 162.583 201.451H163.397C163.25 202.038 162.935 202.518 162.451 202.892C161.974 203.259 161.373 203.442 160.647 203.442C160.082 203.442 159.576 203.318 159.129 203.068C158.682 202.812 158.33 202.452 158.073 201.99C157.824 201.521 157.699 200.975 157.699 200.351C157.699 199.728 157.824 199.182 158.073 198.712C158.322 198.243 158.671 197.884 159.118 197.634C159.565 197.385 160.075 197.26 160.647 197.26C161.219 197.26 161.718 197.385 162.143 197.634C162.576 197.884 162.906 198.221 163.133 198.646C163.368 199.064 163.485 199.53 163.485 200.043ZM162.704 200.021C162.711 199.574 162.62 199.193 162.429 198.877C162.246 198.562 161.993 198.324 161.67 198.162C161.347 198.001 160.995 197.92 160.614 197.92C160.042 197.92 159.554 198.104 159.151 198.47C158.748 198.837 158.524 199.354 158.48 200.021H162.704ZM167.028 202.606L169.052 197.348H169.866L167.457 203.354H166.588L164.179 197.348H165.004L167.028 202.606ZM176.343 200.043C176.343 200.307 176.336 200.509 176.321 200.648H171.338C171.36 201.103 171.47 201.492 171.668 201.814C171.866 202.137 172.127 202.383 172.449 202.551C172.772 202.713 173.124 202.793 173.505 202.793C174.004 202.793 174.422 202.672 174.759 202.43C175.104 202.188 175.331 201.862 175.441 201.451H176.255C176.109 202.038 175.793 202.518 175.309 202.892C174.833 203.259 174.231 203.442 173.505 203.442C172.941 203.442 172.435 203.318 171.987 203.068C171.54 202.812 171.188 202.452 170.931 201.99C170.682 201.521 170.557 200.975 170.557 200.351C170.557 199.728 170.682 199.182 170.931 198.712C171.181 198.243 171.529 197.884 171.976 197.634C172.424 197.385 172.933 197.26 173.505 197.26C174.077 197.26 174.576 197.385 175.001 197.634C175.434 197.884 175.764 198.221 175.991 198.646C176.226 199.064 176.343 199.53 176.343 200.043ZM175.562 200.021C175.57 199.574 175.478 199.193 175.287 198.877C175.104 198.562 174.851 198.324 174.528 198.162C174.206 198.001 173.854 197.92 173.472 197.92C172.9 197.92 172.413 198.104 172.009 198.47C171.606 198.837 171.382 199.354 171.338 200.021H175.562ZM178.522 198.415C178.691 198.041 178.947 197.752 179.292 197.546C179.644 197.341 180.073 197.238 180.579 197.238V198.041H180.37C179.813 198.041 179.365 198.192 179.028 198.492C178.691 198.793 178.522 199.295 178.522 199.999V203.354H177.752V197.348H178.522V198.415ZM191.906 197.238C192.61 197.238 193.182 197.462 193.622 197.909C194.069 198.349 194.293 198.991 194.293 199.834V203.354H193.534V199.922C193.534 199.27 193.376 198.771 193.061 198.426C192.746 198.082 192.317 197.909 191.774 197.909C191.209 197.909 190.758 198.096 190.421 198.47C190.084 198.844 189.915 199.387 189.915 200.098V203.354H189.156V199.922C189.156 199.27 188.998 198.771 188.683 198.426C188.368 198.082 187.935 197.909 187.385 197.909C186.82 197.909 186.369 198.096 186.032 198.47C185.695 198.844 185.526 199.387 185.526 200.098V203.354H184.756V197.348H185.526V198.382C185.717 198.008 185.988 197.726 186.34 197.535C186.692 197.337 187.084 197.238 187.517 197.238C188.038 197.238 188.492 197.363 188.881 197.612C189.277 197.862 189.563 198.228 189.739 198.712C189.9 198.236 190.175 197.873 190.564 197.623C190.96 197.367 191.407 197.238 191.906 197.238ZM196.388 196.215C196.234 196.215 196.102 196.16 195.992 196.05C195.882 195.94 195.827 195.805 195.827 195.643C195.827 195.482 195.882 195.35 195.992 195.247C196.102 195.137 196.234 195.082 196.388 195.082C196.542 195.082 196.674 195.137 196.784 195.247C196.894 195.35 196.949 195.482 196.949 195.643C196.949 195.805 196.894 195.94 196.784 196.05C196.674 196.16 196.542 196.215 196.388 196.215ZM196.773 197.348V203.354H196.003V197.348H196.773ZM200.585 203.442C199.895 203.442 199.331 203.285 198.891 202.969C198.458 202.647 198.216 202.21 198.165 201.66H198.957C198.993 201.998 199.151 202.273 199.43 202.485C199.716 202.691 200.097 202.793 200.574 202.793C200.992 202.793 201.318 202.694 201.553 202.496C201.795 202.298 201.916 202.053 201.916 201.759C201.916 201.554 201.85 201.385 201.718 201.253C201.586 201.121 201.417 201.019 201.212 200.945C201.014 200.865 200.742 200.78 200.398 200.692C199.95 200.575 199.587 200.458 199.309 200.34C199.03 200.223 198.792 200.051 198.594 199.823C198.403 199.589 198.308 199.277 198.308 198.888C198.308 198.595 198.396 198.324 198.572 198.074C198.748 197.825 198.997 197.627 199.32 197.48C199.642 197.334 200.009 197.26 200.42 197.26C201.065 197.26 201.586 197.425 201.982 197.755C202.378 198.078 202.59 198.525 202.62 199.097H201.85C201.828 198.745 201.688 198.463 201.432 198.25C201.182 198.03 200.838 197.92 200.398 197.92C200.009 197.92 199.694 198.012 199.452 198.195C199.21 198.379 199.089 198.606 199.089 198.877C199.089 199.112 199.158 199.306 199.298 199.46C199.444 199.607 199.624 199.724 199.837 199.812C200.049 199.893 200.335 199.985 200.695 200.087C201.127 200.205 201.472 200.318 201.729 200.428C201.985 200.538 202.205 200.7 202.389 200.912C202.572 201.125 202.667 201.407 202.675 201.759C202.675 202.082 202.587 202.372 202.411 202.628C202.235 202.878 201.989 203.076 201.674 203.222C201.358 203.369 200.995 203.442 200.585 203.442ZM206.192 203.442C205.503 203.442 204.938 203.285 204.498 202.969C204.065 202.647 203.823 202.21 203.772 201.66H204.564C204.601 201.998 204.758 202.273 205.037 202.485C205.323 202.691 205.704 202.793 206.181 202.793C206.599 202.793 206.925 202.694 207.16 202.496C207.402 202.298 207.523 202.053 207.523 201.759C207.523 201.554 207.457 201.385 207.325 201.253C207.193 201.121 207.024 201.019 206.819 200.945C206.621 200.865 206.35 200.78 206.005 200.692C205.558 200.575 205.195 200.458 204.916 200.34C204.637 200.223 204.399 200.051 204.201 199.823C204.01 199.589 203.915 199.277 203.915 198.888C203.915 198.595 204.003 198.324 204.179 198.074C204.355 197.825 204.604 197.627 204.927 197.48C205.25 197.334 205.616 197.26 206.027 197.26C206.672 197.26 207.193 197.425 207.589 197.755C207.985 198.078 208.198 198.525 208.227 199.097H207.457C207.435 198.745 207.296 198.463 207.039 198.25C206.79 198.03 206.445 197.92 206.005 197.92C205.616 197.92 205.301 198.012 205.059 198.195C204.817 198.379 204.696 198.606 204.696 198.877C204.696 199.112 204.766 199.306 204.905 199.46C205.052 199.607 205.231 199.724 205.444 199.812C205.657 199.893 205.943 199.985 206.302 200.087C206.735 200.205 207.079 200.318 207.336 200.428C207.593 200.538 207.813 200.7 207.996 200.912C208.179 201.125 208.275 201.407 208.282 201.759C208.282 202.082 208.194 202.372 208.018 202.628C207.842 202.878 207.596 203.076 207.281 203.222C206.966 203.369 206.603 203.442 206.192 203.442ZM220.67 197.348L218.789 203.354H218.019L216.358 198.316L214.697 203.354H213.916L212.035 197.348H212.816L214.312 202.573L215.995 197.348H216.765L218.426 202.584L219.911 197.348H220.67ZM224.58 197.238C225.035 197.238 225.442 197.334 225.801 197.524C226.168 197.715 226.454 198.008 226.659 198.404C226.872 198.793 226.978 199.27 226.978 199.834V203.354H226.219V199.922C226.219 199.27 226.054 198.771 225.724 198.426C225.401 198.082 224.958 197.909 224.393 197.909C223.814 197.909 223.352 198.093 223.007 198.459C222.662 198.826 222.49 199.365 222.49 200.076V203.354H221.72V195.214H222.49V198.371C222.681 198.012 222.959 197.733 223.326 197.535C223.7 197.337 224.118 197.238 224.58 197.238ZM228.329 200.34C228.329 199.724 228.45 199.185 228.692 198.723C228.941 198.254 229.282 197.895 229.715 197.645C230.155 197.389 230.65 197.26 231.2 197.26C231.772 197.26 232.263 197.392 232.674 197.656C233.092 197.92 233.392 198.258 233.576 198.668V197.348H234.346V203.354H233.576V202.023C233.385 202.434 233.081 202.775 232.663 203.046C232.252 203.31 231.761 203.442 231.189 203.442C230.646 203.442 230.155 203.314 229.715 203.057C229.282 202.801 228.941 202.438 228.692 201.968C228.45 201.499 228.329 200.956 228.329 200.34ZM233.576 200.351C233.576 199.867 233.477 199.442 233.279 199.075C233.081 198.709 232.809 198.426 232.465 198.228C232.127 198.03 231.753 197.931 231.343 197.931C230.917 197.931 230.536 198.027 230.199 198.217C229.861 198.408 229.594 198.687 229.396 199.053C229.205 199.413 229.11 199.842 229.11 200.34C229.11 200.832 229.205 201.264 229.396 201.638C229.594 202.005 229.861 202.287 230.199 202.485C230.536 202.676 230.917 202.771 231.343 202.771C231.753 202.771 232.127 202.672 232.465 202.474C232.809 202.276 233.081 201.994 233.279 201.627C233.477 201.261 233.576 200.835 233.576 200.351ZM237.105 197.997V201.726C237.105 202.093 237.174 202.346 237.314 202.485C237.453 202.625 237.699 202.694 238.051 202.694H238.755V203.354H237.93C237.387 203.354 236.984 203.23 236.72 202.98C236.456 202.724 236.324 202.306 236.324 201.726V197.997H235.488V197.348H236.324V195.841H237.105V197.348H238.755V197.997H237.105ZM247.993 197.348L244.429 206.181H243.626L244.792 203.321L242.328 197.348H243.175L245.221 202.474L247.201 197.348H247.993ZM251.666 203.442C251.102 203.442 250.592 203.318 250.137 203.068C249.69 202.812 249.334 202.452 249.07 201.99C248.814 201.521 248.685 200.975 248.685 200.351C248.685 199.728 248.817 199.185 249.081 198.723C249.345 198.254 249.705 197.895 250.159 197.645C250.614 197.389 251.124 197.26 251.688 197.26C252.253 197.26 252.763 197.389 253.217 197.645C253.679 197.895 254.039 198.254 254.295 198.723C254.559 199.185 254.691 199.728 254.691 200.351C254.691 200.967 254.559 201.51 254.295 201.979C254.031 202.449 253.668 202.812 253.206 203.068C252.744 203.318 252.231 203.442 251.666 203.442ZM251.666 202.771C252.062 202.771 252.429 202.683 252.766 202.507C253.104 202.324 253.375 202.053 253.58 201.693C253.793 201.327 253.899 200.879 253.899 200.351C253.899 199.823 253.797 199.38 253.591 199.02C253.386 198.654 253.115 198.382 252.777 198.206C252.44 198.023 252.073 197.931 251.677 197.931C251.281 197.931 250.915 198.023 250.577 198.206C250.24 198.382 249.969 198.654 249.763 199.02C249.565 199.38 249.466 199.823 249.466 200.351C249.466 200.879 249.565 201.327 249.763 201.693C249.969 202.053 250.236 202.324 250.566 202.507C250.904 202.683 251.27 202.771 251.666 202.771ZM261.298 197.348V203.354H260.528V202.298C260.352 202.672 260.081 202.958 259.714 203.156C259.347 203.354 258.937 203.453 258.482 203.453C257.763 203.453 257.177 203.233 256.722 202.793C256.267 202.346 256.04 201.701 256.04 200.857V197.348H256.799V200.769C256.799 201.422 256.96 201.921 257.283 202.265C257.613 202.61 258.06 202.782 258.625 202.782C259.204 202.782 259.666 202.599 260.011 202.232C260.356 201.866 260.528 201.327 260.528 200.615V197.348H261.298ZM263.155 195.665H264.046L263.078 198.041H262.517L263.155 195.665ZM267.36 202.606L269.384 197.348H270.198L267.789 203.354H266.92L264.511 197.348H265.336L267.36 202.606ZM276.675 200.043C276.675 200.307 276.668 200.509 276.653 200.648H271.67C271.692 201.103 271.802 201.492 272 201.814C272.198 202.137 272.459 202.383 272.781 202.551C273.104 202.713 273.456 202.793 273.837 202.793C274.336 202.793 274.754 202.672 275.091 202.43C275.436 202.188 275.663 201.862 275.773 201.451H276.587C276.441 202.038 276.125 202.518 275.641 202.892C275.165 203.259 274.563 203.442 273.837 203.442C273.273 203.442 272.767 203.318 272.319 203.068C271.872 202.812 271.52 202.452 271.263 201.99C271.014 201.521 270.889 200.975 270.889 200.351C270.889 199.728 271.014 199.182 271.263 198.712C271.513 198.243 271.861 197.884 272.308 197.634C272.756 197.385 273.265 197.26 273.837 197.26C274.409 197.26 274.908 197.385 275.333 197.634C275.766 197.884 276.096 198.221 276.323 198.646C276.558 199.064 276.675 199.53 276.675 200.043ZM275.894 200.021C275.902 199.574 275.81 199.193 275.619 198.877C275.436 198.562 275.183 198.324 274.86 198.162C274.538 198.001 274.186 197.92 273.804 197.92C273.232 197.92 272.745 198.104 272.341 198.47C271.938 198.837 271.714 199.354 271.67 200.021H275.894ZM144.092 220.442C143.402 220.442 142.838 220.285 142.398 219.969C141.965 219.647 141.723 219.21 141.672 218.66H142.464C142.5 218.998 142.658 219.273 142.937 219.485C143.223 219.691 143.604 219.793 144.081 219.793C144.499 219.793 144.825 219.694 145.06 219.496C145.302 219.298 145.423 219.053 145.423 218.759C145.423 218.554 145.357 218.385 145.225 218.253C145.093 218.121 144.924 218.019 144.719 217.945C144.521 217.865 144.249 217.78 143.905 217.692C143.457 217.575 143.094 217.458 142.816 217.34C142.537 217.223 142.299 217.051 142.101 216.823C141.91 216.589 141.815 216.277 141.815 215.888C141.815 215.595 141.903 215.324 142.079 215.074C142.255 214.825 142.504 214.627 142.827 214.48C143.149 214.334 143.516 214.26 143.927 214.26C144.572 214.26 145.093 214.425 145.489 214.755C145.885 215.078 146.097 215.525 146.127 216.097H145.357C145.335 215.745 145.195 215.463 144.939 215.25C144.689 215.03 144.345 214.92 143.905 214.92C143.516 214.92 143.201 215.012 142.959 215.195C142.717 215.379 142.596 215.606 142.596 215.877C142.596 216.112 142.665 216.306 142.805 216.46C142.951 216.607 143.131 216.724 143.344 216.812C143.556 216.893 143.842 216.985 144.202 217.087C144.634 217.205 144.979 217.318 145.236 217.428C145.492 217.538 145.712 217.7 145.896 217.912C146.079 218.125 146.174 218.407 146.182 218.759C146.182 219.082 146.094 219.372 145.918 219.628C145.742 219.878 145.496 220.076 145.181 220.222C144.865 220.369 144.502 220.442 144.092 220.442ZM148.39 215.668C148.581 215.265 148.881 214.931 149.292 214.667C149.71 214.396 150.205 214.26 150.777 214.26C151.32 214.26 151.807 214.389 152.24 214.645C152.68 214.895 153.021 215.254 153.263 215.723C153.512 216.185 153.637 216.724 153.637 217.34C153.637 217.956 153.512 218.499 153.263 218.968C153.021 219.438 152.68 219.801 152.24 220.057C151.807 220.314 151.32 220.442 150.777 220.442C150.212 220.442 149.721 220.31 149.303 220.046C148.885 219.775 148.581 219.438 148.39 219.034V223.192H147.631V214.348H148.39V215.668ZM152.856 217.34C152.856 216.842 152.757 216.413 152.559 216.053C152.368 215.687 152.104 215.408 151.767 215.217C151.43 215.027 151.048 214.931 150.623 214.931C150.212 214.931 149.835 215.03 149.49 215.228C149.153 215.426 148.885 215.709 148.687 216.075C148.489 216.442 148.39 216.867 148.39 217.351C148.39 217.835 148.489 218.261 148.687 218.627C148.885 218.994 149.153 219.276 149.49 219.474C149.835 219.672 150.212 219.771 150.623 219.771C151.048 219.771 151.43 219.676 151.767 219.485C152.104 219.287 152.368 219.005 152.559 218.638C152.757 218.264 152.856 217.832 152.856 217.34ZM160.488 217.043C160.488 217.307 160.48 217.509 160.466 217.648H155.483C155.505 218.103 155.615 218.492 155.813 218.814C156.011 219.137 156.271 219.383 156.594 219.551C156.916 219.713 157.268 219.793 157.65 219.793C158.148 219.793 158.566 219.672 158.904 219.43C159.248 219.188 159.476 218.862 159.586 218.451H160.4C160.253 219.038 159.938 219.518 159.454 219.892C158.977 220.259 158.376 220.442 157.65 220.442C157.085 220.442 156.579 220.318 156.132 220.068C155.684 219.812 155.332 219.452 155.076 218.99C154.826 218.521 154.702 217.975 154.702 217.351C154.702 216.728 154.826 216.182 155.076 215.712C155.325 215.243 155.673 214.884 156.121 214.634C156.568 214.385 157.078 214.26 157.65 214.26C158.222 214.26 158.72 214.385 159.146 214.634C159.578 214.884 159.908 215.221 160.136 215.646C160.37 216.064 160.488 216.53 160.488 217.043ZM159.707 217.021C159.714 216.574 159.622 216.193 159.432 215.877C159.248 215.562 158.995 215.324 158.673 215.162C158.35 215.001 157.998 214.92 157.617 214.92C157.045 214.92 156.557 215.104 156.154 215.47C155.75 215.837 155.527 216.354 155.483 217.021H159.707ZM164.713 214.238C165.431 214.238 166.018 214.462 166.473 214.909C166.927 215.349 167.155 215.991 167.155 216.834V220.354H166.396V216.922C166.396 216.27 166.231 215.771 165.901 215.426C165.578 215.082 165.134 214.909 164.57 214.909C163.99 214.909 163.528 215.093 163.184 215.459C162.839 215.826 162.667 216.365 162.667 217.076V220.354H161.897V214.348H162.667V215.371C162.857 215.005 163.132 214.726 163.492 214.535C163.851 214.337 164.258 214.238 164.713 214.238ZM169.859 214.997V218.726C169.859 219.093 169.928 219.346 170.068 219.485C170.207 219.625 170.453 219.694 170.805 219.694H171.509V220.354H170.684C170.141 220.354 169.738 220.23 169.474 219.98C169.21 219.724 169.078 219.306 169.078 218.726V214.997H168.242V214.348H169.078V212.841H169.859V214.348H171.509V214.997H169.859ZM178.426 220.442C177.861 220.442 177.352 220.318 176.897 220.068C176.45 219.812 176.094 219.452 175.83 218.99C175.573 218.521 175.445 217.975 175.445 217.351C175.445 216.728 175.577 216.185 175.841 215.723C176.105 215.254 176.464 214.895 176.919 214.645C177.374 214.389 177.883 214.26 178.448 214.26C179.013 214.26 179.522 214.389 179.977 214.645C180.439 214.895 180.798 215.254 181.055 215.723C181.319 216.185 181.451 216.728 181.451 217.351C181.451 217.967 181.319 218.51 181.055 218.979C180.791 219.449 180.428 219.812 179.966 220.068C179.504 220.318 178.991 220.442 178.426 220.442ZM178.426 219.771C178.822 219.771 179.189 219.683 179.526 219.507C179.863 219.324 180.135 219.053 180.34 218.693C180.553 218.327 180.659 217.879 180.659 217.351C180.659 216.823 180.556 216.38 180.351 216.02C180.146 215.654 179.874 215.382 179.537 215.206C179.2 215.023 178.833 214.931 178.437 214.931C178.041 214.931 177.674 215.023 177.337 215.206C177 215.382 176.728 215.654 176.523 216.02C176.325 216.38 176.226 216.823 176.226 217.351C176.226 217.879 176.325 218.327 176.523 218.693C176.728 219.053 176.996 219.324 177.326 219.507C177.663 219.683 178.03 219.771 178.426 219.771ZM188.058 214.348V220.354H187.288V219.298C187.112 219.672 186.84 219.958 186.474 220.156C186.107 220.354 185.696 220.453 185.242 220.453C184.523 220.453 183.936 220.233 183.482 219.793C183.027 219.346 182.8 218.701 182.8 217.857V214.348H183.559V217.769C183.559 218.422 183.72 218.921 184.043 219.265C184.373 219.61 184.82 219.782 185.385 219.782C185.964 219.782 186.426 219.599 186.771 219.232C187.115 218.866 187.288 218.327 187.288 217.615V214.348H188.058ZM190.817 214.997V218.726C190.817 219.093 190.886 219.346 191.026 219.485C191.165 219.625 191.411 219.694 191.763 219.694H192.467V220.354H191.642C191.099 220.354 190.696 220.23 190.432 219.98C190.168 219.724 190.036 219.306 190.036 218.726V214.997H189.2V214.348H190.036V212.841H190.817V214.348H192.467V214.997H190.817Z" fill="black"/>
<rect x="86" y="58.5301" width="163.547" height="89.8969" fill="url(#paint0_linear_15_813)"/>
<path d="M100.086 88.8567C100.819 88.8567 101.411 89.4617 101.411 90.2106V91.721C101.477 91.7294 101.539 91.7379 101.605 91.7506C102.044 91.8183 103.347 92.034 103.885 92.1737C104.593 92.3556 105.023 93.0918 104.845 93.8195C104.667 94.5472 103.947 94.9829 103.236 94.801C102.851 94.6995 101.68 94.5049 101.212 94.4329C99.8836 94.2299 98.7456 94.3314 97.9635 94.6402C97.2062 94.9364 96.8917 95.3553 96.8089 95.8249C96.7303 96.2776 96.7882 96.5357 96.8627 96.6964C96.9413 96.8657 97.0944 97.0561 97.3965 97.2634C98.0669 97.7203 99.0974 98.0207 100.43 98.393L100.546 98.4268C101.721 98.7526 103.161 99.1546 104.229 99.878C104.812 100.276 105.359 100.813 105.698 101.558C106.041 102.311 106.116 103.157 105.959 104.058C105.673 105.666 104.589 106.74 103.244 107.303C102.677 107.54 102.06 107.692 101.407 107.769V109.165C101.407 109.914 100.815 110.519 100.082 110.519C99.3498 110.519 98.758 109.914 98.758 109.165V107.688C98.7415 107.684 98.7208 107.684 98.7042 107.68H98.6959C97.6862 107.519 96.0268 107.075 94.9094 106.567C94.239 106.262 93.9411 105.463 94.239 104.782C94.537 104.1 95.3191 103.792 95.9854 104.096C96.8503 104.49 98.2738 104.875 99.0974 105.01C100.417 105.209 101.506 105.095 102.242 104.786C102.942 104.494 103.26 104.071 103.351 103.563C103.43 103.11 103.372 102.852 103.298 102.692C103.219 102.522 103.066 102.332 102.764 102.125C102.093 101.668 101.063 101.367 99.7305 100.995L99.6146 100.961C98.4394 100.635 96.9993 100.233 95.9316 99.5099C95.3481 99.1122 94.8018 98.5749 94.4625 97.8303C94.119 97.0772 94.0445 96.231 94.2018 95.3299C94.4998 93.6841 95.6585 92.6348 97.0241 92.1017C97.5621 91.8902 98.1497 91.7548 98.7622 91.6787V90.2106C98.7622 89.4617 99.3539 88.8567 100.086 88.8567Z" fill="#166678"/>
<path d="M100.086 118.642C100.819 118.642 101.411 119.247 101.411 119.996V121.506C101.477 121.515 101.539 121.523 101.605 121.536C102.044 121.603 103.347 121.819 103.885 121.959C104.593 122.141 105.023 122.877 104.845 123.605C104.667 124.332 103.947 124.768 103.236 124.586C102.851 124.485 101.68 124.29 101.212 124.218C99.8836 124.015 98.7456 124.116 97.9635 124.425C97.2062 124.721 96.8917 125.14 96.8089 125.61C96.7303 126.063 96.7882 126.321 96.8627 126.482C96.9413 126.651 97.0944 126.841 97.3965 127.048C98.0669 127.505 99.0974 127.806 100.43 128.178L100.546 128.212C101.721 128.538 103.161 128.94 104.229 129.663C104.812 130.061 105.359 130.598 105.698 131.343C106.041 132.096 106.116 132.942 105.959 133.843C105.673 135.451 104.589 136.526 103.244 137.088C102.677 137.325 102.06 137.477 101.407 137.554V138.95C101.407 139.699 100.815 140.304 100.082 140.304C99.3498 140.304 98.758 139.699 98.758 138.95V137.473C98.7415 137.469 98.7208 137.469 98.7042 137.465H98.6959C97.6862 137.304 96.0268 136.86 94.9094 136.352C94.239 136.047 93.9411 135.248 94.239 134.567C94.537 133.885 95.3191 133.577 95.9854 133.881C96.8503 134.275 98.2738 134.66 99.0974 134.795C100.417 134.994 101.506 134.88 102.242 134.571C102.942 134.279 103.26 133.856 103.351 133.348C103.43 132.895 103.372 132.637 103.298 132.477C103.219 132.307 103.066 132.117 102.764 131.91C102.093 131.453 101.063 131.152 99.7305 130.78L99.6146 130.746C98.4394 130.42 96.9993 130.019 95.9316 129.295C95.3481 128.897 94.8018 128.36 94.4625 127.615C94.119 126.862 94.0445 126.016 94.2018 125.115C94.4998 123.469 95.6585 122.42 97.0241 121.887C97.5621 121.675 98.1497 121.54 98.7622 121.464V119.996C98.7622 119.247 99.3539 118.642 100.086 118.642Z" fill="#166678"/>
<rect x="94.1232" y="66.6533" width="147.301" height="4.33238" rx="2.16619" fill="#79918E" fill-opacity="0.75"/>
<rect x="94.1232" y="76.4011" width="147.301" height="4.33238" rx="2.16619" fill="#79918E" fill-opacity="0.75"/>
<rect x="114.16" y="88.8567" width="127.264" height="4.33238" rx="2.16619" fill="#79918E" fill-opacity="0.75"/>
<rect x="114.16" y="97.5215" width="89.3553" height="4.33238" rx="2.16619" fill="#79918E" fill-opacity="0.75"/>
<rect x="114.16" y="106.186" width="105.06" height="4.33238" rx="2.16619" fill="#79918E" fill-opacity="0.75"/>
<rect x="114.16" y="118.642" width="127.264" height="4.33238" rx="2.16619" fill="#79918E" fill-opacity="0.75"/>
<rect x="114.16" y="127.307" width="89.3553" height="4.33238" rx="2.16619" fill="#79918E" fill-opacity="0.75"/>
<rect x="114.16" y="135.971" width="105.06" height="4.33238" rx="2.16619" fill="#79918E" fill-opacity="0.75"/>
<circle cx="225.448" cy="86.4197" r="47.0516" fill="#79918E" stroke="#E2E2E2" stroke-width="5"/>
<mask id="mask0_15_813" style="mask-type:alpha" maskUnits="userSpaceOnUse" x="173" y="36" width="100" height="100">
<circle cx="222.741" cy="86.4197" r="47.0516" fill="white" stroke="#E2E2E2" stroke-width="5"/>
</mask>
<g mask="url(#mask0_15_813)">
<rect x="202.974" y="62.3209" width="83.3983" height="20.0373" rx="10" fill="#166678"/>
<path d="M219.147 71.5082C219.432 71.5689 219.66 71.7112 219.833 71.9352C220.006 72.1545 220.092 72.4065 220.092 72.6912C220.092 73.1019 219.947 73.4285 219.658 73.6712C219.373 73.9092 218.974 74.0282 218.461 74.0282H216.172V69.1142H218.384C218.883 69.1142 219.273 69.2285 219.553 69.4572C219.838 69.6859 219.98 69.9962 219.98 70.3882C219.98 70.6775 219.903 70.9179 219.749 71.1092C219.6 71.3005 219.399 71.4335 219.147 71.5082ZM217.369 71.1022H218.153C218.349 71.1022 218.498 71.0602 218.601 70.9762C218.708 70.8875 218.762 70.7592 218.762 70.5912C218.762 70.4232 218.708 70.2949 218.601 70.2062C218.498 70.1175 218.349 70.0732 218.153 70.0732H217.369V71.1022ZM218.251 73.0622C218.452 73.0622 218.606 73.0179 218.713 72.9292C218.825 72.8359 218.881 72.7029 218.881 72.5302C218.881 72.3575 218.823 72.2222 218.706 72.1242C218.594 72.0262 218.438 71.9772 218.237 71.9772H217.369V73.0622H218.251ZM221.962 69.1142V72.0542C221.962 72.3482 222.035 72.5745 222.179 72.7332C222.324 72.8919 222.536 72.9712 222.816 72.9712C223.096 72.9712 223.311 72.8919 223.46 72.7332C223.61 72.5745 223.684 72.3482 223.684 72.0542V69.1142H224.881V72.0472C224.881 72.4859 224.788 72.8569 224.601 73.1602C224.415 73.4635 224.163 73.6922 223.845 73.8462C223.533 74.0002 223.183 74.0772 222.795 74.0772C222.408 74.0772 222.06 74.0025 221.752 73.8532C221.449 73.6992 221.209 73.4705 221.031 73.1672C220.854 72.8592 220.765 72.4859 220.765 72.0472V69.1142H221.962ZM227.563 69.1142C228.081 69.1142 228.534 69.2169 228.921 69.4222C229.308 69.6275 229.607 69.9169 229.817 70.2902C230.032 70.6589 230.139 71.0859 230.139 71.5712C230.139 72.0519 230.032 72.4789 229.817 72.8522C229.607 73.2255 229.306 73.5149 228.914 73.7202C228.527 73.9255 228.076 74.0282 227.563 74.0282H225.722V69.1142H227.563ZM227.486 72.9922C227.939 72.9922 228.291 72.8685 228.543 72.6212C228.795 72.3739 228.921 72.0239 228.921 71.5712C228.921 71.1185 228.795 70.7662 228.543 70.5142C228.291 70.2622 227.939 70.1362 227.486 70.1362H226.919V72.9922H227.486ZM234.07 70.6682C233.981 70.5049 233.853 70.3812 233.685 70.2972C233.521 70.2085 233.328 70.1642 233.104 70.1642C232.716 70.1642 232.406 70.2925 232.173 70.5492C231.939 70.8012 231.823 71.1395 231.823 71.5642C231.823 72.0169 231.944 72.3715 232.187 72.6282C232.434 72.8802 232.772 73.0062 233.202 73.0062C233.496 73.0062 233.743 72.9315 233.944 72.7822C234.149 72.6329 234.298 72.4182 234.392 72.1382H232.873V71.2562H235.477V72.3692C235.388 72.6679 235.236 72.9455 235.022 73.2022C234.812 73.4589 234.543 73.6665 234.217 73.8252C233.89 73.9839 233.521 74.0632 233.111 74.0632C232.625 74.0632 232.191 73.9582 231.809 73.7482C231.431 73.5335 231.134 73.2372 230.92 72.8592C230.71 72.4812 230.605 72.0495 230.605 71.5642C230.605 71.0789 230.71 70.6472 230.92 70.2692C231.134 69.8865 231.431 69.5902 231.809 69.3802C232.187 69.1655 232.618 69.0582 233.104 69.0582C233.692 69.0582 234.186 69.2005 234.588 69.4852C234.994 69.7699 235.262 70.1642 235.393 70.6682H234.07ZM237.337 70.0732V71.0672H238.94V71.9912H237.337V73.0692H239.15V74.0282H236.14V69.1142H239.15V70.0732H237.337ZM243.462 69.1142V70.0732H242.16V74.0282H240.963V70.0732H239.661V69.1142H243.462Z" fill="white"/>
<rect x="202.974" y="90.4814" width="83.3983" height="20.0373" rx="10" fill="#166678"/>
<path d="M216.72 98.1532V99.1472H218.323V100.071H216.72V101.149H218.533V102.108H215.523V97.1942H218.533V98.1532H216.72ZM222.32 102.108L221.319 100.603L220.437 102.108H219.079L220.654 99.6092L219.044 97.1942H220.437L221.424 98.6782L222.292 97.1942H223.65L222.089 99.6722L223.713 102.108H222.32ZM228.059 98.7762C228.059 99.0609 227.994 99.3222 227.863 99.5602C227.732 99.7935 227.532 99.9825 227.261 100.127C226.99 100.272 226.654 100.344 226.253 100.344H225.511V102.108H224.314V97.1942H226.253C226.645 97.1942 226.976 97.2619 227.247 97.3972C227.518 97.5325 227.721 97.7192 227.856 97.9572C227.991 98.1952 228.059 98.4682 228.059 98.7762ZM226.162 99.3922C226.391 99.3922 226.561 99.3385 226.673 99.2312C226.785 99.1239 226.841 98.9722 226.841 98.7762C226.841 98.5802 226.785 98.4285 226.673 98.3212C226.561 98.2139 226.391 98.1602 226.162 98.1602H225.511V99.3922H226.162ZM229.879 98.1532V99.1472H231.482V100.071H229.879V101.149H231.692V102.108H228.682V97.1942H231.692V98.1532H229.879ZM236.865 102.108H235.668L233.666 99.0772V102.108H232.469V97.1942H233.666L235.668 100.239V97.1942H236.865V102.108ZM239.511 102.157C239.152 102.157 238.83 102.099 238.545 101.982C238.26 101.866 238.032 101.693 237.859 101.464C237.691 101.236 237.602 100.96 237.593 100.638H238.867C238.886 100.82 238.949 100.96 239.056 101.058C239.163 101.152 239.303 101.198 239.476 101.198C239.653 101.198 239.793 101.159 239.896 101.079C239.999 100.995 240.05 100.881 240.05 100.736C240.05 100.615 240.008 100.515 239.924 100.435C239.845 100.356 239.744 100.291 239.623 100.239C239.506 100.188 239.338 100.13 239.119 100.064C238.802 99.9662 238.543 99.8682 238.342 99.7702C238.141 99.6722 237.969 99.5275 237.824 99.3362C237.679 99.1449 237.607 98.8952 237.607 98.5872C237.607 98.1299 237.773 97.7729 238.104 97.5162C238.435 97.2549 238.867 97.1242 239.399 97.1242C239.94 97.1242 240.377 97.2549 240.708 97.5162C241.039 97.7729 241.217 98.1322 241.24 98.5942H239.945C239.936 98.4355 239.877 98.3119 239.77 98.2232C239.663 98.1299 239.525 98.0832 239.357 98.0832C239.212 98.0832 239.096 98.1229 239.007 98.2022C238.918 98.2769 238.874 98.3865 238.874 98.5312C238.874 98.6899 238.949 98.8135 239.098 98.9022C239.247 98.9909 239.481 99.0865 239.798 99.1892C240.115 99.2965 240.372 99.3992 240.568 99.4972C240.769 99.5952 240.941 99.7375 241.086 99.9242C241.231 100.111 241.303 100.351 241.303 100.645C241.303 100.925 241.231 101.18 241.086 101.408C240.946 101.637 240.741 101.819 240.47 101.954C240.199 102.09 239.88 102.157 239.511 102.157ZM243.237 98.1532V99.1472H244.84V100.071H243.237V101.149H245.05V102.108H242.04V97.1942H245.05V98.1532H243.237ZM247.605 102.157C247.245 102.157 246.923 102.099 246.639 101.982C246.354 101.866 246.125 101.693 245.953 101.464C245.785 101.236 245.696 100.96 245.687 100.638H246.961C246.979 100.82 247.042 100.96 247.15 101.058C247.257 101.152 247.397 101.198 247.57 101.198C247.747 101.198 247.887 101.159 247.99 101.079C248.092 100.995 248.144 100.881 248.144 100.736C248.144 100.615 248.102 100.515 248.018 100.435C247.938 100.356 247.838 100.291 247.717 100.239C247.6 100.188 247.432 100.13 247.213 100.064C246.895 99.9662 246.636 99.8682 246.436 99.7702C246.235 99.6722 246.062 99.5275 245.918 99.3362C245.773 99.1449 245.701 98.8952 245.701 98.5872C245.701 98.1299 245.866 97.7729 246.198 97.5162C246.529 97.2549 246.961 97.1242 247.493 97.1242C248.034 97.1242 248.47 97.2549 248.802 97.5162C249.133 97.7729 249.31 98.1322 249.334 98.5942H248.039C248.029 98.4355 247.971 98.3119 247.864 98.2232C247.756 98.1299 247.619 98.0832 247.451 98.0832C247.306 98.0832 247.189 98.1229 247.101 98.2022C247.012 98.2769 246.968 98.3865 246.968 98.5312C246.968 98.6899 247.042 98.8135 247.192 98.9022C247.341 98.9909 247.574 99.0865 247.892 99.1892C248.209 99.2965 248.466 99.3992 248.662 99.4972C248.862 99.5952 249.035 99.7375 249.18 99.9242C249.324 100.111 249.397 100.351 249.397 100.645C249.397 100.925 249.324 101.18 249.18 101.408C249.04 101.637 248.834 101.819 248.564 101.954C248.293 102.09 247.973 102.157 247.605 102.157Z" fill="white"/>
</g>
<defs>
<filter id="filter0_d_15_813" x="0" y="0" width="334" height="264" filterUnits="userSpaceOnUse" color-interpolation-filters="sRGB">
<feFlood flood-opacity="0" result="BackgroundImageFix"/>
<feColorMatrix in="SourceAlpha" type="matrix" values="0 0 0 0 0 0 0 0 0 0 0 0 0 0 0 0 0 0 127 0" result="hardAlpha"/>
<feMorphology radius="2" operator="dilate" in="SourceAlpha" result="effect1_dropShadow_15_813"/>
<feOffset dy="2"/>
<feGaussianBlur stdDeviation="5"/>
<feComposite in2="hardAlpha" operator="out"/>
<feColorMatrix type="matrix" values="0 0 0 0 0 0 0 0 0 0 0 0 0 0 0 0 0 0 0.15 0"/>
<feBlend mode="normal" in2="BackgroundImageFix" result="effect1_dropShadow_15_813"/>
<feBlend mode="normal" in="SourceGraphic" in2="effect1_dropShadow_15_813" result="shape"/>
</filter>
<linearGradient id="paint0_linear_15_813" x1="167.774" y1="58.5301" x2="168.08" y2="172.408" gradientUnits="userSpaceOnUse">
<stop stop-color="#E2E2E2"/>
<stop offset="1" stop-color="#E2E2E2" stop-opacity="0"/>
</linearGradient>
</defs>
</svg>
