<svg width="15" height="15" viewBox="0 0 15 15" fill="none" xmlns="http://www.w3.org/2000/svg">
<g clip-path="url(#clip0_19_90)">
<path d="M14.5282 4.88086C14.622 5.13574 14.5429 5.41992 14.3407 5.60156L13.0722 6.75586C13.1044 6.99902 13.122 7.24805 13.122 7.5C13.122 7.75195 13.1044 8.00098 13.0722 8.24414L14.3407 9.39844C14.5429 9.58008 14.622 9.86426 14.5282 10.1191C14.3993 10.4678 14.244 10.8018 14.0653 11.124L13.9276 11.3613C13.7343 11.6836 13.5175 11.9883 13.2802 12.2754C13.1073 12.4863 12.8202 12.5566 12.5624 12.4746L10.9306 11.9561C10.538 12.2578 10.1044 12.5098 9.64149 12.7002L9.27528 14.373C9.21668 14.6396 9.01161 14.8506 8.74207 14.8945C8.33778 14.9619 7.92176 14.9971 7.49696 14.9971C7.07215 14.9971 6.65614 14.9619 6.25184 14.8945C5.98231 14.8506 5.77723 14.6396 5.71864 14.373L5.35242 12.7002C4.88953 12.5098 4.45594 12.2578 4.06336 11.9561L2.43446 12.4775C2.17664 12.5596 1.88953 12.4863 1.71668 12.2783C1.47938 11.9912 1.26258 11.6865 1.06922 11.3643L0.931526 11.127C0.752815 10.8047 0.597542 10.4707 0.468635 10.1221C0.374885 9.86719 0.453987 9.58301 0.656135 9.40137L1.92469 8.24707C1.89246 8.00098 1.87489 7.75195 1.87489 7.5C1.87489 7.24805 1.89246 6.99902 1.92469 6.75586L0.656135 5.60156C0.453987 5.41992 0.374885 5.13574 0.468635 4.88086C0.597542 4.53223 0.752815 4.19824 0.931526 3.87598L1.06922 3.63867C1.26258 3.31641 1.47938 3.01172 1.71668 2.72461C1.88953 2.51367 2.17664 2.44336 2.43446 2.52539L4.06629 3.04395C4.45887 2.74219 4.89246 2.49023 5.35535 2.2998L5.72157 0.626953C5.78016 0.360352 5.98524 0.149414 6.25477 0.105469C6.65907 0.0351562 7.07508 0 7.49989 0C7.92469 0 8.34071 0.0351562 8.745 0.102539C9.01453 0.146484 9.21961 0.357422 9.27821 0.624023L9.64442 2.29688C10.1073 2.4873 10.5409 2.73926 10.9335 3.04102L12.5653 2.52246C12.8231 2.44043 13.1102 2.51367 13.2831 2.72168C13.5204 3.00879 13.7372 3.31348 13.9306 3.63574L14.0682 3.87305C14.247 4.19531 14.4022 4.5293 14.5311 4.87793L14.5282 4.88086ZM7.49989 9.84375C8.79481 9.84375 9.84364 8.79492 9.84364 7.5C9.84364 6.20508 8.79481 5.15625 7.49989 5.15625C6.20496 5.15625 5.15614 6.20508 5.15614 7.5C5.15614 8.79492 6.20496 9.84375 7.49989 9.84375Z" fill="#C8C7C7"/>
</g>
<defs>
<clipPath id="clip0_19_90">
<rect width="15" height="15" fill="white"/>
</clipPath>
</defs>
</svg>
